G04 EAGLE Gerber X2 export*
%TF.Part,Single*%
%TF.FileFunction,Copper,L2,Bot,Mixed*%
%TF.FilePolarity,Positive*%
%TF.GenerationSoftware,Autodesk,EAGLE,8.6.0*%
%TF.CreationDate,2018-06-26T05:58:37Z*%
G75*
%MOMM*%
%FSLAX34Y34*%
%LPD*%
%AMOC8*
5,1,8,0,0,1.08239X$1,22.5*%
G01*
%ADD10R,2.670000X2.670000*%
%ADD11C,6.416000*%
%ADD12P,1.649562X8X22.500000*%
%ADD13C,0.756400*%
%ADD14C,0.203200*%

G36*
X26174Y10169D02*
X26174Y10169D01*
X26244Y10168D01*
X26331Y10189D01*
X26420Y10201D01*
X26485Y10226D01*
X26553Y10243D01*
X26632Y10285D01*
X26716Y10318D01*
X26772Y10359D01*
X26834Y10391D01*
X26901Y10452D01*
X26973Y10504D01*
X27018Y10558D01*
X27069Y10605D01*
X27119Y10680D01*
X27176Y10749D01*
X27206Y10813D01*
X27244Y10871D01*
X27273Y10956D01*
X27312Y11037D01*
X27325Y11106D01*
X27347Y11172D01*
X27354Y11261D01*
X27371Y11349D01*
X27367Y11419D01*
X27373Y11489D01*
X27357Y11577D01*
X27352Y11667D01*
X27330Y11733D01*
X27318Y11802D01*
X27281Y11884D01*
X27254Y11969D01*
X27216Y12028D01*
X27188Y12092D01*
X27132Y12162D01*
X27083Y12238D01*
X27033Y12286D01*
X26989Y12340D01*
X26917Y12395D01*
X26852Y12456D01*
X26791Y12490D01*
X26735Y12532D01*
X26590Y12603D01*
X21456Y14729D01*
X14729Y21456D01*
X11089Y30244D01*
X11089Y39756D01*
X14729Y48544D01*
X21456Y55271D01*
X30244Y58911D01*
X39756Y58911D01*
X48544Y55271D01*
X55271Y48544D01*
X58911Y39756D01*
X58911Y30244D01*
X55271Y21456D01*
X48544Y14729D01*
X43410Y12603D01*
X43349Y12568D01*
X43284Y12542D01*
X43211Y12490D01*
X43133Y12445D01*
X43083Y12397D01*
X43027Y12356D01*
X42969Y12286D01*
X42905Y12224D01*
X42869Y12164D01*
X42824Y12111D01*
X42786Y12029D01*
X42739Y11953D01*
X42718Y11886D01*
X42688Y11823D01*
X42672Y11735D01*
X42645Y11649D01*
X42642Y11579D01*
X42629Y11510D01*
X42634Y11421D01*
X42630Y11331D01*
X42644Y11263D01*
X42648Y11193D01*
X42676Y11108D01*
X42694Y11020D01*
X42725Y10957D01*
X42746Y10891D01*
X42794Y10815D01*
X42834Y10734D01*
X42879Y10681D01*
X42917Y10622D01*
X42982Y10560D01*
X43040Y10492D01*
X43097Y10452D01*
X43148Y10404D01*
X43227Y10361D01*
X43300Y10309D01*
X43366Y10284D01*
X43427Y10250D01*
X43514Y10228D01*
X43598Y10196D01*
X43667Y10188D01*
X43735Y10171D01*
X43895Y10161D01*
X606105Y10161D01*
X606174Y10169D01*
X606244Y10168D01*
X606331Y10189D01*
X606420Y10201D01*
X606485Y10226D01*
X606553Y10243D01*
X606632Y10285D01*
X606716Y10318D01*
X606772Y10359D01*
X606834Y10391D01*
X606901Y10452D01*
X606973Y10504D01*
X607018Y10558D01*
X607069Y10605D01*
X607119Y10680D01*
X607176Y10749D01*
X607206Y10813D01*
X607244Y10871D01*
X607273Y10956D01*
X607312Y11037D01*
X607325Y11106D01*
X607347Y11172D01*
X607354Y11261D01*
X607371Y11349D01*
X607367Y11419D01*
X607373Y11489D01*
X607357Y11577D01*
X607352Y11667D01*
X607330Y11733D01*
X607318Y11802D01*
X607281Y11884D01*
X607254Y11969D01*
X607216Y12028D01*
X607188Y12092D01*
X607132Y12162D01*
X607083Y12238D01*
X607033Y12286D01*
X606989Y12340D01*
X606917Y12395D01*
X606852Y12456D01*
X606791Y12490D01*
X606735Y12532D01*
X606590Y12603D01*
X601456Y14729D01*
X594729Y21456D01*
X591089Y30244D01*
X591089Y39756D01*
X594729Y48544D01*
X601456Y55271D01*
X610244Y58911D01*
X619756Y58911D01*
X628544Y55271D01*
X635271Y48544D01*
X638911Y39756D01*
X638911Y30244D01*
X635271Y21456D01*
X628544Y14729D01*
X623410Y12603D01*
X623349Y12568D01*
X623284Y12542D01*
X623211Y12490D01*
X623133Y12445D01*
X623083Y12397D01*
X623027Y12356D01*
X622969Y12286D01*
X622905Y12224D01*
X622869Y12164D01*
X622824Y12111D01*
X622786Y12029D01*
X622739Y11953D01*
X622718Y11886D01*
X622688Y11823D01*
X622672Y11735D01*
X622645Y11649D01*
X622642Y11579D01*
X622629Y11510D01*
X622634Y11421D01*
X622630Y11331D01*
X622644Y11263D01*
X622648Y11193D01*
X622676Y11108D01*
X622694Y11020D01*
X622725Y10957D01*
X622746Y10891D01*
X622794Y10815D01*
X622834Y10734D01*
X622879Y10681D01*
X622917Y10622D01*
X622982Y10560D01*
X623040Y10492D01*
X623097Y10452D01*
X623148Y10404D01*
X623227Y10361D01*
X623300Y10309D01*
X623366Y10284D01*
X623427Y10250D01*
X623514Y10228D01*
X623598Y10196D01*
X623667Y10188D01*
X623735Y10171D01*
X623895Y10161D01*
X1118570Y10161D01*
X1118688Y10176D01*
X1118807Y10183D01*
X1118845Y10196D01*
X1118886Y10201D01*
X1118996Y10244D01*
X1119109Y10281D01*
X1119144Y10303D01*
X1119181Y10318D01*
X1119277Y10387D01*
X1119378Y10451D01*
X1119406Y10481D01*
X1119439Y10504D01*
X1119515Y10596D01*
X1119596Y10683D01*
X1119616Y10718D01*
X1119641Y10749D01*
X1119692Y10857D01*
X1119750Y10961D01*
X1119760Y11001D01*
X1119777Y11037D01*
X1119799Y11154D01*
X1119829Y11269D01*
X1119833Y11329D01*
X1119837Y11349D01*
X1119835Y11370D01*
X1119839Y11430D01*
X1119839Y288570D01*
X1119824Y288688D01*
X1119817Y288807D01*
X1119804Y288845D01*
X1119799Y288886D01*
X1119756Y288996D01*
X1119719Y289109D01*
X1119697Y289144D01*
X1119682Y289181D01*
X1119613Y289277D01*
X1119549Y289378D01*
X1119519Y289406D01*
X1119496Y289439D01*
X1119404Y289515D01*
X1119317Y289596D01*
X1119282Y289616D01*
X1119251Y289641D01*
X1119143Y289692D01*
X1119039Y289750D01*
X1118999Y289760D01*
X1118963Y289777D01*
X1118846Y289799D01*
X1118731Y289829D01*
X1118671Y289833D01*
X1118651Y289837D01*
X1118630Y289835D01*
X1118570Y289839D01*
X623895Y289839D01*
X623826Y289831D01*
X623756Y289832D01*
X623669Y289811D01*
X623580Y289799D01*
X623515Y289774D01*
X623447Y289757D01*
X623368Y289715D01*
X623284Y289682D01*
X623228Y289641D01*
X623166Y289609D01*
X623099Y289548D01*
X623027Y289496D01*
X622982Y289442D01*
X622931Y289395D01*
X622881Y289320D01*
X622824Y289251D01*
X622794Y289187D01*
X622756Y289129D01*
X622727Y289044D01*
X622688Y288963D01*
X622675Y288894D01*
X622653Y288828D01*
X622646Y288739D01*
X622629Y288651D01*
X622633Y288581D01*
X622627Y288511D01*
X622643Y288423D01*
X622648Y288333D01*
X622670Y288267D01*
X622682Y288198D01*
X622719Y288116D01*
X622746Y288031D01*
X622784Y287972D01*
X622812Y287908D01*
X622868Y287838D01*
X622917Y287762D01*
X622967Y287714D01*
X623011Y287660D01*
X623083Y287605D01*
X623148Y287544D01*
X623209Y287510D01*
X623265Y287468D01*
X623410Y287397D01*
X628544Y285271D01*
X635271Y278544D01*
X638911Y269756D01*
X638911Y260244D01*
X635271Y251456D01*
X628544Y244729D01*
X619756Y241089D01*
X610244Y241089D01*
X601456Y244729D01*
X594729Y251456D01*
X591089Y260244D01*
X591089Y269756D01*
X594729Y278544D01*
X601456Y285271D01*
X606590Y287397D01*
X606651Y287432D01*
X606716Y287458D01*
X606789Y287510D01*
X606867Y287555D01*
X606917Y287603D01*
X606973Y287644D01*
X607031Y287714D01*
X607095Y287776D01*
X607131Y287836D01*
X607176Y287889D01*
X607214Y287971D01*
X607261Y288047D01*
X607282Y288114D01*
X607312Y288177D01*
X607328Y288265D01*
X607355Y288351D01*
X607358Y288421D01*
X607371Y288490D01*
X607366Y288579D01*
X607370Y288669D01*
X607356Y288737D01*
X607352Y288807D01*
X607324Y288892D01*
X607306Y288980D01*
X607275Y289043D01*
X607254Y289109D01*
X607206Y289185D01*
X607166Y289266D01*
X607121Y289319D01*
X607083Y289378D01*
X607018Y289440D01*
X606960Y289508D01*
X606903Y289548D01*
X606852Y289596D01*
X606773Y289639D01*
X606700Y289691D01*
X606634Y289716D01*
X606573Y289750D01*
X606486Y289772D01*
X606402Y289804D01*
X606333Y289812D01*
X606265Y289829D01*
X606105Y289839D01*
X117359Y289839D01*
X117222Y289822D01*
X117083Y289809D01*
X117064Y289802D01*
X117044Y289799D01*
X116915Y289748D01*
X116784Y289701D01*
X116767Y289690D01*
X116748Y289682D01*
X116635Y289601D01*
X116520Y289523D01*
X116507Y289507D01*
X116491Y289496D01*
X116402Y289388D01*
X116310Y289284D01*
X116301Y289266D01*
X116288Y289251D01*
X116229Y289125D01*
X116165Y289001D01*
X116161Y288981D01*
X116152Y288963D01*
X116126Y288827D01*
X116096Y288691D01*
X116096Y288670D01*
X116092Y288651D01*
X116101Y288512D01*
X116105Y288373D01*
X116111Y288353D01*
X116112Y288333D01*
X116155Y288201D01*
X116194Y288067D01*
X116204Y288050D01*
X116210Y288031D01*
X116285Y287913D01*
X116355Y287793D01*
X116374Y287772D01*
X116380Y287762D01*
X116395Y287748D01*
X116462Y287673D01*
X121621Y282513D01*
X121621Y272887D01*
X114632Y265897D01*
X114559Y265803D01*
X114480Y265714D01*
X114462Y265678D01*
X114437Y265646D01*
X114389Y265537D01*
X114335Y265431D01*
X114326Y265392D01*
X114310Y265354D01*
X114292Y265237D01*
X114266Y265121D01*
X114267Y265080D01*
X114261Y265040D01*
X114272Y264922D01*
X114275Y264803D01*
X114287Y264764D01*
X114290Y264724D01*
X114331Y264611D01*
X114364Y264497D01*
X114384Y264462D01*
X114398Y264424D01*
X114465Y264326D01*
X114525Y264223D01*
X114565Y264178D01*
X114577Y264161D01*
X114592Y264148D01*
X114632Y264102D01*
X121314Y257420D01*
X121322Y257414D01*
X121327Y257407D01*
X121447Y257317D01*
X121565Y257225D01*
X121574Y257221D01*
X121581Y257216D01*
X121726Y257145D01*
X122417Y256859D01*
X122445Y256851D01*
X122471Y256838D01*
X122598Y256809D01*
X122723Y256775D01*
X122753Y256774D01*
X122782Y256768D01*
X122911Y256772D01*
X123041Y256770D01*
X123070Y256777D01*
X123099Y256778D01*
X123224Y256814D01*
X123351Y256844D01*
X123377Y256858D01*
X123405Y256866D01*
X123517Y256932D01*
X123632Y256993D01*
X123653Y257013D01*
X123679Y257028D01*
X123800Y257134D01*
X130587Y263921D01*
X140213Y263921D01*
X146446Y257688D01*
X146524Y257628D01*
X146596Y257560D01*
X146649Y257531D01*
X146697Y257494D01*
X146788Y257454D01*
X146875Y257406D01*
X146933Y257391D01*
X146989Y257367D01*
X147087Y257352D01*
X147182Y257327D01*
X147283Y257321D01*
X147303Y257317D01*
X147315Y257319D01*
X147343Y257317D01*
X320898Y257317D01*
X322742Y256553D01*
X324332Y254963D01*
X335372Y243922D01*
X335451Y243862D01*
X335523Y243794D01*
X335576Y243765D01*
X335624Y243728D01*
X335714Y243688D01*
X335801Y243640D01*
X335860Y243625D01*
X335915Y243601D01*
X336013Y243586D01*
X336109Y243561D01*
X336209Y243555D01*
X336229Y243551D01*
X336242Y243553D01*
X336270Y243551D01*
X361007Y243551D01*
X363351Y241207D01*
X363351Y234078D01*
X363357Y234029D01*
X363355Y233979D01*
X363377Y233872D01*
X363391Y233763D01*
X363409Y233716D01*
X363419Y233668D01*
X363467Y233569D01*
X363508Y233467D01*
X363537Y233427D01*
X363559Y233382D01*
X363630Y233299D01*
X363694Y233210D01*
X363733Y233178D01*
X363765Y233140D01*
X363855Y233077D01*
X363939Y233007D01*
X363984Y232986D01*
X364025Y232957D01*
X364128Y232918D01*
X364227Y232871D01*
X364276Y232862D01*
X364322Y232844D01*
X364432Y232832D01*
X364539Y232811D01*
X364589Y232815D01*
X364638Y232809D01*
X364747Y232824D01*
X364857Y232831D01*
X364904Y232847D01*
X364953Y232853D01*
X365106Y232906D01*
X367827Y234033D01*
X370923Y234033D01*
X373784Y232848D01*
X374993Y231638D01*
X375071Y231578D01*
X375143Y231510D01*
X375196Y231481D01*
X375244Y231444D01*
X375335Y231404D01*
X375422Y231356D01*
X375480Y231341D01*
X375536Y231317D01*
X375634Y231302D01*
X375730Y231277D01*
X375830Y231271D01*
X375850Y231267D01*
X375862Y231269D01*
X375890Y231267D01*
X405360Y231267D01*
X405458Y231279D01*
X405557Y231282D01*
X405615Y231299D01*
X405675Y231307D01*
X405767Y231343D01*
X405862Y231371D01*
X405915Y231401D01*
X405971Y231424D01*
X406051Y231482D01*
X406136Y231532D01*
X406212Y231598D01*
X406228Y231610D01*
X406236Y231620D01*
X406257Y231638D01*
X407466Y232848D01*
X410327Y234033D01*
X413423Y234033D01*
X416284Y232848D01*
X416482Y232649D01*
X416562Y232587D01*
X416631Y232523D01*
X416664Y232504D01*
X416699Y232475D01*
X416718Y232466D01*
X416734Y232454D01*
X416834Y232411D01*
X416909Y232369D01*
X416942Y232361D01*
X416987Y232339D01*
X417007Y232336D01*
X417026Y232328D01*
X417141Y232309D01*
X417217Y232290D01*
X417262Y232287D01*
X417300Y232280D01*
X417320Y232281D01*
X417340Y232278D01*
X417366Y232280D01*
X417378Y232279D01*
X417380Y232279D01*
X417445Y232288D01*
X417478Y232291D01*
X417617Y232299D01*
X417636Y232306D01*
X417656Y232308D01*
X417685Y232318D01*
X417696Y232319D01*
X417760Y232345D01*
X417788Y232355D01*
X417919Y232397D01*
X417936Y232408D01*
X417956Y232415D01*
X417981Y232432D01*
X417991Y232436D01*
X418054Y232482D01*
X418071Y232493D01*
X418188Y232568D01*
X418202Y232582D01*
X418219Y232594D01*
X418238Y232615D01*
X418249Y232623D01*
X418306Y232693D01*
X418311Y232698D01*
X418406Y232799D01*
X418416Y232817D01*
X418429Y232832D01*
X418442Y232856D01*
X418451Y232868D01*
X418495Y232960D01*
X418560Y233078D01*
X418565Y233097D01*
X418574Y233115D01*
X418579Y233140D01*
X418587Y233156D01*
X418608Y233264D01*
X418639Y233386D01*
X418641Y233414D01*
X418644Y233426D01*
X418643Y233446D01*
X418643Y233449D01*
X418647Y233468D01*
X418646Y233487D01*
X418649Y233546D01*
X418649Y241207D01*
X420993Y243551D01*
X451007Y243551D01*
X453351Y241207D01*
X453351Y211193D01*
X451007Y208849D01*
X420993Y208849D01*
X418649Y211193D01*
X418649Y218954D01*
X418632Y219092D01*
X418619Y219230D01*
X418612Y219249D01*
X418609Y219269D01*
X418558Y219398D01*
X418511Y219529D01*
X418500Y219546D01*
X418492Y219565D01*
X418411Y219677D01*
X418333Y219792D01*
X418317Y219806D01*
X418306Y219822D01*
X418198Y219911D01*
X418094Y220003D01*
X418076Y220012D01*
X418061Y220025D01*
X417935Y220084D01*
X417811Y220147D01*
X417791Y220152D01*
X417773Y220161D01*
X417637Y220187D01*
X417501Y220217D01*
X417480Y220216D01*
X417461Y220220D01*
X417322Y220212D01*
X417183Y220207D01*
X417163Y220202D01*
X417143Y220201D01*
X417011Y220158D01*
X416877Y220119D01*
X416860Y220109D01*
X416841Y220103D01*
X416723Y220028D01*
X416603Y219957D01*
X416582Y219939D01*
X416572Y219932D01*
X416558Y219917D01*
X416482Y219851D01*
X416284Y219652D01*
X413423Y218467D01*
X410327Y218467D01*
X407466Y219652D01*
X406257Y220862D01*
X406179Y220922D01*
X406107Y220990D01*
X406054Y221019D01*
X406006Y221056D01*
X405915Y221096D01*
X405828Y221144D01*
X405770Y221159D01*
X405714Y221183D01*
X405616Y221198D01*
X405520Y221223D01*
X405420Y221229D01*
X405400Y221233D01*
X405388Y221231D01*
X405360Y221233D01*
X375890Y221233D01*
X375792Y221221D01*
X375693Y221218D01*
X375635Y221201D01*
X375575Y221193D01*
X375483Y221157D01*
X375388Y221129D01*
X375336Y221099D01*
X375279Y221076D01*
X375199Y221018D01*
X375114Y220968D01*
X375038Y220902D01*
X375022Y220890D01*
X375014Y220880D01*
X374993Y220862D01*
X373784Y219652D01*
X370923Y218467D01*
X367827Y218467D01*
X365106Y219594D01*
X365058Y219608D01*
X365013Y219629D01*
X364905Y219649D01*
X364799Y219678D01*
X364749Y219679D01*
X364700Y219689D01*
X364591Y219682D01*
X364481Y219683D01*
X364433Y219672D01*
X364383Y219669D01*
X364279Y219635D01*
X364172Y219609D01*
X364128Y219586D01*
X364081Y219571D01*
X363988Y219512D01*
X363891Y219461D01*
X363854Y219427D01*
X363812Y219401D01*
X363737Y219321D01*
X363655Y219247D01*
X363628Y219205D01*
X363594Y219169D01*
X363541Y219073D01*
X363481Y218981D01*
X363464Y218934D01*
X363440Y218890D01*
X363413Y218784D01*
X363377Y218680D01*
X363373Y218631D01*
X363361Y218583D01*
X363351Y218422D01*
X363351Y211193D01*
X361007Y208849D01*
X330993Y208849D01*
X328649Y211193D01*
X328649Y235930D01*
X328637Y236028D01*
X328634Y236127D01*
X328617Y236186D01*
X328609Y236246D01*
X328573Y236338D01*
X328545Y236433D01*
X328515Y236485D01*
X328492Y236541D01*
X328434Y236622D01*
X328384Y236707D01*
X328318Y236782D01*
X328306Y236799D01*
X328296Y236807D01*
X328278Y236828D01*
X318194Y246912D01*
X318115Y246972D01*
X318043Y247040D01*
X317990Y247069D01*
X317942Y247106D01*
X317851Y247146D01*
X317765Y247194D01*
X317706Y247209D01*
X317651Y247233D01*
X317553Y247248D01*
X317457Y247273D01*
X317357Y247279D01*
X317337Y247283D01*
X317324Y247281D01*
X317296Y247283D01*
X284276Y247283D01*
X284138Y247266D01*
X283999Y247253D01*
X283980Y247246D01*
X283960Y247243D01*
X283831Y247192D01*
X283700Y247145D01*
X283683Y247134D01*
X283664Y247126D01*
X283552Y247045D01*
X283437Y246967D01*
X283424Y246951D01*
X283407Y246940D01*
X283318Y246832D01*
X283226Y246728D01*
X283217Y246710D01*
X283204Y246695D01*
X283145Y246569D01*
X283082Y246445D01*
X283077Y246425D01*
X283069Y246407D01*
X283043Y246270D01*
X283012Y246135D01*
X283013Y246114D01*
X283009Y246095D01*
X283018Y245956D01*
X283022Y245817D01*
X283028Y245797D01*
X283029Y245777D01*
X283071Y245645D01*
X283110Y245511D01*
X283121Y245494D01*
X283127Y245475D01*
X283201Y245357D01*
X283272Y245237D01*
X283290Y245216D01*
X283297Y245206D01*
X283312Y245192D01*
X283378Y245117D01*
X284199Y244295D01*
X284200Y244295D01*
X335372Y193122D01*
X335451Y193062D01*
X335523Y192994D01*
X335576Y192965D01*
X335624Y192928D01*
X335715Y192888D01*
X335801Y192840D01*
X335860Y192825D01*
X335915Y192801D01*
X336013Y192786D01*
X336109Y192761D01*
X336209Y192755D01*
X336229Y192751D01*
X336242Y192753D01*
X336270Y192751D01*
X361007Y192751D01*
X363351Y190407D01*
X363351Y183712D01*
X363357Y183663D01*
X363355Y183613D01*
X363377Y183506D01*
X363391Y183397D01*
X363409Y183350D01*
X363419Y183302D01*
X363467Y183203D01*
X363508Y183101D01*
X363537Y183061D01*
X363559Y183016D01*
X363630Y182933D01*
X363694Y182844D01*
X363733Y182812D01*
X363765Y182774D01*
X363855Y182711D01*
X363939Y182641D01*
X363984Y182620D01*
X364025Y182591D01*
X364128Y182552D01*
X364227Y182505D01*
X364276Y182496D01*
X364322Y182478D01*
X364432Y182466D01*
X364539Y182445D01*
X364589Y182448D01*
X364638Y182443D01*
X364747Y182458D01*
X364857Y182465D01*
X364904Y182480D01*
X364953Y182487D01*
X365106Y182539D01*
X367202Y183408D01*
X370298Y183408D01*
X373159Y182223D01*
X373743Y181638D01*
X373821Y181578D01*
X373893Y181510D01*
X373946Y181481D01*
X373994Y181444D01*
X374085Y181404D01*
X374172Y181356D01*
X374230Y181341D01*
X374286Y181317D01*
X374384Y181302D01*
X374480Y181277D01*
X374580Y181271D01*
X374600Y181267D01*
X374612Y181269D01*
X374640Y181267D01*
X404735Y181267D01*
X404833Y181279D01*
X404932Y181282D01*
X404990Y181299D01*
X405050Y181307D01*
X405142Y181343D01*
X405237Y181371D01*
X405289Y181401D01*
X405346Y181424D01*
X405426Y181482D01*
X405511Y181532D01*
X405587Y181598D01*
X405603Y181610D01*
X405611Y181620D01*
X405632Y181638D01*
X406841Y182848D01*
X409702Y184033D01*
X412798Y184033D01*
X415659Y182848D01*
X416483Y182024D01*
X416592Y181939D01*
X416699Y181850D01*
X416718Y181841D01*
X416734Y181829D01*
X416861Y181774D01*
X416987Y181714D01*
X417007Y181711D01*
X417026Y181703D01*
X417164Y181681D01*
X417300Y181655D01*
X417320Y181656D01*
X417340Y181653D01*
X417479Y181666D01*
X417617Y181674D01*
X417636Y181681D01*
X417656Y181683D01*
X417788Y181730D01*
X417919Y181772D01*
X417937Y181783D01*
X417956Y181790D01*
X418071Y181868D01*
X418188Y181943D01*
X418202Y181957D01*
X418219Y181969D01*
X418311Y182073D01*
X418406Y182174D01*
X418416Y182192D01*
X418429Y182207D01*
X418492Y182331D01*
X418560Y182453D01*
X418565Y182472D01*
X418574Y182490D01*
X418604Y182626D01*
X418639Y182761D01*
X418641Y182789D01*
X418644Y182801D01*
X418643Y182821D01*
X418649Y182921D01*
X418649Y190407D01*
X420993Y192751D01*
X451007Y192751D01*
X453351Y190407D01*
X453351Y160393D01*
X451007Y158049D01*
X420993Y158049D01*
X418649Y160393D01*
X418649Y169579D01*
X418632Y169717D01*
X418619Y169855D01*
X418612Y169874D01*
X418609Y169894D01*
X418558Y170023D01*
X418511Y170154D01*
X418500Y170171D01*
X418492Y170190D01*
X418411Y170302D01*
X418333Y170417D01*
X418317Y170431D01*
X418306Y170447D01*
X418198Y170536D01*
X418094Y170628D01*
X418076Y170637D01*
X418061Y170650D01*
X417935Y170709D01*
X417811Y170772D01*
X417791Y170777D01*
X417773Y170786D01*
X417636Y170812D01*
X417501Y170842D01*
X417480Y170841D01*
X417461Y170845D01*
X417322Y170837D01*
X417183Y170832D01*
X417163Y170827D01*
X417143Y170826D01*
X417011Y170783D01*
X416877Y170744D01*
X416860Y170734D01*
X416841Y170728D01*
X416723Y170653D01*
X416603Y170582D01*
X416582Y170564D01*
X416572Y170557D01*
X416558Y170542D01*
X416483Y170476D01*
X415659Y169652D01*
X412798Y168467D01*
X409702Y168467D01*
X406841Y169652D01*
X405632Y170862D01*
X405554Y170922D01*
X405482Y170990D01*
X405429Y171019D01*
X405381Y171056D01*
X405290Y171096D01*
X405203Y171144D01*
X405145Y171159D01*
X405089Y171183D01*
X404991Y171198D01*
X404895Y171223D01*
X404795Y171229D01*
X404775Y171233D01*
X404763Y171231D01*
X404735Y171233D01*
X375890Y171233D01*
X375792Y171221D01*
X375693Y171218D01*
X375635Y171201D01*
X375575Y171193D01*
X375483Y171157D01*
X375388Y171129D01*
X375336Y171099D01*
X375279Y171076D01*
X375199Y171018D01*
X375114Y170968D01*
X375038Y170902D01*
X375022Y170890D01*
X375014Y170880D01*
X374993Y170862D01*
X373159Y169027D01*
X370298Y167842D01*
X367202Y167842D01*
X365106Y168711D01*
X365058Y168724D01*
X365013Y168745D01*
X364905Y168765D01*
X364799Y168794D01*
X364749Y168795D01*
X364700Y168805D01*
X364591Y168798D01*
X364481Y168800D01*
X364433Y168788D01*
X364383Y168785D01*
X364279Y168751D01*
X364172Y168725D01*
X364128Y168702D01*
X364081Y168687D01*
X363988Y168628D01*
X363891Y168577D01*
X363854Y168543D01*
X363812Y168517D01*
X363737Y168437D01*
X363655Y168363D01*
X363628Y168321D01*
X363594Y168285D01*
X363541Y168189D01*
X363481Y168097D01*
X363464Y168050D01*
X363440Y168007D01*
X363413Y167900D01*
X363377Y167796D01*
X363373Y167747D01*
X363361Y167699D01*
X363351Y167538D01*
X363351Y160393D01*
X361007Y158049D01*
X330993Y158049D01*
X328649Y160393D01*
X328649Y185130D01*
X328637Y185228D01*
X328634Y185327D01*
X328617Y185386D01*
X328609Y185446D01*
X328573Y185538D01*
X328545Y185633D01*
X328515Y185685D01*
X328492Y185741D01*
X328434Y185821D01*
X328384Y185907D01*
X328318Y185982D01*
X328306Y185999D01*
X328296Y186007D01*
X328278Y186028D01*
X278062Y236244D01*
X277983Y236304D01*
X277911Y236372D01*
X277858Y236401D01*
X277810Y236438D01*
X277719Y236478D01*
X277633Y236526D01*
X277574Y236541D01*
X277519Y236565D01*
X277421Y236580D01*
X277325Y236605D01*
X277225Y236611D01*
X277205Y236615D01*
X277192Y236613D01*
X277164Y236615D01*
X129983Y236615D01*
X128139Y237379D01*
X126550Y238969D01*
X120724Y244795D01*
X120630Y244868D01*
X120540Y244946D01*
X120505Y244965D01*
X120473Y244990D01*
X120363Y245037D01*
X120257Y245091D01*
X120218Y245100D01*
X120181Y245116D01*
X120063Y245135D01*
X119947Y245161D01*
X119907Y245159D01*
X119867Y245166D01*
X119748Y245155D01*
X119629Y245151D01*
X119590Y245140D01*
X119550Y245136D01*
X119438Y245096D01*
X119324Y245063D01*
X119289Y245042D01*
X119251Y245028D01*
X119152Y244961D01*
X119050Y244901D01*
X119004Y244861D01*
X118988Y244850D01*
X118974Y244834D01*
X118929Y244795D01*
X114813Y240679D01*
X105187Y240679D01*
X98197Y247668D01*
X98103Y247741D01*
X98014Y247820D01*
X97978Y247838D01*
X97946Y247863D01*
X97837Y247911D01*
X97731Y247965D01*
X97692Y247974D01*
X97654Y247990D01*
X97537Y248008D01*
X97421Y248034D01*
X97380Y248033D01*
X97340Y248039D01*
X97222Y248028D01*
X97103Y248025D01*
X97064Y248013D01*
X97024Y248010D01*
X96911Y247969D01*
X96797Y247936D01*
X96762Y247916D01*
X96724Y247902D01*
X96626Y247835D01*
X96523Y247775D01*
X96478Y247735D01*
X96461Y247723D01*
X96448Y247708D01*
X96402Y247668D01*
X89413Y240679D01*
X79787Y240679D01*
X72979Y247487D01*
X72979Y257113D01*
X79968Y264102D01*
X80041Y264197D01*
X80120Y264286D01*
X80138Y264322D01*
X80163Y264354D01*
X80211Y264463D01*
X80265Y264569D01*
X80274Y264608D01*
X80290Y264646D01*
X80308Y264763D01*
X80334Y264879D01*
X80333Y264920D01*
X80339Y264960D01*
X80328Y265078D01*
X80325Y265197D01*
X80313Y265236D01*
X80310Y265276D01*
X80269Y265389D01*
X80236Y265503D01*
X80216Y265537D01*
X80202Y265576D01*
X80135Y265674D01*
X80075Y265777D01*
X80035Y265822D01*
X80023Y265839D01*
X80008Y265852D01*
X79968Y265897D01*
X72979Y272887D01*
X72979Y282513D01*
X78138Y287673D01*
X78224Y287782D01*
X78312Y287889D01*
X78321Y287908D01*
X78333Y287924D01*
X78389Y288052D01*
X78448Y288177D01*
X78452Y288197D01*
X78460Y288216D01*
X78482Y288354D01*
X78508Y288490D01*
X78506Y288510D01*
X78509Y288530D01*
X78496Y288669D01*
X78488Y288807D01*
X78482Y288826D01*
X78480Y288846D01*
X78432Y288978D01*
X78390Y289109D01*
X78379Y289127D01*
X78372Y289146D01*
X78294Y289261D01*
X78220Y289378D01*
X78205Y289392D01*
X78193Y289409D01*
X78089Y289501D01*
X77988Y289596D01*
X77970Y289606D01*
X77955Y289619D01*
X77831Y289683D01*
X77709Y289750D01*
X77690Y289755D01*
X77672Y289764D01*
X77536Y289794D01*
X77402Y289829D01*
X77373Y289831D01*
X77362Y289834D01*
X77341Y289833D01*
X77241Y289839D01*
X43895Y289839D01*
X43826Y289831D01*
X43756Y289832D01*
X43669Y289811D01*
X43580Y289799D01*
X43515Y289774D01*
X43447Y289757D01*
X43368Y289715D01*
X43284Y289682D01*
X43228Y289641D01*
X43166Y289609D01*
X43099Y289548D01*
X43027Y289496D01*
X42982Y289442D01*
X42931Y289395D01*
X42881Y289320D01*
X42824Y289251D01*
X42794Y289187D01*
X42756Y289129D01*
X42727Y289044D01*
X42688Y288963D01*
X42675Y288894D01*
X42653Y288828D01*
X42646Y288739D01*
X42629Y288651D01*
X42633Y288581D01*
X42627Y288511D01*
X42643Y288423D01*
X42648Y288333D01*
X42670Y288267D01*
X42682Y288198D01*
X42719Y288116D01*
X42746Y288031D01*
X42784Y287972D01*
X42812Y287908D01*
X42868Y287838D01*
X42917Y287762D01*
X42967Y287714D01*
X43011Y287660D01*
X43083Y287605D01*
X43148Y287544D01*
X43209Y287510D01*
X43265Y287468D01*
X43410Y287397D01*
X48544Y285271D01*
X55271Y278544D01*
X58911Y269756D01*
X58911Y260244D01*
X55271Y251456D01*
X48544Y244729D01*
X39756Y241089D01*
X30244Y241089D01*
X21456Y244729D01*
X14729Y251456D01*
X11089Y260244D01*
X11089Y269756D01*
X14729Y278544D01*
X21456Y285271D01*
X26590Y287397D01*
X26651Y287432D01*
X26716Y287458D01*
X26789Y287510D01*
X26867Y287555D01*
X26917Y287603D01*
X26973Y287644D01*
X27031Y287714D01*
X27095Y287776D01*
X27131Y287836D01*
X27176Y287889D01*
X27214Y287971D01*
X27261Y288047D01*
X27282Y288114D01*
X27312Y288177D01*
X27328Y288265D01*
X27355Y288351D01*
X27358Y288421D01*
X27371Y288490D01*
X27366Y288579D01*
X27370Y288669D01*
X27356Y288737D01*
X27352Y288807D01*
X27324Y288892D01*
X27306Y288980D01*
X27275Y289043D01*
X27254Y289109D01*
X27206Y289185D01*
X27166Y289266D01*
X27121Y289319D01*
X27083Y289378D01*
X27018Y289440D01*
X26960Y289508D01*
X26903Y289548D01*
X26852Y289596D01*
X26773Y289639D01*
X26700Y289691D01*
X26634Y289716D01*
X26573Y289750D01*
X26486Y289772D01*
X26402Y289804D01*
X26333Y289812D01*
X26265Y289829D01*
X26105Y289839D01*
X-58570Y289839D01*
X-58688Y289824D01*
X-58807Y289817D01*
X-58845Y289804D01*
X-58886Y289799D01*
X-58996Y289756D01*
X-59109Y289719D01*
X-59144Y289697D01*
X-59181Y289682D01*
X-59277Y289613D01*
X-59378Y289549D01*
X-59406Y289519D01*
X-59439Y289496D01*
X-59515Y289404D01*
X-59596Y289317D01*
X-59616Y289282D01*
X-59641Y289251D01*
X-59692Y289143D01*
X-59750Y289039D01*
X-59760Y288999D01*
X-59777Y288963D01*
X-59799Y288846D01*
X-59829Y288731D01*
X-59833Y288671D01*
X-59837Y288651D01*
X-59835Y288630D01*
X-59839Y288570D01*
X-59839Y11430D01*
X-59824Y11312D01*
X-59817Y11193D01*
X-59804Y11155D01*
X-59799Y11114D01*
X-59756Y11004D01*
X-59719Y10891D01*
X-59697Y10856D01*
X-59682Y10819D01*
X-59613Y10723D01*
X-59549Y10622D01*
X-59519Y10594D01*
X-59496Y10561D01*
X-59404Y10485D01*
X-59317Y10404D01*
X-59282Y10384D01*
X-59251Y10359D01*
X-59143Y10308D01*
X-59039Y10250D01*
X-58999Y10240D01*
X-58963Y10223D01*
X-58846Y10201D01*
X-58731Y10171D01*
X-58671Y10167D01*
X-58651Y10163D01*
X-58630Y10165D01*
X-58570Y10161D01*
X26105Y10161D01*
X26174Y10169D01*
G37*
%LPC*%
G36*
X57170Y74419D02*
X57170Y74419D01*
X47993Y76878D01*
X39766Y81628D01*
X33048Y88346D01*
X28298Y96573D01*
X25839Y105750D01*
X25839Y115250D01*
X28298Y124427D01*
X33048Y132654D01*
X39766Y139372D01*
X47993Y144122D01*
X57170Y146581D01*
X130830Y146581D01*
X140007Y144122D01*
X148234Y139372D01*
X154952Y132654D01*
X159702Y124427D01*
X162161Y115250D01*
X162161Y105750D01*
X159702Y96573D01*
X154952Y88346D01*
X148234Y81628D01*
X140007Y76878D01*
X130830Y74419D01*
X57170Y74419D01*
G37*
%LPD*%
%LPC*%
G36*
X510993Y208849D02*
X510993Y208849D01*
X508649Y211193D01*
X508649Y241207D01*
X510993Y243551D01*
X541007Y243551D01*
X543351Y241207D01*
X543351Y211193D01*
X541007Y208849D01*
X510993Y208849D01*
G37*
%LPD*%
%LPC*%
G36*
X1049693Y208849D02*
X1049693Y208849D01*
X1047349Y211193D01*
X1047349Y241207D01*
X1049693Y243551D01*
X1079707Y243551D01*
X1082051Y241207D01*
X1082051Y211193D01*
X1079707Y208849D01*
X1049693Y208849D01*
G37*
%LPD*%
%LPC*%
G36*
X959693Y208849D02*
X959693Y208849D01*
X957349Y211193D01*
X957349Y241207D01*
X959693Y243551D01*
X989707Y243551D01*
X992051Y241207D01*
X992051Y211193D01*
X989707Y208849D01*
X959693Y208849D01*
G37*
%LPD*%
%LPC*%
G36*
X869693Y208849D02*
X869693Y208849D01*
X867349Y211193D01*
X867349Y241207D01*
X869693Y243551D01*
X899707Y243551D01*
X902051Y241207D01*
X902051Y211193D01*
X899707Y208849D01*
X869693Y208849D01*
G37*
%LPD*%
%LPC*%
G36*
X778693Y208849D02*
X778693Y208849D01*
X776349Y211193D01*
X776349Y241207D01*
X778693Y243551D01*
X808707Y243551D01*
X811051Y241207D01*
X811051Y211193D01*
X808707Y208849D01*
X778693Y208849D01*
G37*
%LPD*%
%LPC*%
G36*
X510993Y56449D02*
X510993Y56449D01*
X508649Y58793D01*
X508649Y88807D01*
X510993Y91151D01*
X541007Y91151D01*
X543351Y88807D01*
X543351Y58793D01*
X541007Y56449D01*
X510993Y56449D01*
G37*
%LPD*%
%LPC*%
G36*
X686993Y56449D02*
X686993Y56449D01*
X684649Y58793D01*
X684649Y88807D01*
X686993Y91151D01*
X717007Y91151D01*
X719351Y88807D01*
X719351Y58793D01*
X717007Y56449D01*
X686993Y56449D01*
G37*
%LPD*%
%LPC*%
G36*
X1049693Y158049D02*
X1049693Y158049D01*
X1047349Y160393D01*
X1047349Y190407D01*
X1049693Y192751D01*
X1079707Y192751D01*
X1082051Y190407D01*
X1082051Y160393D01*
X1079707Y158049D01*
X1049693Y158049D01*
G37*
%LPD*%
%LPC*%
G36*
X869693Y158049D02*
X869693Y158049D01*
X867349Y160393D01*
X867349Y190407D01*
X869693Y192751D01*
X899707Y192751D01*
X902051Y190407D01*
X902051Y160393D01*
X899707Y158049D01*
X869693Y158049D01*
G37*
%LPD*%
%LPC*%
G36*
X959693Y158049D02*
X959693Y158049D01*
X957349Y160393D01*
X957349Y190407D01*
X959693Y192751D01*
X989707Y192751D01*
X992051Y190407D01*
X992051Y160393D01*
X989707Y158049D01*
X959693Y158049D01*
G37*
%LPD*%
%LPC*%
G36*
X778693Y158049D02*
X778693Y158049D01*
X776349Y160393D01*
X776349Y190407D01*
X778693Y192751D01*
X808707Y192751D01*
X811051Y190407D01*
X811051Y160393D01*
X808707Y158049D01*
X778693Y158049D01*
G37*
%LPD*%
%LPC*%
G36*
X510993Y158049D02*
X510993Y158049D01*
X508649Y160393D01*
X508649Y190407D01*
X510993Y192751D01*
X541007Y192751D01*
X543351Y190407D01*
X543351Y160393D01*
X541007Y158049D01*
X510993Y158049D01*
G37*
%LPD*%
%LPC*%
G36*
X686993Y158049D02*
X686993Y158049D01*
X684649Y160393D01*
X684649Y190407D01*
X686993Y192751D01*
X717007Y192751D01*
X719351Y190407D01*
X719351Y160393D01*
X717007Y158049D01*
X686993Y158049D01*
G37*
%LPD*%
%LPC*%
G36*
X686993Y208849D02*
X686993Y208849D01*
X684649Y211193D01*
X684649Y241207D01*
X686993Y243551D01*
X717007Y243551D01*
X719351Y241207D01*
X719351Y211193D01*
X717007Y208849D01*
X686993Y208849D01*
G37*
%LPD*%
%LPC*%
G36*
X420993Y56449D02*
X420993Y56449D01*
X418649Y58793D01*
X418649Y88807D01*
X420993Y91151D01*
X451007Y91151D01*
X453351Y88807D01*
X453351Y58793D01*
X451007Y56449D01*
X420993Y56449D01*
G37*
%LPD*%
%LPC*%
G36*
X330993Y56449D02*
X330993Y56449D01*
X328649Y58793D01*
X328649Y88807D01*
X330993Y91151D01*
X361007Y91151D01*
X363351Y88807D01*
X363351Y58793D01*
X361007Y56449D01*
X330993Y56449D01*
G37*
%LPD*%
%LPC*%
G36*
X1049693Y56449D02*
X1049693Y56449D01*
X1047349Y58793D01*
X1047349Y88807D01*
X1049693Y91151D01*
X1079707Y91151D01*
X1082051Y88807D01*
X1082051Y58793D01*
X1079707Y56449D01*
X1049693Y56449D01*
G37*
%LPD*%
%LPC*%
G36*
X959693Y56449D02*
X959693Y56449D01*
X957349Y58793D01*
X957349Y88807D01*
X959693Y91151D01*
X989707Y91151D01*
X992051Y88807D01*
X992051Y58793D01*
X989707Y56449D01*
X959693Y56449D01*
G37*
%LPD*%
%LPC*%
G36*
X869693Y56449D02*
X869693Y56449D01*
X867349Y58793D01*
X867349Y88807D01*
X869693Y91151D01*
X899707Y91151D01*
X902051Y88807D01*
X902051Y58793D01*
X899707Y56449D01*
X869693Y56449D01*
G37*
%LPD*%
%LPC*%
G36*
X778693Y56449D02*
X778693Y56449D01*
X776349Y58793D01*
X776349Y88807D01*
X778693Y91151D01*
X808707Y91151D01*
X811051Y88807D01*
X811051Y58793D01*
X808707Y56449D01*
X778693Y56449D01*
G37*
%LPD*%
%LPC*%
G36*
X222202Y152842D02*
X222202Y152842D01*
X219341Y154027D01*
X217152Y156216D01*
X215967Y159077D01*
X215967Y162173D01*
X217152Y165034D01*
X219341Y167223D01*
X220393Y167658D01*
X220415Y167671D01*
X220439Y167679D01*
X220474Y167701D01*
X220484Y167705D01*
X220507Y167721D01*
X220553Y167750D01*
X220669Y167816D01*
X220688Y167834D01*
X220709Y167847D01*
X220827Y167957D01*
X251868Y200603D01*
X251917Y200670D01*
X251974Y200730D01*
X252011Y200797D01*
X252056Y200859D01*
X252087Y200936D01*
X252128Y201009D01*
X252147Y201083D01*
X252175Y201154D01*
X252186Y201236D01*
X252207Y201317D01*
X252216Y201462D01*
X252217Y201469D01*
X252217Y201472D01*
X252217Y201477D01*
X252217Y203423D01*
X253402Y206284D01*
X255591Y208473D01*
X258452Y209658D01*
X261548Y209658D01*
X264409Y208473D01*
X266598Y206284D01*
X267783Y203423D01*
X267783Y200327D01*
X266598Y197466D01*
X264409Y195277D01*
X261548Y194092D01*
X260067Y194092D01*
X259953Y194078D01*
X259838Y194071D01*
X259796Y194058D01*
X259752Y194052D01*
X259645Y194010D01*
X259535Y193975D01*
X259497Y193952D01*
X259456Y193935D01*
X259363Y193868D01*
X259265Y193807D01*
X259216Y193761D01*
X259199Y193749D01*
X259186Y193734D01*
X259147Y193698D01*
X231385Y164500D01*
X231377Y164489D01*
X231367Y164480D01*
X231283Y164361D01*
X231197Y164244D01*
X231192Y164231D01*
X231184Y164220D01*
X231132Y164084D01*
X231078Y163949D01*
X231076Y163935D01*
X231071Y163923D01*
X231055Y163777D01*
X231036Y163633D01*
X231037Y163620D01*
X231036Y163607D01*
X231056Y163462D01*
X231074Y163318D01*
X231079Y163305D01*
X231080Y163292D01*
X231132Y163139D01*
X231533Y162173D01*
X231533Y159077D01*
X230348Y156216D01*
X228159Y154027D01*
X225298Y152842D01*
X222202Y152842D01*
G37*
%LPD*%
%LPC*%
G36*
X599077Y146592D02*
X599077Y146592D01*
X596216Y147777D01*
X594027Y149966D01*
X592842Y152827D01*
X592842Y155923D01*
X594027Y158784D01*
X594612Y159368D01*
X594672Y159446D01*
X594740Y159518D01*
X594769Y159571D01*
X594806Y159619D01*
X594846Y159710D01*
X594894Y159797D01*
X594909Y159855D01*
X594933Y159911D01*
X594948Y160009D01*
X594973Y160105D01*
X594979Y160205D01*
X594983Y160225D01*
X594981Y160237D01*
X594983Y160265D01*
X594983Y193485D01*
X594971Y193583D01*
X594968Y193682D01*
X594951Y193740D01*
X594943Y193800D01*
X594907Y193892D01*
X594879Y193987D01*
X594849Y194039D01*
X594826Y194096D01*
X594768Y194176D01*
X594718Y194261D01*
X594652Y194337D01*
X594640Y194353D01*
X594630Y194361D01*
X594612Y194382D01*
X593402Y195591D01*
X592217Y198452D01*
X592217Y201548D01*
X593402Y204409D01*
X595591Y206598D01*
X598452Y207783D01*
X601548Y207783D01*
X604409Y206598D01*
X606598Y204409D01*
X607783Y201548D01*
X607783Y198452D01*
X606598Y195591D01*
X605388Y194382D01*
X605328Y194304D01*
X605260Y194232D01*
X605231Y194179D01*
X605194Y194131D01*
X605154Y194040D01*
X605106Y193953D01*
X605091Y193895D01*
X605067Y193839D01*
X605052Y193741D01*
X605027Y193645D01*
X605021Y193545D01*
X605017Y193525D01*
X605019Y193513D01*
X605017Y193485D01*
X605017Y161515D01*
X605029Y161417D01*
X605032Y161318D01*
X605049Y161260D01*
X605057Y161200D01*
X605093Y161108D01*
X605121Y161013D01*
X605151Y160961D01*
X605174Y160904D01*
X605232Y160824D01*
X605282Y160739D01*
X605348Y160663D01*
X605360Y160647D01*
X605370Y160639D01*
X605388Y160618D01*
X607223Y158784D01*
X608408Y155923D01*
X608408Y152827D01*
X607223Y149966D01*
X605034Y147777D01*
X602173Y146592D01*
X599077Y146592D01*
G37*
%LPD*%
D10*
X346000Y226200D03*
X346000Y175400D03*
X346000Y124600D03*
X346000Y73800D03*
X974700Y226200D03*
X974700Y175400D03*
X974700Y124600D03*
X974700Y73800D03*
X436000Y226200D03*
X436000Y175400D03*
X436000Y124600D03*
X436000Y73800D03*
X1064700Y226200D03*
X1064700Y175400D03*
X1064700Y124600D03*
X1064700Y73800D03*
X526000Y226200D03*
X526000Y175400D03*
X526000Y124600D03*
X526000Y73800D03*
X793700Y226200D03*
X793700Y175400D03*
X793700Y124600D03*
X793700Y73800D03*
X702000Y226200D03*
X702000Y175400D03*
X702000Y124600D03*
X702000Y73800D03*
X884700Y226200D03*
X884700Y175400D03*
X884700Y124600D03*
X884700Y73800D03*
D11*
X126080Y110500D02*
X61920Y110500D01*
X61920Y189500D02*
X126080Y189500D01*
D12*
X84600Y252300D03*
X84600Y277700D03*
X110000Y252300D03*
X110000Y277700D03*
X135400Y252300D03*
X135400Y277700D03*
D13*
X411875Y226250D03*
D14*
X369375Y226250D01*
D13*
X369375Y226250D03*
D14*
X346000Y226200D02*
X319900Y252300D01*
X135400Y252300D01*
D13*
X411250Y176250D03*
D14*
X369375Y176250D01*
X368750Y175625D01*
D13*
X368750Y175625D03*
D14*
X120313Y252300D02*
X110000Y252300D01*
X120313Y252300D02*
X130981Y241632D01*
X279768Y241632D02*
X346000Y175400D01*
X279768Y241632D02*
X130981Y241632D01*
X115000Y155000D02*
X113189Y154644D01*
D13*
X260000Y120000D03*
D14*
X341400Y120000D01*
X346000Y124600D01*
D13*
X260000Y100000D03*
X260000Y80000D03*
X239375Y221875D03*
X600000Y200000D03*
D14*
X600000Y155000D01*
X600625Y154375D01*
D13*
X600625Y154375D03*
X260000Y201875D03*
D14*
X223750Y163750D01*
X223750Y160625D01*
D13*
X223750Y160625D03*
M02*
