G04 EAGLE Gerber X2 export*
%TF.Part,Single*%
%TF.FileFunction,Copper,L1,Top,Mixed*%
%TF.FilePolarity,Positive*%
%TF.GenerationSoftware,Autodesk,EAGLE,8.6.0*%
%TF.CreationDate,2018-06-26T05:58:37Z*%
G75*
%MOMM*%
%FSLAX34Y34*%
%LPD*%
%AMOC8*
5,1,8,0,0,1.08239X$1,22.5*%
G01*
%ADD10R,2.670000X2.670000*%
%ADD11C,6.416000*%
%ADD12R,0.800000X1.200000*%
%ADD13P,1.649562X8X22.500000*%
%ADD14R,1.473000X0.533000*%
%ADD15R,1.200000X0.800000*%
%ADD16C,0.203200*%
%ADD17C,0.756400*%
%ADD18C,0.254000*%
%ADD19C,2.540000*%

G36*
X64317Y139132D02*
X64317Y139132D01*
X64259Y139134D01*
X64177Y139112D01*
X64094Y139100D01*
X64040Y139077D01*
X63984Y139062D01*
X63911Y139019D01*
X63834Y138984D01*
X63789Y138946D01*
X63739Y138917D01*
X63681Y138855D01*
X63617Y138801D01*
X63585Y138752D01*
X63545Y138709D01*
X63506Y138634D01*
X63460Y138564D01*
X63442Y138508D01*
X63415Y138456D01*
X63404Y138388D01*
X63374Y138293D01*
X63371Y138193D01*
X63360Y138125D01*
X63360Y71875D01*
X63368Y71817D01*
X63366Y71759D01*
X63388Y71677D01*
X63400Y71594D01*
X63424Y71540D01*
X63438Y71484D01*
X63481Y71411D01*
X63516Y71334D01*
X63554Y71289D01*
X63584Y71239D01*
X63645Y71181D01*
X63700Y71117D01*
X63748Y71085D01*
X63791Y71045D01*
X63866Y71006D01*
X63936Y70960D01*
X63992Y70942D01*
X64044Y70915D01*
X64112Y70904D01*
X64207Y70874D01*
X64307Y70871D01*
X64375Y70860D01*
X233750Y70860D01*
X233808Y70868D01*
X233866Y70866D01*
X233948Y70888D01*
X234032Y70900D01*
X234085Y70924D01*
X234141Y70938D01*
X234214Y70981D01*
X234291Y71016D01*
X234336Y71054D01*
X234386Y71084D01*
X234444Y71145D01*
X234508Y71200D01*
X234540Y71248D01*
X234580Y71291D01*
X234619Y71366D01*
X234666Y71436D01*
X234683Y71492D01*
X234710Y71544D01*
X234721Y71612D01*
X234751Y71707D01*
X234754Y71807D01*
X234765Y71875D01*
X234765Y137735D01*
X244375Y137735D01*
X244433Y137743D01*
X244491Y137741D01*
X244573Y137763D01*
X244657Y137775D01*
X244710Y137799D01*
X244766Y137813D01*
X244839Y137856D01*
X244916Y137891D01*
X244961Y137929D01*
X245011Y137959D01*
X245069Y138020D01*
X245133Y138075D01*
X245165Y138123D01*
X245205Y138166D01*
X245244Y138241D01*
X245291Y138311D01*
X245308Y138367D01*
X245335Y138419D01*
X245346Y138487D01*
X245376Y138582D01*
X245379Y138682D01*
X245390Y138750D01*
X245390Y141875D01*
X245382Y141933D01*
X245384Y141991D01*
X245362Y142073D01*
X245350Y142157D01*
X245327Y142210D01*
X245312Y142266D01*
X245269Y142339D01*
X245234Y142416D01*
X245196Y142461D01*
X245167Y142511D01*
X245105Y142569D01*
X245051Y142633D01*
X245002Y142665D01*
X244959Y142705D01*
X244884Y142744D01*
X244814Y142791D01*
X244758Y142808D01*
X244706Y142835D01*
X244638Y142846D01*
X244543Y142876D01*
X244443Y142879D01*
X244375Y142890D01*
X227500Y142890D01*
X227442Y142882D01*
X227384Y142884D01*
X227302Y142862D01*
X227219Y142850D01*
X227165Y142827D01*
X227109Y142812D01*
X227036Y142769D01*
X226959Y142734D01*
X226914Y142696D01*
X226864Y142667D01*
X226806Y142605D01*
X226742Y142551D01*
X226710Y142502D01*
X226670Y142459D01*
X226631Y142384D01*
X226585Y142314D01*
X226567Y142258D01*
X226540Y142206D01*
X226529Y142138D01*
X226499Y142043D01*
X226496Y141943D01*
X226485Y141875D01*
X226485Y139140D01*
X64375Y139140D01*
X64317Y139132D01*
G37*
G36*
X203808Y141493D02*
X203808Y141493D01*
X203866Y141491D01*
X203948Y141513D01*
X204032Y141525D01*
X204085Y141549D01*
X204141Y141563D01*
X204214Y141606D01*
X204291Y141641D01*
X204336Y141679D01*
X204386Y141709D01*
X204444Y141770D01*
X204508Y141825D01*
X204540Y141873D01*
X204580Y141916D01*
X204619Y141991D01*
X204666Y142061D01*
X204683Y142117D01*
X204710Y142169D01*
X204721Y142237D01*
X204751Y142332D01*
X204754Y142432D01*
X204765Y142500D01*
X204765Y182705D01*
X205421Y183360D01*
X223750Y183360D01*
X223808Y183368D01*
X223866Y183366D01*
X223948Y183388D01*
X224032Y183400D01*
X224085Y183424D01*
X224141Y183438D01*
X224214Y183481D01*
X224291Y183516D01*
X224336Y183554D01*
X224386Y183584D01*
X224444Y183645D01*
X224508Y183700D01*
X224540Y183748D01*
X224580Y183791D01*
X224619Y183866D01*
X224666Y183936D01*
X224683Y183992D01*
X224710Y184044D01*
X224721Y184112D01*
X224751Y184207D01*
X224754Y184307D01*
X224765Y184375D01*
X224765Y215000D01*
X224757Y215058D01*
X224759Y215116D01*
X224737Y215198D01*
X224725Y215282D01*
X224702Y215335D01*
X224687Y215391D01*
X224644Y215464D01*
X224609Y215541D01*
X224571Y215586D01*
X224542Y215636D01*
X224480Y215694D01*
X224426Y215758D01*
X224377Y215790D01*
X224334Y215830D01*
X224259Y215869D01*
X224189Y215916D01*
X224133Y215933D01*
X224081Y215960D01*
X224013Y215971D01*
X223918Y216001D01*
X223818Y216004D01*
X223750Y216015D01*
X178125Y216015D01*
X178067Y216007D01*
X178009Y216009D01*
X177927Y215987D01*
X177844Y215975D01*
X177790Y215952D01*
X177734Y215937D01*
X177661Y215894D01*
X177584Y215859D01*
X177539Y215821D01*
X177489Y215792D01*
X177431Y215730D01*
X177367Y215676D01*
X177335Y215627D01*
X177295Y215584D01*
X177256Y215509D01*
X177210Y215439D01*
X177192Y215383D01*
X177165Y215331D01*
X177154Y215263D01*
X177124Y215168D01*
X177121Y215068D01*
X177110Y215000D01*
X177110Y142500D01*
X177118Y142442D01*
X177116Y142384D01*
X177138Y142302D01*
X177150Y142219D01*
X177174Y142165D01*
X177188Y142109D01*
X177231Y142036D01*
X177266Y141959D01*
X177304Y141914D01*
X177334Y141864D01*
X177395Y141806D01*
X177450Y141742D01*
X177498Y141710D01*
X177541Y141670D01*
X177616Y141631D01*
X177686Y141585D01*
X177742Y141567D01*
X177794Y141540D01*
X177862Y141529D01*
X177957Y141499D01*
X178057Y141496D01*
X178125Y141485D01*
X203750Y141485D01*
X203808Y141493D01*
G37*
G36*
X268808Y70868D02*
X268808Y70868D01*
X268866Y70866D01*
X268948Y70888D01*
X269032Y70900D01*
X269085Y70924D01*
X269141Y70938D01*
X269214Y70981D01*
X269291Y71016D01*
X269336Y71054D01*
X269386Y71084D01*
X269444Y71145D01*
X269508Y71200D01*
X269540Y71248D01*
X269580Y71291D01*
X269619Y71366D01*
X269666Y71436D01*
X269683Y71492D01*
X269710Y71544D01*
X269721Y71612D01*
X269751Y71707D01*
X269754Y71807D01*
X269765Y71875D01*
X269765Y130625D01*
X269757Y130683D01*
X269759Y130741D01*
X269737Y130823D01*
X269725Y130907D01*
X269702Y130960D01*
X269687Y131016D01*
X269644Y131089D01*
X269609Y131166D01*
X269571Y131211D01*
X269542Y131261D01*
X269480Y131319D01*
X269426Y131383D01*
X269377Y131415D01*
X269334Y131455D01*
X269259Y131494D01*
X269189Y131541D01*
X269133Y131558D01*
X269081Y131585D01*
X269013Y131596D01*
X268918Y131626D01*
X268818Y131629D01*
X268750Y131640D01*
X252265Y131640D01*
X252265Y169375D01*
X252257Y169433D01*
X252259Y169491D01*
X252237Y169573D01*
X252225Y169657D01*
X252202Y169710D01*
X252187Y169766D01*
X252144Y169839D01*
X252109Y169916D01*
X252071Y169961D01*
X252042Y170011D01*
X251980Y170069D01*
X251926Y170133D01*
X251877Y170165D01*
X251834Y170205D01*
X251759Y170244D01*
X251689Y170291D01*
X251633Y170308D01*
X251581Y170335D01*
X251513Y170346D01*
X251418Y170376D01*
X251318Y170379D01*
X251250Y170390D01*
X246015Y170390D01*
X246015Y215000D01*
X246007Y215058D01*
X246009Y215116D01*
X245987Y215198D01*
X245975Y215282D01*
X245952Y215335D01*
X245937Y215391D01*
X245894Y215464D01*
X245859Y215541D01*
X245821Y215586D01*
X245792Y215636D01*
X245730Y215694D01*
X245676Y215758D01*
X245627Y215790D01*
X245584Y215830D01*
X245509Y215869D01*
X245439Y215916D01*
X245383Y215933D01*
X245331Y215960D01*
X245263Y215971D01*
X245168Y216001D01*
X245068Y216004D01*
X245000Y216015D01*
X232500Y216015D01*
X232413Y216003D01*
X232326Y216000D01*
X232273Y215983D01*
X232219Y215975D01*
X232139Y215940D01*
X232055Y215913D01*
X232016Y215885D01*
X231959Y215859D01*
X231846Y215763D01*
X231782Y215718D01*
X231157Y215093D01*
X231105Y215023D01*
X231045Y214959D01*
X231019Y214910D01*
X230986Y214866D01*
X230955Y214784D01*
X230915Y214706D01*
X230907Y214659D01*
X230885Y214600D01*
X230880Y214542D01*
X230874Y214522D01*
X230872Y214447D01*
X230860Y214375D01*
X230860Y157500D01*
X230868Y157442D01*
X230866Y157384D01*
X230888Y157302D01*
X230900Y157219D01*
X230924Y157165D01*
X230938Y157109D01*
X230981Y157036D01*
X231016Y156959D01*
X231054Y156914D01*
X231084Y156864D01*
X231145Y156806D01*
X231200Y156742D01*
X231248Y156710D01*
X231291Y156670D01*
X231366Y156631D01*
X231436Y156585D01*
X231492Y156567D01*
X231544Y156540D01*
X231612Y156529D01*
X231707Y156499D01*
X231807Y156496D01*
X231875Y156485D01*
X247735Y156485D01*
X247735Y131640D01*
X246875Y131640D01*
X246788Y131628D01*
X246701Y131625D01*
X246648Y131608D01*
X246594Y131600D01*
X246514Y131565D01*
X246430Y131538D01*
X246391Y131510D01*
X246334Y131484D01*
X246221Y131388D01*
X246157Y131343D01*
X245532Y130718D01*
X245515Y130695D01*
X245492Y130676D01*
X245460Y130627D01*
X245420Y130584D01*
X245394Y130535D01*
X245361Y130491D01*
X245351Y130463D01*
X245335Y130439D01*
X245317Y130383D01*
X245290Y130331D01*
X245282Y130283D01*
X245260Y130225D01*
X245258Y130196D01*
X245249Y130168D01*
X245246Y130068D01*
X245235Y130000D01*
X245235Y71875D01*
X245243Y71817D01*
X245241Y71759D01*
X245263Y71677D01*
X245275Y71594D01*
X245299Y71540D01*
X245313Y71484D01*
X245356Y71411D01*
X245391Y71334D01*
X245429Y71289D01*
X245459Y71239D01*
X245520Y71181D01*
X245575Y71117D01*
X245623Y71085D01*
X245666Y71045D01*
X245741Y71006D01*
X245811Y70960D01*
X245867Y70942D01*
X245919Y70915D01*
X245987Y70904D01*
X246082Y70874D01*
X246182Y70871D01*
X246250Y70860D01*
X268750Y70860D01*
X268808Y70868D01*
G37*
G36*
X221933Y141493D02*
X221933Y141493D01*
X221991Y141491D01*
X222073Y141513D01*
X222157Y141525D01*
X222210Y141549D01*
X222266Y141563D01*
X222339Y141606D01*
X222416Y141641D01*
X222461Y141679D01*
X222511Y141709D01*
X222569Y141770D01*
X222633Y141825D01*
X222665Y141873D01*
X222705Y141916D01*
X222744Y141991D01*
X222791Y142061D01*
X222808Y142117D01*
X222835Y142169D01*
X222846Y142237D01*
X222876Y142332D01*
X222879Y142432D01*
X222890Y142500D01*
X222890Y147110D01*
X244375Y147110D01*
X244433Y147118D01*
X244491Y147116D01*
X244573Y147138D01*
X244657Y147150D01*
X244710Y147174D01*
X244766Y147188D01*
X244839Y147231D01*
X244916Y147266D01*
X244961Y147304D01*
X245011Y147334D01*
X245069Y147395D01*
X245133Y147450D01*
X245165Y147498D01*
X245205Y147541D01*
X245244Y147616D01*
X245291Y147686D01*
X245308Y147742D01*
X245335Y147794D01*
X245346Y147862D01*
X245376Y147957D01*
X245379Y148057D01*
X245390Y148125D01*
X245390Y151875D01*
X245382Y151933D01*
X245384Y151991D01*
X245362Y152073D01*
X245350Y152157D01*
X245327Y152210D01*
X245312Y152266D01*
X245269Y152339D01*
X245234Y152416D01*
X245196Y152461D01*
X245167Y152511D01*
X245105Y152569D01*
X245051Y152633D01*
X245002Y152665D01*
X244959Y152705D01*
X244884Y152744D01*
X244814Y152791D01*
X244758Y152808D01*
X244706Y152835D01*
X244638Y152846D01*
X244543Y152876D01*
X244443Y152879D01*
X244375Y152890D01*
X215625Y152890D01*
X215567Y152882D01*
X215509Y152884D01*
X215427Y152862D01*
X215344Y152850D01*
X215290Y152827D01*
X215234Y152812D01*
X215161Y152769D01*
X215084Y152734D01*
X215039Y152696D01*
X214989Y152667D01*
X214931Y152605D01*
X214867Y152551D01*
X214835Y152502D01*
X214795Y152459D01*
X214756Y152384D01*
X214710Y152314D01*
X214692Y152258D01*
X214665Y152206D01*
X214654Y152138D01*
X214624Y152043D01*
X214621Y151943D01*
X214610Y151875D01*
X214610Y142500D01*
X214618Y142442D01*
X214616Y142384D01*
X214638Y142302D01*
X214650Y142219D01*
X214674Y142165D01*
X214688Y142109D01*
X214731Y142036D01*
X214766Y141959D01*
X214804Y141914D01*
X214834Y141864D01*
X214895Y141806D01*
X214950Y141742D01*
X214998Y141710D01*
X215041Y141670D01*
X215116Y141631D01*
X215186Y141585D01*
X215242Y141567D01*
X215294Y141540D01*
X215362Y141529D01*
X215457Y141499D01*
X215557Y141496D01*
X215625Y141485D01*
X221875Y141485D01*
X221933Y141493D01*
G37*
D10*
X346000Y226200D03*
X346000Y175400D03*
X346000Y124600D03*
X346000Y73800D03*
X974700Y226200D03*
X974700Y175400D03*
X974700Y124600D03*
X974700Y73800D03*
X436000Y226200D03*
X436000Y175400D03*
X436000Y124600D03*
X436000Y73800D03*
X1064700Y226200D03*
X1064700Y175400D03*
X1064700Y124600D03*
X1064700Y73800D03*
X526000Y226200D03*
X526000Y175400D03*
X526000Y124600D03*
X526000Y73800D03*
X793700Y226200D03*
X793700Y175400D03*
X793700Y124600D03*
X793700Y73800D03*
X702000Y226200D03*
X702000Y175400D03*
X702000Y124600D03*
X702000Y73800D03*
X884700Y226200D03*
X884700Y175400D03*
X884700Y124600D03*
X884700Y73800D03*
D11*
X126080Y110500D02*
X61920Y110500D01*
X61920Y189500D02*
X126080Y189500D01*
D12*
X629000Y200000D03*
X611000Y200000D03*
X629000Y155000D03*
X611000Y155000D03*
D13*
X84600Y252300D03*
X84600Y277700D03*
X110000Y252300D03*
X110000Y277700D03*
X135400Y252300D03*
X135400Y277700D03*
D14*
X238130Y159500D03*
X238130Y150000D03*
X238130Y140500D03*
X261870Y140500D03*
X261870Y150000D03*
X261870Y159500D03*
D12*
X200375Y147500D03*
X218375Y147500D03*
X221000Y190000D03*
X239000Y190000D03*
X221000Y210000D03*
X239000Y210000D03*
X231000Y120000D03*
X249000Y120000D03*
X231000Y100000D03*
X249000Y100000D03*
X231000Y80000D03*
X249000Y80000D03*
D15*
X261875Y190250D03*
X261875Y172250D03*
X280000Y149000D03*
X280000Y131000D03*
X296875Y172250D03*
X296875Y190250D03*
X279375Y190250D03*
X279375Y172250D03*
D16*
X975000Y230000D02*
X1060000Y230000D01*
X975000Y230000D02*
X974700Y226200D01*
X1060000Y230000D02*
X1064700Y226200D01*
X880000Y230000D02*
X795000Y230000D01*
X793700Y226200D01*
X880000Y230000D02*
X884700Y226200D01*
X885000Y230000D02*
X970000Y230000D01*
X974700Y226200D01*
X885000Y230000D02*
X884700Y226200D01*
X526000Y226200D02*
X525000Y230000D01*
X705000Y230000D02*
X790000Y230000D01*
X793700Y226200D01*
X705000Y230000D02*
X702000Y226200D01*
X630000Y226200D02*
X526000Y226200D01*
X630000Y226200D02*
X702000Y226200D01*
X630000Y201000D02*
X629000Y200000D01*
X630000Y201000D02*
X630000Y226200D01*
X526000Y226200D02*
X436000Y226200D01*
X411925Y226200D01*
X411875Y226250D01*
D17*
X411875Y226250D03*
X369375Y226250D03*
D16*
X346050Y226250D01*
X346000Y226200D01*
X975000Y175000D02*
X1060000Y175000D01*
X975000Y175000D02*
X974700Y175400D01*
X1060000Y175000D02*
X1064700Y175400D01*
X880000Y175000D02*
X795000Y175000D01*
X793700Y175400D01*
X880000Y175000D02*
X884700Y175400D01*
X885000Y175000D02*
X970000Y175000D01*
X974700Y175400D01*
X885000Y175000D02*
X884700Y175400D01*
D18*
X630000Y175400D02*
X526000Y175400D01*
X630000Y175400D02*
X702000Y175400D01*
X793700Y175400D01*
D16*
X630000Y175400D02*
X629000Y174400D01*
X629000Y155000D01*
X526000Y175400D02*
X436000Y175400D01*
X412100Y175400D01*
X411250Y176250D01*
D17*
X411250Y176250D03*
X368750Y175625D03*
D16*
X346225Y175625D01*
X346000Y175400D01*
X253170Y120000D02*
X249000Y120000D01*
X260000Y120000D01*
D17*
X260000Y120000D03*
D16*
X260000Y100000D02*
X249000Y100000D01*
D17*
X260000Y100000D03*
D16*
X260000Y80000D02*
X249000Y80000D01*
D17*
X260000Y80000D03*
D16*
X279375Y190250D02*
X279375Y210000D01*
X239000Y210000D01*
X239000Y221500D01*
X239375Y221875D01*
D17*
X239375Y221875D03*
D16*
X280000Y131000D02*
X280000Y60000D01*
X230000Y60000D01*
X230000Y79000D01*
X231000Y80000D01*
D19*
X526000Y73800D02*
X583800Y73800D01*
X646200Y73800D02*
X702000Y73800D01*
X646200Y73800D02*
X640000Y80000D01*
X610000Y80000D01*
X590000Y80000D01*
X583800Y73800D01*
X702000Y73800D02*
X793700Y73800D01*
X884700Y73800D01*
X974700Y73800D01*
X1064700Y73800D01*
D16*
X611000Y81000D02*
X610000Y80000D01*
D19*
X390000Y73800D02*
X346000Y73800D01*
X390000Y73800D02*
X436000Y73800D01*
X526000Y73800D01*
X390000Y73800D02*
X390000Y270000D01*
X296250Y270000D01*
X210000Y270000D01*
X210000Y250000D01*
X210000Y220000D01*
X210000Y210000D01*
D16*
X210000Y220000D02*
X220000Y210000D01*
X221000Y210000D01*
X220000Y211000D01*
X220000Y229375D01*
X600000Y200000D02*
X611000Y200000D01*
D17*
X600000Y200000D03*
X600625Y154375D03*
D16*
X610375Y154375D01*
X611000Y155000D01*
X610000Y154000D01*
X610000Y80000D01*
X110000Y277700D02*
X84600Y277700D01*
X110000Y277700D02*
X124732Y262968D01*
X152787Y250000D02*
X210000Y250000D01*
X139819Y262968D02*
X124732Y262968D01*
X139819Y262968D02*
X152787Y250000D01*
X296250Y270000D02*
X296875Y269375D01*
X296875Y190250D01*
X261875Y190250D02*
X260000Y192125D01*
X260000Y201875D01*
D17*
X260000Y201875D03*
X223750Y160625D03*
D16*
X223750Y150000D01*
X261870Y159500D02*
X261870Y172245D01*
X261875Y172250D01*
X262870Y149000D02*
X280000Y149000D01*
X262870Y149000D02*
X261870Y150000D01*
X279375Y172250D02*
X296875Y172250D01*
X300000Y169125D01*
X300000Y140000D01*
X262370Y140000D01*
X261870Y140500D01*
M02*
