M48
;GenerationSoftware,Autodesk,EAGLE,8.6.0*%
;CreationDate,2018-06-26T05:58:37Z*%
FMAT,2
ICI,OFF
METRIC,TZ,000.000
T5C0.350
T4C1.016
T3C1.780
T2C2.750
T1C5.400
%
G90
M71
T1
X9400Y18950
X9400Y11050
T2
X61500Y3500
X61500Y26500
X3500Y26500
X3500Y3500
T3
X88470Y22620
X70200Y7380
X70200Y12460
X70200Y17540
X70200Y22620
X79370Y7380
X88470Y17540
X88470Y12460
X88470Y7380
X106470Y22620
X34600Y22620
X34600Y17540
X34600Y12460
X34600Y7380
X97470Y22620
X97470Y17540
X97470Y12460
X97470Y7380
X43600Y22620
X43600Y17540
X43600Y12460
X43600Y7380
X79370Y12460
X106470Y17540
X106470Y12460
X106470Y7380
X52600Y22620
X52600Y17540
X52600Y12460
X52600Y7380
X79370Y22620
X79370Y17540
T4
X13540Y27770
X8460Y25230
X8460Y27770
X11000Y25230
X11000Y27770
X13540Y25230
T5
X22375Y16062
X26000Y20188
X60062Y15437
X60000Y20000
X23937Y22187
X26000Y8000
X26000Y10000
X26000Y12000
X36875Y17563
X41125Y17625
X36938Y22625
X41188Y22625
M30