G04 EAGLE Gerber X2 export*
%TF.Part,Single*%
%TF.FileFunction,Legend,Top,1*%
%TF.FilePolarity,Positive*%
%TF.GenerationSoftware,Autodesk,EAGLE,8.6.0*%
%TF.CreationDate,2018-06-26T05:58:37Z*%
G75*
%MOMM*%
%FSLAX34Y34*%
%LPD*%
%AMOC8*
5,1,8,0,0,1.08239X$1,22.5*%
G01*
%ADD10C,0.152400*%
%ADD11C,0.127000*%
%ADD12C,0.203200*%
%ADD13C,0.025400*%
%ADD14C,0.101600*%
%ADD15C,0.050800*%


D10*
X585000Y265000D02*
X585009Y265736D01*
X585036Y266472D01*
X585081Y267207D01*
X585144Y267941D01*
X585226Y268672D01*
X585325Y269402D01*
X585442Y270129D01*
X585576Y270853D01*
X585729Y271573D01*
X585899Y272289D01*
X586087Y273001D01*
X586292Y273709D01*
X586514Y274410D01*
X586754Y275107D01*
X587010Y275797D01*
X587284Y276481D01*
X587574Y277157D01*
X587880Y277827D01*
X588203Y278488D01*
X588542Y279142D01*
X588897Y279787D01*
X589268Y280423D01*
X589654Y281050D01*
X590056Y281667D01*
X590472Y282274D01*
X590904Y282871D01*
X591350Y283457D01*
X591810Y284032D01*
X592284Y284595D01*
X592771Y285147D01*
X593273Y285686D01*
X593787Y286213D01*
X594314Y286727D01*
X594853Y287229D01*
X595405Y287716D01*
X595968Y288190D01*
X596543Y288650D01*
X597129Y289096D01*
X597726Y289528D01*
X598333Y289944D01*
X598950Y290346D01*
X599577Y290732D01*
X600213Y291103D01*
X600858Y291458D01*
X601512Y291797D01*
X602173Y292120D01*
X602843Y292426D01*
X603519Y292716D01*
X604203Y292990D01*
X604893Y293246D01*
X605590Y293486D01*
X606291Y293708D01*
X606999Y293913D01*
X607711Y294101D01*
X608427Y294271D01*
X609147Y294424D01*
X609871Y294558D01*
X610598Y294675D01*
X611328Y294774D01*
X612059Y294856D01*
X612793Y294919D01*
X613528Y294964D01*
X614264Y294991D01*
X615000Y295000D01*
X615736Y294991D01*
X616472Y294964D01*
X617207Y294919D01*
X617941Y294856D01*
X618672Y294774D01*
X619402Y294675D01*
X620129Y294558D01*
X620853Y294424D01*
X621573Y294271D01*
X622289Y294101D01*
X623001Y293913D01*
X623709Y293708D01*
X624410Y293486D01*
X625107Y293246D01*
X625797Y292990D01*
X626481Y292716D01*
X627157Y292426D01*
X627827Y292120D01*
X628488Y291797D01*
X629142Y291458D01*
X629787Y291103D01*
X630423Y290732D01*
X631050Y290346D01*
X631667Y289944D01*
X632274Y289528D01*
X632871Y289096D01*
X633457Y288650D01*
X634032Y288190D01*
X634595Y287716D01*
X635147Y287229D01*
X635686Y286727D01*
X636213Y286213D01*
X636727Y285686D01*
X637229Y285147D01*
X637716Y284595D01*
X638190Y284032D01*
X638650Y283457D01*
X639096Y282871D01*
X639528Y282274D01*
X639944Y281667D01*
X640346Y281050D01*
X640732Y280423D01*
X641103Y279787D01*
X641458Y279142D01*
X641797Y278488D01*
X642120Y277827D01*
X642426Y277157D01*
X642716Y276481D01*
X642990Y275797D01*
X643246Y275107D01*
X643486Y274410D01*
X643708Y273709D01*
X643913Y273001D01*
X644101Y272289D01*
X644271Y271573D01*
X644424Y270853D01*
X644558Y270129D01*
X644675Y269402D01*
X644774Y268672D01*
X644856Y267941D01*
X644919Y267207D01*
X644964Y266472D01*
X644991Y265736D01*
X645000Y265000D01*
X644991Y264264D01*
X644964Y263528D01*
X644919Y262793D01*
X644856Y262059D01*
X644774Y261328D01*
X644675Y260598D01*
X644558Y259871D01*
X644424Y259147D01*
X644271Y258427D01*
X644101Y257711D01*
X643913Y256999D01*
X643708Y256291D01*
X643486Y255590D01*
X643246Y254893D01*
X642990Y254203D01*
X642716Y253519D01*
X642426Y252843D01*
X642120Y252173D01*
X641797Y251512D01*
X641458Y250858D01*
X641103Y250213D01*
X640732Y249577D01*
X640346Y248950D01*
X639944Y248333D01*
X639528Y247726D01*
X639096Y247129D01*
X638650Y246543D01*
X638190Y245968D01*
X637716Y245405D01*
X637229Y244853D01*
X636727Y244314D01*
X636213Y243787D01*
X635686Y243273D01*
X635147Y242771D01*
X634595Y242284D01*
X634032Y241810D01*
X633457Y241350D01*
X632871Y240904D01*
X632274Y240472D01*
X631667Y240056D01*
X631050Y239654D01*
X630423Y239268D01*
X629787Y238897D01*
X629142Y238542D01*
X628488Y238203D01*
X627827Y237880D01*
X627157Y237574D01*
X626481Y237284D01*
X625797Y237010D01*
X625107Y236754D01*
X624410Y236514D01*
X623709Y236292D01*
X623001Y236087D01*
X622289Y235899D01*
X621573Y235729D01*
X620853Y235576D01*
X620129Y235442D01*
X619402Y235325D01*
X618672Y235226D01*
X617941Y235144D01*
X617207Y235081D01*
X616472Y235036D01*
X615736Y235009D01*
X615000Y235000D01*
X614264Y235009D01*
X613528Y235036D01*
X612793Y235081D01*
X612059Y235144D01*
X611328Y235226D01*
X610598Y235325D01*
X609871Y235442D01*
X609147Y235576D01*
X608427Y235729D01*
X607711Y235899D01*
X606999Y236087D01*
X606291Y236292D01*
X605590Y236514D01*
X604893Y236754D01*
X604203Y237010D01*
X603519Y237284D01*
X602843Y237574D01*
X602173Y237880D01*
X601512Y238203D01*
X600858Y238542D01*
X600213Y238897D01*
X599577Y239268D01*
X598950Y239654D01*
X598333Y240056D01*
X597726Y240472D01*
X597129Y240904D01*
X596543Y241350D01*
X595968Y241810D01*
X595405Y242284D01*
X594853Y242771D01*
X594314Y243273D01*
X593787Y243787D01*
X593273Y244314D01*
X592771Y244853D01*
X592284Y245405D01*
X591810Y245968D01*
X591350Y246543D01*
X590904Y247129D01*
X590472Y247726D01*
X590056Y248333D01*
X589654Y248950D01*
X589268Y249577D01*
X588897Y250213D01*
X588542Y250858D01*
X588203Y251512D01*
X587880Y252173D01*
X587574Y252843D01*
X587284Y253519D01*
X587010Y254203D01*
X586754Y254893D01*
X586514Y255590D01*
X586292Y256291D01*
X586087Y256999D01*
X585899Y257711D01*
X585729Y258427D01*
X585576Y259147D01*
X585442Y259871D01*
X585325Y260598D01*
X585226Y261328D01*
X585144Y262059D01*
X585081Y262793D01*
X585036Y263528D01*
X585009Y264264D01*
X585000Y265000D01*
X585000Y35000D02*
X585009Y35736D01*
X585036Y36472D01*
X585081Y37207D01*
X585144Y37941D01*
X585226Y38672D01*
X585325Y39402D01*
X585442Y40129D01*
X585576Y40853D01*
X585729Y41573D01*
X585899Y42289D01*
X586087Y43001D01*
X586292Y43709D01*
X586514Y44410D01*
X586754Y45107D01*
X587010Y45797D01*
X587284Y46481D01*
X587574Y47157D01*
X587880Y47827D01*
X588203Y48488D01*
X588542Y49142D01*
X588897Y49787D01*
X589268Y50423D01*
X589654Y51050D01*
X590056Y51667D01*
X590472Y52274D01*
X590904Y52871D01*
X591350Y53457D01*
X591810Y54032D01*
X592284Y54595D01*
X592771Y55147D01*
X593273Y55686D01*
X593787Y56213D01*
X594314Y56727D01*
X594853Y57229D01*
X595405Y57716D01*
X595968Y58190D01*
X596543Y58650D01*
X597129Y59096D01*
X597726Y59528D01*
X598333Y59944D01*
X598950Y60346D01*
X599577Y60732D01*
X600213Y61103D01*
X600858Y61458D01*
X601512Y61797D01*
X602173Y62120D01*
X602843Y62426D01*
X603519Y62716D01*
X604203Y62990D01*
X604893Y63246D01*
X605590Y63486D01*
X606291Y63708D01*
X606999Y63913D01*
X607711Y64101D01*
X608427Y64271D01*
X609147Y64424D01*
X609871Y64558D01*
X610598Y64675D01*
X611328Y64774D01*
X612059Y64856D01*
X612793Y64919D01*
X613528Y64964D01*
X614264Y64991D01*
X615000Y65000D01*
X615736Y64991D01*
X616472Y64964D01*
X617207Y64919D01*
X617941Y64856D01*
X618672Y64774D01*
X619402Y64675D01*
X620129Y64558D01*
X620853Y64424D01*
X621573Y64271D01*
X622289Y64101D01*
X623001Y63913D01*
X623709Y63708D01*
X624410Y63486D01*
X625107Y63246D01*
X625797Y62990D01*
X626481Y62716D01*
X627157Y62426D01*
X627827Y62120D01*
X628488Y61797D01*
X629142Y61458D01*
X629787Y61103D01*
X630423Y60732D01*
X631050Y60346D01*
X631667Y59944D01*
X632274Y59528D01*
X632871Y59096D01*
X633457Y58650D01*
X634032Y58190D01*
X634595Y57716D01*
X635147Y57229D01*
X635686Y56727D01*
X636213Y56213D01*
X636727Y55686D01*
X637229Y55147D01*
X637716Y54595D01*
X638190Y54032D01*
X638650Y53457D01*
X639096Y52871D01*
X639528Y52274D01*
X639944Y51667D01*
X640346Y51050D01*
X640732Y50423D01*
X641103Y49787D01*
X641458Y49142D01*
X641797Y48488D01*
X642120Y47827D01*
X642426Y47157D01*
X642716Y46481D01*
X642990Y45797D01*
X643246Y45107D01*
X643486Y44410D01*
X643708Y43709D01*
X643913Y43001D01*
X644101Y42289D01*
X644271Y41573D01*
X644424Y40853D01*
X644558Y40129D01*
X644675Y39402D01*
X644774Y38672D01*
X644856Y37941D01*
X644919Y37207D01*
X644964Y36472D01*
X644991Y35736D01*
X645000Y35000D01*
X644991Y34264D01*
X644964Y33528D01*
X644919Y32793D01*
X644856Y32059D01*
X644774Y31328D01*
X644675Y30598D01*
X644558Y29871D01*
X644424Y29147D01*
X644271Y28427D01*
X644101Y27711D01*
X643913Y26999D01*
X643708Y26291D01*
X643486Y25590D01*
X643246Y24893D01*
X642990Y24203D01*
X642716Y23519D01*
X642426Y22843D01*
X642120Y22173D01*
X641797Y21512D01*
X641458Y20858D01*
X641103Y20213D01*
X640732Y19577D01*
X640346Y18950D01*
X639944Y18333D01*
X639528Y17726D01*
X639096Y17129D01*
X638650Y16543D01*
X638190Y15968D01*
X637716Y15405D01*
X637229Y14853D01*
X636727Y14314D01*
X636213Y13787D01*
X635686Y13273D01*
X635147Y12771D01*
X634595Y12284D01*
X634032Y11810D01*
X633457Y11350D01*
X632871Y10904D01*
X632274Y10472D01*
X631667Y10056D01*
X631050Y9654D01*
X630423Y9268D01*
X629787Y8897D01*
X629142Y8542D01*
X628488Y8203D01*
X627827Y7880D01*
X627157Y7574D01*
X626481Y7284D01*
X625797Y7010D01*
X625107Y6754D01*
X624410Y6514D01*
X623709Y6292D01*
X623001Y6087D01*
X622289Y5899D01*
X621573Y5729D01*
X620853Y5576D01*
X620129Y5442D01*
X619402Y5325D01*
X618672Y5226D01*
X617941Y5144D01*
X617207Y5081D01*
X616472Y5036D01*
X615736Y5009D01*
X615000Y5000D01*
X614264Y5009D01*
X613528Y5036D01*
X612793Y5081D01*
X612059Y5144D01*
X611328Y5226D01*
X610598Y5325D01*
X609871Y5442D01*
X609147Y5576D01*
X608427Y5729D01*
X607711Y5899D01*
X606999Y6087D01*
X606291Y6292D01*
X605590Y6514D01*
X604893Y6754D01*
X604203Y7010D01*
X603519Y7284D01*
X602843Y7574D01*
X602173Y7880D01*
X601512Y8203D01*
X600858Y8542D01*
X600213Y8897D01*
X599577Y9268D01*
X598950Y9654D01*
X598333Y10056D01*
X597726Y10472D01*
X597129Y10904D01*
X596543Y11350D01*
X595968Y11810D01*
X595405Y12284D01*
X594853Y12771D01*
X594314Y13273D01*
X593787Y13787D01*
X593273Y14314D01*
X592771Y14853D01*
X592284Y15405D01*
X591810Y15968D01*
X591350Y16543D01*
X590904Y17129D01*
X590472Y17726D01*
X590056Y18333D01*
X589654Y18950D01*
X589268Y19577D01*
X588897Y20213D01*
X588542Y20858D01*
X588203Y21512D01*
X587880Y22173D01*
X587574Y22843D01*
X587284Y23519D01*
X587010Y24203D01*
X586754Y24893D01*
X586514Y25590D01*
X586292Y26291D01*
X586087Y26999D01*
X585899Y27711D01*
X585729Y28427D01*
X585576Y29147D01*
X585442Y29871D01*
X585325Y30598D01*
X585226Y31328D01*
X585144Y32059D01*
X585081Y32793D01*
X585036Y33528D01*
X585009Y34264D01*
X585000Y35000D01*
X5000Y35000D02*
X5009Y35736D01*
X5036Y36472D01*
X5081Y37207D01*
X5144Y37941D01*
X5226Y38672D01*
X5325Y39402D01*
X5442Y40129D01*
X5576Y40853D01*
X5729Y41573D01*
X5899Y42289D01*
X6087Y43001D01*
X6292Y43709D01*
X6514Y44410D01*
X6754Y45107D01*
X7010Y45797D01*
X7284Y46481D01*
X7574Y47157D01*
X7880Y47827D01*
X8203Y48488D01*
X8542Y49142D01*
X8897Y49787D01*
X9268Y50423D01*
X9654Y51050D01*
X10056Y51667D01*
X10472Y52274D01*
X10904Y52871D01*
X11350Y53457D01*
X11810Y54032D01*
X12284Y54595D01*
X12771Y55147D01*
X13273Y55686D01*
X13787Y56213D01*
X14314Y56727D01*
X14853Y57229D01*
X15405Y57716D01*
X15968Y58190D01*
X16543Y58650D01*
X17129Y59096D01*
X17726Y59528D01*
X18333Y59944D01*
X18950Y60346D01*
X19577Y60732D01*
X20213Y61103D01*
X20858Y61458D01*
X21512Y61797D01*
X22173Y62120D01*
X22843Y62426D01*
X23519Y62716D01*
X24203Y62990D01*
X24893Y63246D01*
X25590Y63486D01*
X26291Y63708D01*
X26999Y63913D01*
X27711Y64101D01*
X28427Y64271D01*
X29147Y64424D01*
X29871Y64558D01*
X30598Y64675D01*
X31328Y64774D01*
X32059Y64856D01*
X32793Y64919D01*
X33528Y64964D01*
X34264Y64991D01*
X35000Y65000D01*
X35736Y64991D01*
X36472Y64964D01*
X37207Y64919D01*
X37941Y64856D01*
X38672Y64774D01*
X39402Y64675D01*
X40129Y64558D01*
X40853Y64424D01*
X41573Y64271D01*
X42289Y64101D01*
X43001Y63913D01*
X43709Y63708D01*
X44410Y63486D01*
X45107Y63246D01*
X45797Y62990D01*
X46481Y62716D01*
X47157Y62426D01*
X47827Y62120D01*
X48488Y61797D01*
X49142Y61458D01*
X49787Y61103D01*
X50423Y60732D01*
X51050Y60346D01*
X51667Y59944D01*
X52274Y59528D01*
X52871Y59096D01*
X53457Y58650D01*
X54032Y58190D01*
X54595Y57716D01*
X55147Y57229D01*
X55686Y56727D01*
X56213Y56213D01*
X56727Y55686D01*
X57229Y55147D01*
X57716Y54595D01*
X58190Y54032D01*
X58650Y53457D01*
X59096Y52871D01*
X59528Y52274D01*
X59944Y51667D01*
X60346Y51050D01*
X60732Y50423D01*
X61103Y49787D01*
X61458Y49142D01*
X61797Y48488D01*
X62120Y47827D01*
X62426Y47157D01*
X62716Y46481D01*
X62990Y45797D01*
X63246Y45107D01*
X63486Y44410D01*
X63708Y43709D01*
X63913Y43001D01*
X64101Y42289D01*
X64271Y41573D01*
X64424Y40853D01*
X64558Y40129D01*
X64675Y39402D01*
X64774Y38672D01*
X64856Y37941D01*
X64919Y37207D01*
X64964Y36472D01*
X64991Y35736D01*
X65000Y35000D01*
X64991Y34264D01*
X64964Y33528D01*
X64919Y32793D01*
X64856Y32059D01*
X64774Y31328D01*
X64675Y30598D01*
X64558Y29871D01*
X64424Y29147D01*
X64271Y28427D01*
X64101Y27711D01*
X63913Y26999D01*
X63708Y26291D01*
X63486Y25590D01*
X63246Y24893D01*
X62990Y24203D01*
X62716Y23519D01*
X62426Y22843D01*
X62120Y22173D01*
X61797Y21512D01*
X61458Y20858D01*
X61103Y20213D01*
X60732Y19577D01*
X60346Y18950D01*
X59944Y18333D01*
X59528Y17726D01*
X59096Y17129D01*
X58650Y16543D01*
X58190Y15968D01*
X57716Y15405D01*
X57229Y14853D01*
X56727Y14314D01*
X56213Y13787D01*
X55686Y13273D01*
X55147Y12771D01*
X54595Y12284D01*
X54032Y11810D01*
X53457Y11350D01*
X52871Y10904D01*
X52274Y10472D01*
X51667Y10056D01*
X51050Y9654D01*
X50423Y9268D01*
X49787Y8897D01*
X49142Y8542D01*
X48488Y8203D01*
X47827Y7880D01*
X47157Y7574D01*
X46481Y7284D01*
X45797Y7010D01*
X45107Y6754D01*
X44410Y6514D01*
X43709Y6292D01*
X43001Y6087D01*
X42289Y5899D01*
X41573Y5729D01*
X40853Y5576D01*
X40129Y5442D01*
X39402Y5325D01*
X38672Y5226D01*
X37941Y5144D01*
X37207Y5081D01*
X36472Y5036D01*
X35736Y5009D01*
X35000Y5000D01*
X34264Y5009D01*
X33528Y5036D01*
X32793Y5081D01*
X32059Y5144D01*
X31328Y5226D01*
X30598Y5325D01*
X29871Y5442D01*
X29147Y5576D01*
X28427Y5729D01*
X27711Y5899D01*
X26999Y6087D01*
X26291Y6292D01*
X25590Y6514D01*
X24893Y6754D01*
X24203Y7010D01*
X23519Y7284D01*
X22843Y7574D01*
X22173Y7880D01*
X21512Y8203D01*
X20858Y8542D01*
X20213Y8897D01*
X19577Y9268D01*
X18950Y9654D01*
X18333Y10056D01*
X17726Y10472D01*
X17129Y10904D01*
X16543Y11350D01*
X15968Y11810D01*
X15405Y12284D01*
X14853Y12771D01*
X14314Y13273D01*
X13787Y13787D01*
X13273Y14314D01*
X12771Y14853D01*
X12284Y15405D01*
X11810Y15968D01*
X11350Y16543D01*
X10904Y17129D01*
X10472Y17726D01*
X10056Y18333D01*
X9654Y18950D01*
X9268Y19577D01*
X8897Y20213D01*
X8542Y20858D01*
X8203Y21512D01*
X7880Y22173D01*
X7574Y22843D01*
X7284Y23519D01*
X7010Y24203D01*
X6754Y24893D01*
X6514Y25590D01*
X6292Y26291D01*
X6087Y26999D01*
X5899Y27711D01*
X5729Y28427D01*
X5576Y29147D01*
X5442Y29871D01*
X5325Y30598D01*
X5226Y31328D01*
X5144Y32059D01*
X5081Y32793D01*
X5036Y33528D01*
X5009Y34264D01*
X5000Y35000D01*
X5000Y265000D02*
X5009Y265736D01*
X5036Y266472D01*
X5081Y267207D01*
X5144Y267941D01*
X5226Y268672D01*
X5325Y269402D01*
X5442Y270129D01*
X5576Y270853D01*
X5729Y271573D01*
X5899Y272289D01*
X6087Y273001D01*
X6292Y273709D01*
X6514Y274410D01*
X6754Y275107D01*
X7010Y275797D01*
X7284Y276481D01*
X7574Y277157D01*
X7880Y277827D01*
X8203Y278488D01*
X8542Y279142D01*
X8897Y279787D01*
X9268Y280423D01*
X9654Y281050D01*
X10056Y281667D01*
X10472Y282274D01*
X10904Y282871D01*
X11350Y283457D01*
X11810Y284032D01*
X12284Y284595D01*
X12771Y285147D01*
X13273Y285686D01*
X13787Y286213D01*
X14314Y286727D01*
X14853Y287229D01*
X15405Y287716D01*
X15968Y288190D01*
X16543Y288650D01*
X17129Y289096D01*
X17726Y289528D01*
X18333Y289944D01*
X18950Y290346D01*
X19577Y290732D01*
X20213Y291103D01*
X20858Y291458D01*
X21512Y291797D01*
X22173Y292120D01*
X22843Y292426D01*
X23519Y292716D01*
X24203Y292990D01*
X24893Y293246D01*
X25590Y293486D01*
X26291Y293708D01*
X26999Y293913D01*
X27711Y294101D01*
X28427Y294271D01*
X29147Y294424D01*
X29871Y294558D01*
X30598Y294675D01*
X31328Y294774D01*
X32059Y294856D01*
X32793Y294919D01*
X33528Y294964D01*
X34264Y294991D01*
X35000Y295000D01*
X35736Y294991D01*
X36472Y294964D01*
X37207Y294919D01*
X37941Y294856D01*
X38672Y294774D01*
X39402Y294675D01*
X40129Y294558D01*
X40853Y294424D01*
X41573Y294271D01*
X42289Y294101D01*
X43001Y293913D01*
X43709Y293708D01*
X44410Y293486D01*
X45107Y293246D01*
X45797Y292990D01*
X46481Y292716D01*
X47157Y292426D01*
X47827Y292120D01*
X48488Y291797D01*
X49142Y291458D01*
X49787Y291103D01*
X50423Y290732D01*
X51050Y290346D01*
X51667Y289944D01*
X52274Y289528D01*
X52871Y289096D01*
X53457Y288650D01*
X54032Y288190D01*
X54595Y287716D01*
X55147Y287229D01*
X55686Y286727D01*
X56213Y286213D01*
X56727Y285686D01*
X57229Y285147D01*
X57716Y284595D01*
X58190Y284032D01*
X58650Y283457D01*
X59096Y282871D01*
X59528Y282274D01*
X59944Y281667D01*
X60346Y281050D01*
X60732Y280423D01*
X61103Y279787D01*
X61458Y279142D01*
X61797Y278488D01*
X62120Y277827D01*
X62426Y277157D01*
X62716Y276481D01*
X62990Y275797D01*
X63246Y275107D01*
X63486Y274410D01*
X63708Y273709D01*
X63913Y273001D01*
X64101Y272289D01*
X64271Y271573D01*
X64424Y270853D01*
X64558Y270129D01*
X64675Y269402D01*
X64774Y268672D01*
X64856Y267941D01*
X64919Y267207D01*
X64964Y266472D01*
X64991Y265736D01*
X65000Y265000D01*
X64991Y264264D01*
X64964Y263528D01*
X64919Y262793D01*
X64856Y262059D01*
X64774Y261328D01*
X64675Y260598D01*
X64558Y259871D01*
X64424Y259147D01*
X64271Y258427D01*
X64101Y257711D01*
X63913Y256999D01*
X63708Y256291D01*
X63486Y255590D01*
X63246Y254893D01*
X62990Y254203D01*
X62716Y253519D01*
X62426Y252843D01*
X62120Y252173D01*
X61797Y251512D01*
X61458Y250858D01*
X61103Y250213D01*
X60732Y249577D01*
X60346Y248950D01*
X59944Y248333D01*
X59528Y247726D01*
X59096Y247129D01*
X58650Y246543D01*
X58190Y245968D01*
X57716Y245405D01*
X57229Y244853D01*
X56727Y244314D01*
X56213Y243787D01*
X55686Y243273D01*
X55147Y242771D01*
X54595Y242284D01*
X54032Y241810D01*
X53457Y241350D01*
X52871Y240904D01*
X52274Y240472D01*
X51667Y240056D01*
X51050Y239654D01*
X50423Y239268D01*
X49787Y238897D01*
X49142Y238542D01*
X48488Y238203D01*
X47827Y237880D01*
X47157Y237574D01*
X46481Y237284D01*
X45797Y237010D01*
X45107Y236754D01*
X44410Y236514D01*
X43709Y236292D01*
X43001Y236087D01*
X42289Y235899D01*
X41573Y235729D01*
X40853Y235576D01*
X40129Y235442D01*
X39402Y235325D01*
X38672Y235226D01*
X37941Y235144D01*
X37207Y235081D01*
X36472Y235036D01*
X35736Y235009D01*
X35000Y235000D01*
X34264Y235009D01*
X33528Y235036D01*
X32793Y235081D01*
X32059Y235144D01*
X31328Y235226D01*
X30598Y235325D01*
X29871Y235442D01*
X29147Y235576D01*
X28427Y235729D01*
X27711Y235899D01*
X26999Y236087D01*
X26291Y236292D01*
X25590Y236514D01*
X24893Y236754D01*
X24203Y237010D01*
X23519Y237284D01*
X22843Y237574D01*
X22173Y237880D01*
X21512Y238203D01*
X20858Y238542D01*
X20213Y238897D01*
X19577Y239268D01*
X18950Y239654D01*
X18333Y240056D01*
X17726Y240472D01*
X17129Y240904D01*
X16543Y241350D01*
X15968Y241810D01*
X15405Y242284D01*
X14853Y242771D01*
X14314Y243273D01*
X13787Y243787D01*
X13273Y244314D01*
X12771Y244853D01*
X12284Y245405D01*
X11810Y245968D01*
X11350Y246543D01*
X10904Y247129D01*
X10472Y247726D01*
X10056Y248333D01*
X9654Y248950D01*
X9268Y249577D01*
X8897Y250213D01*
X8542Y250858D01*
X8203Y251512D01*
X7880Y252173D01*
X7574Y252843D01*
X7284Y253519D01*
X7010Y254203D01*
X6754Y254893D01*
X6514Y255590D01*
X6292Y256291D01*
X6087Y256999D01*
X5899Y257711D01*
X5729Y258427D01*
X5576Y259147D01*
X5442Y259871D01*
X5325Y260598D01*
X5226Y261328D01*
X5144Y262059D01*
X5081Y262793D01*
X5036Y263528D01*
X5009Y264264D01*
X5000Y265000D01*
X340762Y16181D02*
X351599Y16181D01*
X351599Y21599D02*
X340762Y21599D01*
X343471Y27018D02*
X343471Y10762D01*
X348890Y10762D02*
X348890Y27018D01*
X357817Y23406D02*
X362333Y27018D01*
X362333Y10762D01*
X366848Y10762D02*
X357817Y10762D01*
X430762Y16181D02*
X441599Y16181D01*
X441599Y21599D02*
X430762Y21599D01*
X433471Y27018D02*
X433471Y10762D01*
X438890Y10762D02*
X438890Y27018D01*
X452784Y27018D02*
X452909Y27016D01*
X453034Y27010D01*
X453159Y27001D01*
X453283Y26987D01*
X453407Y26970D01*
X453531Y26949D01*
X453653Y26924D01*
X453775Y26895D01*
X453896Y26863D01*
X454016Y26827D01*
X454135Y26787D01*
X454252Y26744D01*
X454368Y26697D01*
X454483Y26646D01*
X454595Y26592D01*
X454707Y26534D01*
X454816Y26474D01*
X454923Y26409D01*
X455029Y26342D01*
X455132Y26271D01*
X455233Y26197D01*
X455332Y26120D01*
X455428Y26040D01*
X455522Y25957D01*
X455613Y25872D01*
X455702Y25783D01*
X455787Y25692D01*
X455870Y25598D01*
X455950Y25502D01*
X456027Y25403D01*
X456101Y25302D01*
X456172Y25199D01*
X456239Y25093D01*
X456304Y24986D01*
X456364Y24877D01*
X456422Y24765D01*
X456476Y24653D01*
X456527Y24538D01*
X456574Y24422D01*
X456617Y24305D01*
X456657Y24186D01*
X456693Y24066D01*
X456725Y23945D01*
X456754Y23823D01*
X456779Y23701D01*
X456800Y23577D01*
X456817Y23453D01*
X456831Y23329D01*
X456840Y23204D01*
X456846Y23079D01*
X456848Y22954D01*
X452784Y27018D02*
X452641Y27016D01*
X452499Y27010D01*
X452356Y27000D01*
X452214Y26987D01*
X452073Y26969D01*
X451931Y26948D01*
X451791Y26923D01*
X451651Y26894D01*
X451512Y26861D01*
X451374Y26824D01*
X451237Y26784D01*
X451102Y26740D01*
X450967Y26692D01*
X450834Y26640D01*
X450702Y26585D01*
X450572Y26526D01*
X450444Y26464D01*
X450317Y26398D01*
X450192Y26329D01*
X450069Y26257D01*
X449949Y26181D01*
X449830Y26102D01*
X449713Y26019D01*
X449599Y25934D01*
X449487Y25845D01*
X449378Y25754D01*
X449271Y25659D01*
X449166Y25562D01*
X449065Y25461D01*
X448966Y25358D01*
X448870Y25253D01*
X448777Y25144D01*
X448687Y25033D01*
X448600Y24920D01*
X448516Y24805D01*
X448436Y24687D01*
X448358Y24567D01*
X448284Y24445D01*
X448214Y24321D01*
X448146Y24195D01*
X448083Y24067D01*
X448022Y23938D01*
X447965Y23807D01*
X447912Y23675D01*
X447863Y23541D01*
X447817Y23406D01*
X455493Y19793D02*
X455587Y19885D01*
X455677Y19979D01*
X455765Y20076D01*
X455850Y20176D01*
X455932Y20278D01*
X456011Y20383D01*
X456086Y20490D01*
X456158Y20599D01*
X456227Y20710D01*
X456293Y20824D01*
X456355Y20939D01*
X456414Y21056D01*
X456469Y21175D01*
X456520Y21295D01*
X456568Y21417D01*
X456613Y21540D01*
X456653Y21664D01*
X456690Y21790D01*
X456723Y21917D01*
X456752Y22044D01*
X456778Y22173D01*
X456799Y22302D01*
X456817Y22432D01*
X456830Y22562D01*
X456840Y22692D01*
X456846Y22823D01*
X456848Y22954D01*
X455494Y19793D02*
X447817Y10762D01*
X456848Y10762D01*
X520762Y16181D02*
X531599Y16181D01*
X531599Y21599D02*
X520762Y21599D01*
X523471Y27018D02*
X523471Y10762D01*
X528890Y10762D02*
X528890Y27018D01*
X537817Y10762D02*
X542333Y10762D01*
X542466Y10764D01*
X542598Y10770D01*
X542730Y10780D01*
X542862Y10793D01*
X542994Y10811D01*
X543124Y10832D01*
X543255Y10857D01*
X543384Y10886D01*
X543512Y10919D01*
X543640Y10955D01*
X543766Y10995D01*
X543891Y11039D01*
X544015Y11087D01*
X544137Y11138D01*
X544258Y11193D01*
X544377Y11251D01*
X544495Y11313D01*
X544610Y11378D01*
X544724Y11447D01*
X544835Y11518D01*
X544944Y11594D01*
X545051Y11672D01*
X545156Y11753D01*
X545258Y11838D01*
X545358Y11925D01*
X545455Y12015D01*
X545550Y12108D01*
X545641Y12204D01*
X545730Y12302D01*
X545816Y12403D01*
X545899Y12507D01*
X545979Y12613D01*
X546055Y12721D01*
X546129Y12831D01*
X546199Y12944D01*
X546266Y13058D01*
X546329Y13175D01*
X546389Y13293D01*
X546446Y13413D01*
X546499Y13535D01*
X546548Y13658D01*
X546594Y13782D01*
X546636Y13908D01*
X546674Y14035D01*
X546709Y14163D01*
X546740Y14292D01*
X546767Y14421D01*
X546790Y14552D01*
X546810Y14683D01*
X546825Y14815D01*
X546837Y14947D01*
X546845Y15079D01*
X546849Y15212D01*
X546849Y15344D01*
X546845Y15477D01*
X546837Y15609D01*
X546825Y15741D01*
X546810Y15873D01*
X546790Y16004D01*
X546767Y16135D01*
X546740Y16264D01*
X546709Y16393D01*
X546674Y16521D01*
X546636Y16648D01*
X546594Y16774D01*
X546548Y16898D01*
X546499Y17021D01*
X546446Y17143D01*
X546389Y17263D01*
X546329Y17381D01*
X546266Y17498D01*
X546199Y17612D01*
X546129Y17725D01*
X546055Y17835D01*
X545979Y17943D01*
X545899Y18049D01*
X545816Y18153D01*
X545730Y18254D01*
X545641Y18352D01*
X545550Y18448D01*
X545455Y18541D01*
X545358Y18631D01*
X545258Y18718D01*
X545156Y18803D01*
X545051Y18884D01*
X544944Y18962D01*
X544835Y19038D01*
X544724Y19109D01*
X544610Y19178D01*
X544495Y19243D01*
X544377Y19305D01*
X544258Y19363D01*
X544137Y19418D01*
X544015Y19469D01*
X543891Y19517D01*
X543766Y19561D01*
X543640Y19601D01*
X543512Y19637D01*
X543384Y19670D01*
X543255Y19699D01*
X543124Y19724D01*
X542994Y19745D01*
X542862Y19763D01*
X542730Y19776D01*
X542598Y19786D01*
X542466Y19792D01*
X542333Y19794D01*
X543236Y27018D02*
X537817Y27018D01*
X543236Y27018D02*
X543355Y27016D01*
X543475Y27010D01*
X543594Y27000D01*
X543712Y26986D01*
X543831Y26969D01*
X543948Y26947D01*
X544065Y26922D01*
X544180Y26892D01*
X544295Y26859D01*
X544409Y26822D01*
X544521Y26782D01*
X544632Y26737D01*
X544741Y26689D01*
X544849Y26638D01*
X544955Y26583D01*
X545059Y26524D01*
X545161Y26462D01*
X545261Y26397D01*
X545359Y26328D01*
X545455Y26256D01*
X545548Y26181D01*
X545638Y26104D01*
X545726Y26023D01*
X545811Y25939D01*
X545893Y25852D01*
X545973Y25763D01*
X546049Y25671D01*
X546123Y25577D01*
X546193Y25480D01*
X546260Y25382D01*
X546324Y25281D01*
X546384Y25177D01*
X546441Y25072D01*
X546494Y24965D01*
X546544Y24857D01*
X546590Y24747D01*
X546632Y24635D01*
X546671Y24522D01*
X546706Y24408D01*
X546737Y24293D01*
X546765Y24176D01*
X546788Y24059D01*
X546808Y23942D01*
X546824Y23823D01*
X546836Y23704D01*
X546844Y23585D01*
X546848Y23466D01*
X546848Y23346D01*
X546844Y23227D01*
X546836Y23108D01*
X546824Y22989D01*
X546808Y22870D01*
X546788Y22753D01*
X546765Y22636D01*
X546737Y22519D01*
X546706Y22404D01*
X546671Y22290D01*
X546632Y22177D01*
X546590Y22065D01*
X546544Y21955D01*
X546494Y21847D01*
X546441Y21740D01*
X546384Y21635D01*
X546324Y21531D01*
X546260Y21430D01*
X546193Y21332D01*
X546123Y21235D01*
X546049Y21141D01*
X545973Y21049D01*
X545893Y20960D01*
X545811Y20873D01*
X545726Y20789D01*
X545638Y20708D01*
X545548Y20631D01*
X545455Y20556D01*
X545359Y20484D01*
X545261Y20415D01*
X545161Y20350D01*
X545059Y20288D01*
X544955Y20229D01*
X544849Y20174D01*
X544741Y20123D01*
X544632Y20075D01*
X544521Y20030D01*
X544409Y19990D01*
X544295Y19953D01*
X544180Y19920D01*
X544065Y19890D01*
X543948Y19865D01*
X543831Y19843D01*
X543712Y19826D01*
X543594Y19812D01*
X543475Y19802D01*
X543355Y19796D01*
X543236Y19794D01*
X543236Y19793D02*
X539624Y19793D01*
X700762Y16181D02*
X711599Y16181D01*
X711599Y21599D02*
X700762Y21599D01*
X703471Y27018D02*
X703471Y10762D01*
X708890Y10762D02*
X708890Y27018D01*
X721430Y27018D02*
X717817Y14374D01*
X726848Y14374D01*
X724139Y17987D02*
X724139Y10762D01*
X790762Y16181D02*
X801599Y16181D01*
X801599Y21599D02*
X790762Y21599D01*
X793471Y27018D02*
X793471Y10762D01*
X798890Y10762D02*
X798890Y27018D01*
X807817Y10762D02*
X813236Y10762D01*
X813354Y10764D01*
X813472Y10770D01*
X813590Y10779D01*
X813707Y10793D01*
X813824Y10810D01*
X813941Y10831D01*
X814056Y10856D01*
X814171Y10885D01*
X814285Y10918D01*
X814397Y10954D01*
X814508Y10994D01*
X814618Y11037D01*
X814727Y11084D01*
X814834Y11134D01*
X814939Y11189D01*
X815042Y11246D01*
X815143Y11307D01*
X815243Y11371D01*
X815340Y11438D01*
X815435Y11508D01*
X815527Y11582D01*
X815618Y11658D01*
X815705Y11738D01*
X815790Y11820D01*
X815872Y11905D01*
X815952Y11992D01*
X816028Y12083D01*
X816102Y12175D01*
X816172Y12270D01*
X816239Y12367D01*
X816303Y12467D01*
X816364Y12568D01*
X816421Y12671D01*
X816476Y12776D01*
X816526Y12883D01*
X816573Y12992D01*
X816616Y13102D01*
X816656Y13213D01*
X816692Y13325D01*
X816725Y13439D01*
X816754Y13554D01*
X816779Y13669D01*
X816800Y13786D01*
X816817Y13903D01*
X816831Y14020D01*
X816840Y14138D01*
X816846Y14256D01*
X816848Y14374D01*
X816848Y16181D01*
X816846Y16299D01*
X816840Y16417D01*
X816831Y16535D01*
X816817Y16652D01*
X816800Y16769D01*
X816779Y16886D01*
X816754Y17001D01*
X816725Y17116D01*
X816692Y17230D01*
X816656Y17342D01*
X816616Y17453D01*
X816573Y17563D01*
X816526Y17672D01*
X816476Y17779D01*
X816421Y17884D01*
X816364Y17987D01*
X816303Y18088D01*
X816239Y18188D01*
X816172Y18285D01*
X816102Y18380D01*
X816028Y18472D01*
X815952Y18563D01*
X815872Y18650D01*
X815790Y18735D01*
X815705Y18817D01*
X815618Y18897D01*
X815527Y18973D01*
X815435Y19047D01*
X815340Y19117D01*
X815243Y19184D01*
X815143Y19248D01*
X815042Y19309D01*
X814939Y19366D01*
X814834Y19421D01*
X814727Y19471D01*
X814618Y19518D01*
X814508Y19561D01*
X814397Y19601D01*
X814285Y19637D01*
X814171Y19670D01*
X814056Y19699D01*
X813941Y19724D01*
X813824Y19745D01*
X813707Y19762D01*
X813590Y19776D01*
X813472Y19785D01*
X813354Y19791D01*
X813236Y19793D01*
X807817Y19793D01*
X807817Y27018D01*
X816848Y27018D01*
X880762Y16181D02*
X891599Y16181D01*
X891599Y21599D02*
X880762Y21599D01*
X883471Y27018D02*
X883471Y10762D01*
X888890Y10762D02*
X888890Y27018D01*
X897817Y19793D02*
X903236Y19793D01*
X903354Y19791D01*
X903472Y19785D01*
X903590Y19776D01*
X903707Y19762D01*
X903824Y19745D01*
X903941Y19724D01*
X904056Y19699D01*
X904171Y19670D01*
X904285Y19637D01*
X904397Y19601D01*
X904508Y19561D01*
X904618Y19518D01*
X904727Y19471D01*
X904834Y19421D01*
X904939Y19366D01*
X905042Y19309D01*
X905143Y19248D01*
X905243Y19184D01*
X905340Y19117D01*
X905435Y19047D01*
X905527Y18973D01*
X905618Y18897D01*
X905705Y18817D01*
X905790Y18735D01*
X905872Y18650D01*
X905952Y18563D01*
X906028Y18472D01*
X906102Y18380D01*
X906172Y18285D01*
X906239Y18188D01*
X906303Y18088D01*
X906364Y17987D01*
X906421Y17884D01*
X906476Y17779D01*
X906526Y17672D01*
X906573Y17563D01*
X906616Y17453D01*
X906656Y17342D01*
X906692Y17230D01*
X906725Y17116D01*
X906754Y17001D01*
X906779Y16886D01*
X906800Y16769D01*
X906817Y16652D01*
X906831Y16535D01*
X906840Y16417D01*
X906846Y16299D01*
X906848Y16181D01*
X906848Y15278D01*
X906849Y15278D02*
X906847Y15145D01*
X906841Y15013D01*
X906831Y14881D01*
X906818Y14749D01*
X906800Y14617D01*
X906779Y14487D01*
X906754Y14356D01*
X906725Y14227D01*
X906692Y14099D01*
X906656Y13971D01*
X906616Y13845D01*
X906572Y13720D01*
X906524Y13596D01*
X906473Y13474D01*
X906418Y13353D01*
X906360Y13234D01*
X906298Y13116D01*
X906233Y13001D01*
X906164Y12887D01*
X906093Y12776D01*
X906017Y12667D01*
X905939Y12560D01*
X905858Y12455D01*
X905773Y12353D01*
X905686Y12253D01*
X905596Y12156D01*
X905503Y12061D01*
X905407Y11970D01*
X905309Y11881D01*
X905208Y11795D01*
X905104Y11712D01*
X904998Y11632D01*
X904890Y11556D01*
X904780Y11482D01*
X904667Y11412D01*
X904553Y11345D01*
X904436Y11282D01*
X904318Y11222D01*
X904198Y11165D01*
X904076Y11112D01*
X903953Y11063D01*
X903829Y11017D01*
X903703Y10975D01*
X903576Y10937D01*
X903448Y10902D01*
X903319Y10871D01*
X903190Y10844D01*
X903059Y10821D01*
X902928Y10801D01*
X902796Y10786D01*
X902664Y10774D01*
X902532Y10766D01*
X902399Y10762D01*
X902267Y10762D01*
X902134Y10766D01*
X902002Y10774D01*
X901870Y10786D01*
X901738Y10801D01*
X901607Y10821D01*
X901476Y10844D01*
X901347Y10871D01*
X901218Y10902D01*
X901090Y10937D01*
X900963Y10975D01*
X900837Y11017D01*
X900713Y11063D01*
X900590Y11112D01*
X900468Y11165D01*
X900348Y11222D01*
X900230Y11282D01*
X900113Y11345D01*
X899999Y11412D01*
X899886Y11482D01*
X899776Y11556D01*
X899668Y11632D01*
X899562Y11712D01*
X899458Y11795D01*
X899357Y11881D01*
X899259Y11970D01*
X899163Y12061D01*
X899070Y12156D01*
X898980Y12253D01*
X898893Y12353D01*
X898808Y12455D01*
X898727Y12560D01*
X898649Y12667D01*
X898573Y12776D01*
X898502Y12887D01*
X898433Y13001D01*
X898368Y13116D01*
X898306Y13234D01*
X898248Y13353D01*
X898193Y13474D01*
X898142Y13596D01*
X898094Y13720D01*
X898050Y13845D01*
X898010Y13971D01*
X897974Y14099D01*
X897941Y14227D01*
X897912Y14356D01*
X897887Y14487D01*
X897866Y14617D01*
X897848Y14749D01*
X897835Y14881D01*
X897825Y15013D01*
X897819Y15145D01*
X897817Y15278D01*
X897817Y19793D01*
X897819Y19970D01*
X897826Y20148D01*
X897837Y20325D01*
X897852Y20501D01*
X897871Y20677D01*
X897895Y20853D01*
X897923Y21028D01*
X897956Y21203D01*
X897993Y21376D01*
X898034Y21549D01*
X898079Y21720D01*
X898128Y21890D01*
X898182Y22059D01*
X898239Y22227D01*
X898301Y22393D01*
X898367Y22558D01*
X898437Y22721D01*
X898511Y22882D01*
X898588Y23041D01*
X898670Y23199D01*
X898756Y23354D01*
X898845Y23507D01*
X898938Y23658D01*
X899035Y23807D01*
X899135Y23953D01*
X899239Y24097D01*
X899346Y24238D01*
X899457Y24376D01*
X899571Y24512D01*
X899689Y24645D01*
X899809Y24775D01*
X899933Y24902D01*
X900060Y25026D01*
X900190Y25146D01*
X900323Y25264D01*
X900458Y25378D01*
X900597Y25489D01*
X900738Y25596D01*
X900882Y25700D01*
X901028Y25800D01*
X901177Y25897D01*
X901328Y25990D01*
X901481Y26079D01*
X901636Y26165D01*
X901794Y26247D01*
X901953Y26324D01*
X902114Y26398D01*
X902277Y26468D01*
X902442Y26534D01*
X902608Y26596D01*
X902776Y26653D01*
X902945Y26707D01*
X903115Y26756D01*
X903286Y26801D01*
X903459Y26842D01*
X903632Y26879D01*
X903807Y26912D01*
X903982Y26940D01*
X904158Y26964D01*
X904334Y26983D01*
X904510Y26998D01*
X904687Y27009D01*
X904865Y27016D01*
X905042Y27018D01*
X970762Y16181D02*
X981599Y16181D01*
X981599Y21599D02*
X970762Y21599D01*
X973471Y27018D02*
X973471Y10762D01*
X978890Y10762D02*
X978890Y27018D01*
X987817Y27018D02*
X987817Y25212D01*
X987817Y27018D02*
X996848Y27018D01*
X992333Y10762D01*
X1060762Y16181D02*
X1071599Y16181D01*
X1071599Y21599D02*
X1060762Y21599D01*
X1063471Y27018D02*
X1063471Y10762D01*
X1068890Y10762D02*
X1068890Y27018D01*
X1077817Y15278D02*
X1077819Y15411D01*
X1077825Y15543D01*
X1077835Y15675D01*
X1077848Y15807D01*
X1077866Y15939D01*
X1077887Y16069D01*
X1077912Y16200D01*
X1077941Y16329D01*
X1077974Y16457D01*
X1078010Y16585D01*
X1078050Y16711D01*
X1078094Y16836D01*
X1078142Y16960D01*
X1078193Y17082D01*
X1078248Y17203D01*
X1078306Y17322D01*
X1078368Y17440D01*
X1078433Y17555D01*
X1078502Y17669D01*
X1078573Y17780D01*
X1078649Y17889D01*
X1078727Y17996D01*
X1078808Y18101D01*
X1078893Y18203D01*
X1078980Y18303D01*
X1079070Y18400D01*
X1079163Y18495D01*
X1079259Y18586D01*
X1079357Y18675D01*
X1079458Y18761D01*
X1079562Y18844D01*
X1079668Y18924D01*
X1079776Y19000D01*
X1079886Y19074D01*
X1079999Y19144D01*
X1080113Y19211D01*
X1080230Y19274D01*
X1080348Y19334D01*
X1080468Y19391D01*
X1080590Y19444D01*
X1080713Y19493D01*
X1080837Y19539D01*
X1080963Y19581D01*
X1081090Y19619D01*
X1081218Y19654D01*
X1081347Y19685D01*
X1081476Y19712D01*
X1081607Y19735D01*
X1081738Y19755D01*
X1081870Y19770D01*
X1082002Y19782D01*
X1082134Y19790D01*
X1082267Y19794D01*
X1082399Y19794D01*
X1082532Y19790D01*
X1082664Y19782D01*
X1082796Y19770D01*
X1082928Y19755D01*
X1083059Y19735D01*
X1083190Y19712D01*
X1083319Y19685D01*
X1083448Y19654D01*
X1083576Y19619D01*
X1083703Y19581D01*
X1083829Y19539D01*
X1083953Y19493D01*
X1084076Y19444D01*
X1084198Y19391D01*
X1084318Y19334D01*
X1084436Y19274D01*
X1084553Y19211D01*
X1084667Y19144D01*
X1084780Y19074D01*
X1084890Y19000D01*
X1084998Y18924D01*
X1085104Y18844D01*
X1085208Y18761D01*
X1085309Y18675D01*
X1085407Y18586D01*
X1085503Y18495D01*
X1085596Y18400D01*
X1085686Y18303D01*
X1085773Y18203D01*
X1085858Y18101D01*
X1085939Y17996D01*
X1086017Y17889D01*
X1086093Y17780D01*
X1086164Y17669D01*
X1086233Y17555D01*
X1086298Y17440D01*
X1086360Y17322D01*
X1086418Y17203D01*
X1086473Y17082D01*
X1086524Y16960D01*
X1086572Y16836D01*
X1086616Y16711D01*
X1086656Y16585D01*
X1086692Y16457D01*
X1086725Y16329D01*
X1086754Y16200D01*
X1086779Y16069D01*
X1086800Y15939D01*
X1086818Y15807D01*
X1086831Y15675D01*
X1086841Y15543D01*
X1086847Y15411D01*
X1086849Y15278D01*
X1086847Y15145D01*
X1086841Y15013D01*
X1086831Y14881D01*
X1086818Y14749D01*
X1086800Y14617D01*
X1086779Y14487D01*
X1086754Y14356D01*
X1086725Y14227D01*
X1086692Y14099D01*
X1086656Y13971D01*
X1086616Y13845D01*
X1086572Y13720D01*
X1086524Y13596D01*
X1086473Y13474D01*
X1086418Y13353D01*
X1086360Y13234D01*
X1086298Y13116D01*
X1086233Y13001D01*
X1086164Y12887D01*
X1086093Y12776D01*
X1086017Y12667D01*
X1085939Y12560D01*
X1085858Y12455D01*
X1085773Y12353D01*
X1085686Y12253D01*
X1085596Y12156D01*
X1085503Y12061D01*
X1085407Y11970D01*
X1085309Y11881D01*
X1085208Y11795D01*
X1085104Y11712D01*
X1084998Y11632D01*
X1084890Y11556D01*
X1084780Y11482D01*
X1084667Y11412D01*
X1084553Y11345D01*
X1084436Y11282D01*
X1084318Y11222D01*
X1084198Y11165D01*
X1084076Y11112D01*
X1083953Y11063D01*
X1083829Y11017D01*
X1083703Y10975D01*
X1083576Y10937D01*
X1083448Y10902D01*
X1083319Y10871D01*
X1083190Y10844D01*
X1083059Y10821D01*
X1082928Y10801D01*
X1082796Y10786D01*
X1082664Y10774D01*
X1082532Y10766D01*
X1082399Y10762D01*
X1082267Y10762D01*
X1082134Y10766D01*
X1082002Y10774D01*
X1081870Y10786D01*
X1081738Y10801D01*
X1081607Y10821D01*
X1081476Y10844D01*
X1081347Y10871D01*
X1081218Y10902D01*
X1081090Y10937D01*
X1080963Y10975D01*
X1080837Y11017D01*
X1080713Y11063D01*
X1080590Y11112D01*
X1080468Y11165D01*
X1080348Y11222D01*
X1080230Y11282D01*
X1080113Y11345D01*
X1079999Y11412D01*
X1079886Y11482D01*
X1079776Y11556D01*
X1079668Y11632D01*
X1079562Y11712D01*
X1079458Y11795D01*
X1079357Y11881D01*
X1079259Y11970D01*
X1079163Y12061D01*
X1079070Y12156D01*
X1078980Y12253D01*
X1078893Y12353D01*
X1078808Y12455D01*
X1078727Y12560D01*
X1078649Y12667D01*
X1078573Y12776D01*
X1078502Y12887D01*
X1078433Y13001D01*
X1078368Y13116D01*
X1078306Y13234D01*
X1078248Y13353D01*
X1078193Y13474D01*
X1078142Y13596D01*
X1078094Y13720D01*
X1078050Y13845D01*
X1078010Y13971D01*
X1077974Y14099D01*
X1077941Y14227D01*
X1077912Y14356D01*
X1077887Y14487D01*
X1077866Y14617D01*
X1077848Y14749D01*
X1077835Y14881D01*
X1077825Y15013D01*
X1077819Y15145D01*
X1077817Y15278D01*
X1078721Y23406D02*
X1078723Y23525D01*
X1078729Y23645D01*
X1078739Y23764D01*
X1078753Y23882D01*
X1078770Y24001D01*
X1078792Y24118D01*
X1078817Y24235D01*
X1078847Y24350D01*
X1078880Y24465D01*
X1078917Y24579D01*
X1078957Y24691D01*
X1079002Y24802D01*
X1079050Y24911D01*
X1079101Y25019D01*
X1079156Y25125D01*
X1079215Y25229D01*
X1079277Y25331D01*
X1079342Y25431D01*
X1079411Y25529D01*
X1079483Y25625D01*
X1079558Y25718D01*
X1079635Y25808D01*
X1079716Y25896D01*
X1079800Y25981D01*
X1079887Y26063D01*
X1079976Y26143D01*
X1080068Y26219D01*
X1080162Y26293D01*
X1080259Y26363D01*
X1080357Y26430D01*
X1080458Y26494D01*
X1080562Y26554D01*
X1080667Y26611D01*
X1080774Y26664D01*
X1080882Y26714D01*
X1080992Y26760D01*
X1081104Y26802D01*
X1081217Y26841D01*
X1081331Y26876D01*
X1081446Y26907D01*
X1081563Y26935D01*
X1081680Y26958D01*
X1081797Y26978D01*
X1081916Y26994D01*
X1082035Y27006D01*
X1082154Y27014D01*
X1082273Y27018D01*
X1082393Y27018D01*
X1082512Y27014D01*
X1082631Y27006D01*
X1082750Y26994D01*
X1082869Y26978D01*
X1082986Y26958D01*
X1083103Y26935D01*
X1083220Y26907D01*
X1083335Y26876D01*
X1083449Y26841D01*
X1083562Y26802D01*
X1083674Y26760D01*
X1083784Y26714D01*
X1083892Y26664D01*
X1083999Y26611D01*
X1084104Y26554D01*
X1084208Y26494D01*
X1084309Y26430D01*
X1084407Y26363D01*
X1084504Y26293D01*
X1084598Y26219D01*
X1084690Y26143D01*
X1084779Y26063D01*
X1084866Y25981D01*
X1084950Y25896D01*
X1085031Y25808D01*
X1085108Y25718D01*
X1085183Y25625D01*
X1085255Y25529D01*
X1085324Y25431D01*
X1085389Y25331D01*
X1085451Y25229D01*
X1085510Y25125D01*
X1085565Y25019D01*
X1085616Y24911D01*
X1085664Y24802D01*
X1085709Y24691D01*
X1085749Y24579D01*
X1085786Y24465D01*
X1085819Y24350D01*
X1085849Y24235D01*
X1085874Y24118D01*
X1085896Y24001D01*
X1085913Y23882D01*
X1085927Y23764D01*
X1085937Y23645D01*
X1085943Y23525D01*
X1085945Y23406D01*
X1085943Y23287D01*
X1085937Y23167D01*
X1085927Y23048D01*
X1085913Y22930D01*
X1085896Y22811D01*
X1085874Y22694D01*
X1085849Y22577D01*
X1085819Y22462D01*
X1085786Y22347D01*
X1085749Y22233D01*
X1085709Y22121D01*
X1085664Y22010D01*
X1085616Y21901D01*
X1085565Y21793D01*
X1085510Y21687D01*
X1085451Y21583D01*
X1085389Y21481D01*
X1085324Y21381D01*
X1085255Y21283D01*
X1085183Y21187D01*
X1085108Y21094D01*
X1085031Y21004D01*
X1084950Y20916D01*
X1084866Y20831D01*
X1084779Y20749D01*
X1084690Y20669D01*
X1084598Y20593D01*
X1084504Y20519D01*
X1084407Y20449D01*
X1084309Y20382D01*
X1084208Y20318D01*
X1084104Y20258D01*
X1083999Y20201D01*
X1083892Y20148D01*
X1083784Y20098D01*
X1083674Y20052D01*
X1083562Y20010D01*
X1083449Y19971D01*
X1083335Y19936D01*
X1083220Y19905D01*
X1083103Y19877D01*
X1082986Y19854D01*
X1082869Y19834D01*
X1082750Y19818D01*
X1082631Y19806D01*
X1082512Y19798D01*
X1082393Y19794D01*
X1082273Y19794D01*
X1082154Y19798D01*
X1082035Y19806D01*
X1081916Y19818D01*
X1081797Y19834D01*
X1081680Y19854D01*
X1081563Y19877D01*
X1081446Y19905D01*
X1081331Y19936D01*
X1081217Y19971D01*
X1081104Y20010D01*
X1080992Y20052D01*
X1080882Y20098D01*
X1080774Y20148D01*
X1080667Y20201D01*
X1080562Y20258D01*
X1080458Y20318D01*
X1080357Y20382D01*
X1080259Y20449D01*
X1080162Y20519D01*
X1080068Y20593D01*
X1079976Y20669D01*
X1079887Y20749D01*
X1079800Y20831D01*
X1079716Y20916D01*
X1079635Y21004D01*
X1079558Y21094D01*
X1079483Y21187D01*
X1079411Y21283D01*
X1079342Y21381D01*
X1079277Y21481D01*
X1079215Y21583D01*
X1079156Y21687D01*
X1079101Y21793D01*
X1079050Y21901D01*
X1079002Y22010D01*
X1078957Y22121D01*
X1078917Y22233D01*
X1078880Y22347D01*
X1078847Y22462D01*
X1078817Y22577D01*
X1078792Y22694D01*
X1078770Y22811D01*
X1078753Y22930D01*
X1078739Y23048D01*
X1078729Y23167D01*
X1078723Y23287D01*
X1078721Y23406D01*
X19793Y189793D02*
X17084Y189793D01*
X19793Y189793D02*
X19793Y180762D01*
X14374Y180762D01*
X14256Y180764D01*
X14138Y180770D01*
X14020Y180779D01*
X13903Y180793D01*
X13786Y180810D01*
X13669Y180831D01*
X13554Y180856D01*
X13439Y180885D01*
X13325Y180918D01*
X13213Y180954D01*
X13102Y180994D01*
X12992Y181037D01*
X12883Y181084D01*
X12776Y181134D01*
X12671Y181189D01*
X12568Y181246D01*
X12467Y181307D01*
X12367Y181371D01*
X12270Y181438D01*
X12175Y181508D01*
X12083Y181582D01*
X11992Y181658D01*
X11905Y181738D01*
X11820Y181820D01*
X11738Y181905D01*
X11658Y181992D01*
X11582Y182083D01*
X11508Y182175D01*
X11438Y182270D01*
X11371Y182367D01*
X11307Y182467D01*
X11246Y182568D01*
X11189Y182671D01*
X11134Y182776D01*
X11084Y182883D01*
X11037Y182992D01*
X10994Y183102D01*
X10954Y183213D01*
X10918Y183325D01*
X10885Y183439D01*
X10856Y183554D01*
X10831Y183669D01*
X10810Y183786D01*
X10793Y183903D01*
X10779Y184020D01*
X10770Y184138D01*
X10764Y184256D01*
X10762Y184374D01*
X10762Y193406D01*
X10764Y193524D01*
X10770Y193642D01*
X10779Y193760D01*
X10793Y193877D01*
X10810Y193994D01*
X10831Y194111D01*
X10856Y194226D01*
X10885Y194341D01*
X10918Y194455D01*
X10954Y194567D01*
X10994Y194678D01*
X11037Y194788D01*
X11084Y194897D01*
X11134Y195004D01*
X11188Y195109D01*
X11246Y195212D01*
X11307Y195313D01*
X11371Y195413D01*
X11438Y195510D01*
X11508Y195605D01*
X11582Y195697D01*
X11658Y195788D01*
X11738Y195875D01*
X11820Y195960D01*
X11905Y196042D01*
X11992Y196122D01*
X12083Y196198D01*
X12175Y196272D01*
X12270Y196342D01*
X12367Y196409D01*
X12467Y196473D01*
X12568Y196534D01*
X12671Y196591D01*
X12776Y196645D01*
X12883Y196696D01*
X12992Y196743D01*
X13102Y196786D01*
X13213Y196826D01*
X13325Y196862D01*
X13439Y196895D01*
X13554Y196924D01*
X13669Y196949D01*
X13786Y196970D01*
X13903Y196987D01*
X14020Y197001D01*
X14138Y197010D01*
X14256Y197016D01*
X14374Y197018D01*
X19793Y197018D01*
X27435Y197018D02*
X27435Y180762D01*
X36466Y180762D02*
X27435Y197018D01*
X36466Y197018D02*
X36466Y180762D01*
X44109Y180762D02*
X44109Y197018D01*
X48624Y197018D01*
X48755Y197016D01*
X48887Y197010D01*
X49018Y197001D01*
X49148Y196987D01*
X49279Y196970D01*
X49408Y196949D01*
X49537Y196925D01*
X49665Y196896D01*
X49793Y196864D01*
X49919Y196828D01*
X50044Y196789D01*
X50169Y196746D01*
X50291Y196699D01*
X50413Y196649D01*
X50533Y196595D01*
X50651Y196538D01*
X50767Y196477D01*
X50882Y196413D01*
X50995Y196346D01*
X51106Y196275D01*
X51214Y196201D01*
X51321Y196124D01*
X51425Y196044D01*
X51527Y195961D01*
X51626Y195876D01*
X51723Y195787D01*
X51817Y195695D01*
X51909Y195601D01*
X51998Y195504D01*
X52083Y195405D01*
X52166Y195303D01*
X52246Y195199D01*
X52323Y195092D01*
X52397Y194984D01*
X52468Y194873D01*
X52535Y194760D01*
X52599Y194645D01*
X52660Y194529D01*
X52717Y194411D01*
X52771Y194291D01*
X52821Y194169D01*
X52868Y194047D01*
X52911Y193922D01*
X52950Y193797D01*
X52986Y193671D01*
X53018Y193543D01*
X53047Y193415D01*
X53071Y193286D01*
X53092Y193157D01*
X53109Y193026D01*
X53123Y192896D01*
X53132Y192765D01*
X53138Y192633D01*
X53140Y192502D01*
X53140Y185278D01*
X53138Y185147D01*
X53132Y185015D01*
X53123Y184884D01*
X53109Y184754D01*
X53092Y184623D01*
X53071Y184494D01*
X53047Y184365D01*
X53018Y184237D01*
X52986Y184109D01*
X52950Y183983D01*
X52911Y183858D01*
X52868Y183733D01*
X52821Y183611D01*
X52771Y183489D01*
X52717Y183369D01*
X52660Y183251D01*
X52599Y183135D01*
X52535Y183020D01*
X52468Y182907D01*
X52397Y182796D01*
X52323Y182688D01*
X52246Y182581D01*
X52166Y182477D01*
X52083Y182375D01*
X51998Y182276D01*
X51909Y182179D01*
X51817Y182085D01*
X51723Y181993D01*
X51626Y181904D01*
X51527Y181819D01*
X51425Y181736D01*
X51321Y181656D01*
X51214Y181579D01*
X51106Y181505D01*
X50995Y181434D01*
X50882Y181367D01*
X50767Y181303D01*
X50651Y181242D01*
X50533Y181185D01*
X50413Y181131D01*
X50291Y181081D01*
X50169Y181034D01*
X50044Y180991D01*
X49919Y180952D01*
X49793Y180916D01*
X49665Y180884D01*
X49537Y180855D01*
X49408Y180831D01*
X49278Y180810D01*
X49148Y180793D01*
X49018Y180779D01*
X48887Y180770D01*
X48755Y180764D01*
X48624Y180762D01*
X44109Y180762D01*
X10762Y117018D02*
X16181Y100762D01*
X21599Y117018D01*
X28028Y109793D02*
X32544Y109793D01*
X32544Y109794D02*
X32677Y109792D01*
X32809Y109786D01*
X32941Y109776D01*
X33073Y109763D01*
X33205Y109745D01*
X33335Y109724D01*
X33466Y109699D01*
X33595Y109670D01*
X33723Y109637D01*
X33851Y109601D01*
X33977Y109561D01*
X34102Y109517D01*
X34226Y109469D01*
X34348Y109418D01*
X34469Y109363D01*
X34588Y109305D01*
X34706Y109243D01*
X34821Y109178D01*
X34935Y109109D01*
X35046Y109038D01*
X35155Y108962D01*
X35262Y108884D01*
X35367Y108803D01*
X35469Y108718D01*
X35569Y108631D01*
X35666Y108541D01*
X35761Y108448D01*
X35852Y108352D01*
X35941Y108254D01*
X36027Y108153D01*
X36110Y108049D01*
X36190Y107943D01*
X36266Y107835D01*
X36340Y107725D01*
X36410Y107612D01*
X36477Y107498D01*
X36540Y107381D01*
X36600Y107263D01*
X36657Y107143D01*
X36710Y107021D01*
X36759Y106898D01*
X36805Y106774D01*
X36847Y106648D01*
X36885Y106521D01*
X36920Y106393D01*
X36951Y106264D01*
X36978Y106135D01*
X37001Y106004D01*
X37021Y105873D01*
X37036Y105741D01*
X37048Y105609D01*
X37056Y105477D01*
X37060Y105344D01*
X37060Y105212D01*
X37056Y105079D01*
X37048Y104947D01*
X37036Y104815D01*
X37021Y104683D01*
X37001Y104552D01*
X36978Y104421D01*
X36951Y104292D01*
X36920Y104163D01*
X36885Y104035D01*
X36847Y103908D01*
X36805Y103782D01*
X36759Y103658D01*
X36710Y103535D01*
X36657Y103413D01*
X36600Y103293D01*
X36540Y103175D01*
X36477Y103058D01*
X36410Y102944D01*
X36340Y102831D01*
X36266Y102721D01*
X36190Y102613D01*
X36110Y102507D01*
X36027Y102403D01*
X35941Y102302D01*
X35852Y102204D01*
X35761Y102108D01*
X35666Y102015D01*
X35569Y101925D01*
X35469Y101838D01*
X35367Y101753D01*
X35262Y101672D01*
X35155Y101594D01*
X35046Y101518D01*
X34935Y101447D01*
X34821Y101378D01*
X34706Y101313D01*
X34588Y101251D01*
X34469Y101193D01*
X34348Y101138D01*
X34226Y101087D01*
X34102Y101039D01*
X33977Y100995D01*
X33851Y100955D01*
X33723Y100919D01*
X33595Y100886D01*
X33466Y100857D01*
X33335Y100832D01*
X33205Y100811D01*
X33073Y100793D01*
X32941Y100780D01*
X32809Y100770D01*
X32677Y100764D01*
X32544Y100762D01*
X28028Y100762D01*
X28028Y117018D01*
X32544Y117018D01*
X32663Y117016D01*
X32783Y117010D01*
X32902Y117000D01*
X33020Y116986D01*
X33139Y116969D01*
X33256Y116947D01*
X33373Y116922D01*
X33488Y116892D01*
X33603Y116859D01*
X33717Y116822D01*
X33829Y116782D01*
X33940Y116737D01*
X34049Y116689D01*
X34157Y116638D01*
X34263Y116583D01*
X34367Y116524D01*
X34469Y116462D01*
X34569Y116397D01*
X34667Y116328D01*
X34763Y116256D01*
X34856Y116181D01*
X34946Y116104D01*
X35034Y116023D01*
X35119Y115939D01*
X35201Y115852D01*
X35281Y115763D01*
X35357Y115671D01*
X35431Y115577D01*
X35501Y115480D01*
X35568Y115382D01*
X35632Y115281D01*
X35692Y115177D01*
X35749Y115072D01*
X35802Y114965D01*
X35852Y114857D01*
X35898Y114747D01*
X35940Y114635D01*
X35979Y114522D01*
X36014Y114408D01*
X36045Y114293D01*
X36073Y114176D01*
X36096Y114059D01*
X36116Y113942D01*
X36132Y113823D01*
X36144Y113704D01*
X36152Y113585D01*
X36156Y113466D01*
X36156Y113346D01*
X36152Y113227D01*
X36144Y113108D01*
X36132Y112989D01*
X36116Y112870D01*
X36096Y112753D01*
X36073Y112636D01*
X36045Y112519D01*
X36014Y112404D01*
X35979Y112290D01*
X35940Y112177D01*
X35898Y112065D01*
X35852Y111955D01*
X35802Y111847D01*
X35749Y111740D01*
X35692Y111635D01*
X35632Y111531D01*
X35568Y111430D01*
X35501Y111332D01*
X35431Y111235D01*
X35357Y111141D01*
X35281Y111049D01*
X35201Y110960D01*
X35119Y110873D01*
X35034Y110789D01*
X34946Y110708D01*
X34856Y110631D01*
X34763Y110556D01*
X34667Y110484D01*
X34569Y110415D01*
X34469Y110350D01*
X34367Y110288D01*
X34263Y110229D01*
X34157Y110174D01*
X34049Y110123D01*
X33940Y110075D01*
X33829Y110030D01*
X33717Y109990D01*
X33603Y109953D01*
X33488Y109920D01*
X33373Y109890D01*
X33256Y109865D01*
X33139Y109843D01*
X33020Y109826D01*
X32902Y109812D01*
X32783Y109802D01*
X32663Y109796D01*
X32544Y109794D01*
X42025Y100762D02*
X47443Y117018D01*
X52862Y100762D01*
X51507Y104826D02*
X43379Y104826D01*
X62032Y100762D02*
X62032Y117018D01*
X57517Y117018D02*
X66548Y117018D01*
X75579Y117018D02*
X75579Y100762D01*
X71064Y117018D02*
X80095Y117018D01*
X740762Y82018D02*
X746181Y65762D01*
X751599Y82018D01*
X757296Y65762D02*
X762715Y65762D01*
X762833Y65764D01*
X762951Y65770D01*
X763069Y65779D01*
X763186Y65793D01*
X763303Y65810D01*
X763420Y65831D01*
X763535Y65856D01*
X763650Y65885D01*
X763764Y65918D01*
X763876Y65954D01*
X763987Y65994D01*
X764097Y66037D01*
X764206Y66084D01*
X764313Y66134D01*
X764418Y66189D01*
X764521Y66246D01*
X764622Y66307D01*
X764722Y66371D01*
X764819Y66438D01*
X764914Y66508D01*
X765006Y66582D01*
X765097Y66658D01*
X765184Y66738D01*
X765269Y66820D01*
X765351Y66905D01*
X765431Y66992D01*
X765507Y67083D01*
X765581Y67175D01*
X765651Y67270D01*
X765718Y67367D01*
X765782Y67467D01*
X765843Y67568D01*
X765900Y67671D01*
X765955Y67776D01*
X766005Y67883D01*
X766052Y67992D01*
X766095Y68102D01*
X766135Y68213D01*
X766171Y68325D01*
X766204Y68439D01*
X766233Y68554D01*
X766258Y68669D01*
X766279Y68786D01*
X766296Y68903D01*
X766310Y69020D01*
X766319Y69138D01*
X766325Y69256D01*
X766327Y69374D01*
X766327Y71181D01*
X766325Y71299D01*
X766319Y71417D01*
X766310Y71535D01*
X766296Y71652D01*
X766279Y71769D01*
X766258Y71886D01*
X766233Y72001D01*
X766204Y72116D01*
X766171Y72230D01*
X766135Y72342D01*
X766095Y72453D01*
X766052Y72563D01*
X766005Y72672D01*
X765955Y72779D01*
X765900Y72884D01*
X765843Y72987D01*
X765782Y73088D01*
X765718Y73188D01*
X765651Y73285D01*
X765581Y73380D01*
X765507Y73472D01*
X765431Y73563D01*
X765351Y73650D01*
X765269Y73735D01*
X765184Y73817D01*
X765097Y73897D01*
X765006Y73973D01*
X764914Y74047D01*
X764819Y74117D01*
X764722Y74184D01*
X764622Y74248D01*
X764521Y74309D01*
X764418Y74366D01*
X764313Y74421D01*
X764206Y74471D01*
X764097Y74518D01*
X763987Y74561D01*
X763876Y74601D01*
X763764Y74637D01*
X763650Y74670D01*
X763535Y74699D01*
X763420Y74724D01*
X763303Y74745D01*
X763186Y74762D01*
X763069Y74776D01*
X762951Y74785D01*
X762833Y74791D01*
X762715Y74793D01*
X757296Y74793D01*
X757296Y82018D01*
X766327Y82018D01*
X739793Y124793D02*
X737084Y124793D01*
X739793Y124793D02*
X739793Y115762D01*
X734374Y115762D01*
X734256Y115764D01*
X734138Y115770D01*
X734020Y115779D01*
X733903Y115793D01*
X733786Y115810D01*
X733669Y115831D01*
X733554Y115856D01*
X733439Y115885D01*
X733325Y115918D01*
X733213Y115954D01*
X733102Y115994D01*
X732992Y116037D01*
X732883Y116084D01*
X732776Y116134D01*
X732671Y116189D01*
X732568Y116246D01*
X732467Y116307D01*
X732367Y116371D01*
X732270Y116438D01*
X732175Y116508D01*
X732083Y116582D01*
X731992Y116658D01*
X731905Y116738D01*
X731820Y116820D01*
X731738Y116905D01*
X731658Y116992D01*
X731582Y117083D01*
X731508Y117175D01*
X731438Y117270D01*
X731371Y117367D01*
X731307Y117467D01*
X731246Y117568D01*
X731189Y117671D01*
X731134Y117776D01*
X731084Y117883D01*
X731037Y117992D01*
X730994Y118102D01*
X730954Y118213D01*
X730918Y118325D01*
X730885Y118439D01*
X730856Y118554D01*
X730831Y118669D01*
X730810Y118786D01*
X730793Y118903D01*
X730779Y119020D01*
X730770Y119138D01*
X730764Y119256D01*
X730762Y119374D01*
X730762Y128406D01*
X730764Y128524D01*
X730770Y128642D01*
X730779Y128760D01*
X730793Y128877D01*
X730810Y128994D01*
X730831Y129111D01*
X730856Y129226D01*
X730885Y129341D01*
X730918Y129455D01*
X730954Y129567D01*
X730994Y129678D01*
X731037Y129788D01*
X731084Y129897D01*
X731134Y130004D01*
X731188Y130109D01*
X731246Y130212D01*
X731307Y130313D01*
X731371Y130413D01*
X731438Y130510D01*
X731508Y130605D01*
X731582Y130697D01*
X731658Y130788D01*
X731738Y130875D01*
X731820Y130960D01*
X731905Y131042D01*
X731992Y131122D01*
X732083Y131198D01*
X732175Y131272D01*
X732270Y131342D01*
X732367Y131409D01*
X732467Y131473D01*
X732568Y131534D01*
X732671Y131591D01*
X732776Y131645D01*
X732883Y131696D01*
X732992Y131743D01*
X733102Y131786D01*
X733213Y131826D01*
X733325Y131862D01*
X733439Y131895D01*
X733554Y131924D01*
X733669Y131949D01*
X733786Y131970D01*
X733903Y131987D01*
X734020Y132001D01*
X734138Y132010D01*
X734256Y132016D01*
X734374Y132018D01*
X739793Y132018D01*
X747435Y132018D02*
X747435Y115762D01*
X756466Y115762D02*
X747435Y132018D01*
X756466Y132018D02*
X756466Y115762D01*
X764109Y115762D02*
X764109Y132018D01*
X768624Y132018D01*
X768755Y132016D01*
X768887Y132010D01*
X769018Y132001D01*
X769148Y131987D01*
X769279Y131970D01*
X769408Y131949D01*
X769537Y131925D01*
X769665Y131896D01*
X769793Y131864D01*
X769919Y131828D01*
X770044Y131789D01*
X770169Y131746D01*
X770291Y131699D01*
X770413Y131649D01*
X770533Y131595D01*
X770651Y131538D01*
X770767Y131477D01*
X770882Y131413D01*
X770995Y131346D01*
X771106Y131275D01*
X771214Y131201D01*
X771321Y131124D01*
X771425Y131044D01*
X771527Y130961D01*
X771626Y130876D01*
X771723Y130787D01*
X771817Y130695D01*
X771909Y130601D01*
X771998Y130504D01*
X772083Y130405D01*
X772166Y130303D01*
X772246Y130199D01*
X772323Y130092D01*
X772397Y129984D01*
X772468Y129873D01*
X772535Y129760D01*
X772599Y129645D01*
X772660Y129529D01*
X772717Y129411D01*
X772771Y129291D01*
X772821Y129169D01*
X772868Y129047D01*
X772911Y128922D01*
X772950Y128797D01*
X772986Y128671D01*
X773018Y128543D01*
X773047Y128415D01*
X773071Y128286D01*
X773092Y128157D01*
X773109Y128026D01*
X773123Y127896D01*
X773132Y127765D01*
X773138Y127633D01*
X773140Y127502D01*
X773140Y120278D01*
X773138Y120147D01*
X773132Y120015D01*
X773123Y119884D01*
X773109Y119754D01*
X773092Y119623D01*
X773071Y119494D01*
X773047Y119365D01*
X773018Y119237D01*
X772986Y119109D01*
X772950Y118983D01*
X772911Y118858D01*
X772868Y118733D01*
X772821Y118611D01*
X772771Y118489D01*
X772717Y118369D01*
X772660Y118251D01*
X772599Y118135D01*
X772535Y118020D01*
X772468Y117907D01*
X772397Y117796D01*
X772323Y117688D01*
X772246Y117581D01*
X772166Y117477D01*
X772083Y117375D01*
X771998Y117276D01*
X771909Y117179D01*
X771817Y117085D01*
X771723Y116993D01*
X771626Y116904D01*
X771527Y116819D01*
X771425Y116736D01*
X771321Y116656D01*
X771214Y116579D01*
X771106Y116505D01*
X770995Y116434D01*
X770882Y116367D01*
X770767Y116303D01*
X770651Y116242D01*
X770533Y116185D01*
X770413Y116131D01*
X770291Y116081D01*
X770169Y116034D01*
X770044Y115991D01*
X769919Y115952D01*
X769793Y115916D01*
X769665Y115884D01*
X769537Y115855D01*
X769408Y115831D01*
X769278Y115810D01*
X769148Y115793D01*
X769018Y115779D01*
X768887Y115770D01*
X768755Y115764D01*
X768624Y115762D01*
X764109Y115762D01*
X736181Y165762D02*
X736299Y165764D01*
X736417Y165770D01*
X736535Y165779D01*
X736652Y165793D01*
X736769Y165810D01*
X736886Y165831D01*
X737001Y165856D01*
X737116Y165885D01*
X737230Y165918D01*
X737342Y165954D01*
X737453Y165994D01*
X737563Y166037D01*
X737672Y166084D01*
X737779Y166134D01*
X737884Y166189D01*
X737987Y166246D01*
X738088Y166307D01*
X738188Y166371D01*
X738285Y166438D01*
X738380Y166508D01*
X738472Y166582D01*
X738563Y166658D01*
X738650Y166738D01*
X738735Y166820D01*
X738817Y166905D01*
X738897Y166992D01*
X738973Y167083D01*
X739047Y167175D01*
X739117Y167270D01*
X739184Y167367D01*
X739248Y167467D01*
X739309Y167568D01*
X739366Y167671D01*
X739421Y167776D01*
X739471Y167883D01*
X739518Y167992D01*
X739561Y168102D01*
X739601Y168213D01*
X739637Y168325D01*
X739670Y168439D01*
X739699Y168554D01*
X739724Y168669D01*
X739745Y168786D01*
X739762Y168903D01*
X739776Y169020D01*
X739785Y169138D01*
X739791Y169256D01*
X739793Y169374D01*
X736181Y165762D02*
X735998Y165764D01*
X735816Y165771D01*
X735634Y165782D01*
X735452Y165797D01*
X735270Y165817D01*
X735089Y165840D01*
X734909Y165869D01*
X734729Y165901D01*
X734550Y165938D01*
X734373Y165979D01*
X734196Y166025D01*
X734020Y166074D01*
X733846Y166128D01*
X733672Y166186D01*
X733501Y166248D01*
X733331Y166314D01*
X733162Y166385D01*
X732995Y166459D01*
X732830Y166537D01*
X732667Y166619D01*
X732506Y166705D01*
X732347Y166795D01*
X732190Y166889D01*
X732036Y166986D01*
X731884Y167087D01*
X731734Y167192D01*
X731587Y167300D01*
X731443Y167411D01*
X731301Y167526D01*
X731162Y167645D01*
X731026Y167767D01*
X730893Y167892D01*
X730763Y168020D01*
X731214Y178406D02*
X731216Y178524D01*
X731222Y178642D01*
X731231Y178760D01*
X731245Y178877D01*
X731262Y178994D01*
X731283Y179111D01*
X731308Y179226D01*
X731337Y179341D01*
X731370Y179455D01*
X731406Y179567D01*
X731446Y179678D01*
X731489Y179788D01*
X731536Y179897D01*
X731586Y180004D01*
X731641Y180109D01*
X731698Y180212D01*
X731759Y180313D01*
X731823Y180413D01*
X731890Y180510D01*
X731960Y180605D01*
X732034Y180697D01*
X732110Y180788D01*
X732190Y180875D01*
X732272Y180960D01*
X732357Y181042D01*
X732444Y181122D01*
X732535Y181198D01*
X732627Y181272D01*
X732722Y181342D01*
X732819Y181409D01*
X732919Y181473D01*
X733020Y181534D01*
X733123Y181592D01*
X733228Y181646D01*
X733335Y181696D01*
X733444Y181743D01*
X733554Y181787D01*
X733665Y181826D01*
X733778Y181862D01*
X733891Y181895D01*
X734006Y181924D01*
X734121Y181949D01*
X734238Y181970D01*
X734355Y181987D01*
X734472Y182001D01*
X734590Y182010D01*
X734708Y182016D01*
X734826Y182018D01*
X734987Y182016D01*
X735149Y182010D01*
X735310Y182001D01*
X735471Y181987D01*
X735631Y181970D01*
X735791Y181949D01*
X735951Y181924D01*
X736110Y181895D01*
X736268Y181863D01*
X736425Y181827D01*
X736581Y181787D01*
X736737Y181743D01*
X736891Y181695D01*
X737044Y181644D01*
X737196Y181590D01*
X737347Y181531D01*
X737496Y181470D01*
X737643Y181404D01*
X737789Y181335D01*
X737934Y181263D01*
X738076Y181187D01*
X738217Y181108D01*
X738356Y181026D01*
X738492Y180940D01*
X738627Y180851D01*
X738760Y180759D01*
X738890Y180663D01*
X733019Y175245D02*
X732918Y175307D01*
X732818Y175372D01*
X732721Y175441D01*
X732626Y175513D01*
X732533Y175587D01*
X732443Y175665D01*
X732355Y175746D01*
X732270Y175829D01*
X732188Y175915D01*
X732109Y176004D01*
X732032Y176095D01*
X731959Y176189D01*
X731888Y176285D01*
X731821Y176383D01*
X731757Y176483D01*
X731696Y176586D01*
X731639Y176690D01*
X731585Y176796D01*
X731535Y176904D01*
X731488Y177013D01*
X731444Y177124D01*
X731404Y177236D01*
X731368Y177350D01*
X731336Y177464D01*
X731307Y177580D01*
X731282Y177696D01*
X731261Y177813D01*
X731244Y177931D01*
X731230Y178049D01*
X731221Y178168D01*
X731215Y178287D01*
X731213Y178406D01*
X737987Y172535D02*
X738088Y172473D01*
X738188Y172408D01*
X738285Y172339D01*
X738380Y172267D01*
X738473Y172193D01*
X738563Y172115D01*
X738651Y172034D01*
X738736Y171951D01*
X738818Y171865D01*
X738897Y171776D01*
X738974Y171685D01*
X739047Y171591D01*
X739118Y171495D01*
X739185Y171397D01*
X739249Y171297D01*
X739310Y171194D01*
X739367Y171090D01*
X739421Y170984D01*
X739471Y170876D01*
X739518Y170767D01*
X739562Y170656D01*
X739602Y170544D01*
X739638Y170430D01*
X739670Y170316D01*
X739699Y170200D01*
X739724Y170084D01*
X739745Y169967D01*
X739762Y169849D01*
X739776Y169731D01*
X739785Y169612D01*
X739791Y169493D01*
X739793Y169374D01*
X737987Y172535D02*
X733020Y175245D01*
X746393Y182018D02*
X746393Y165762D01*
X746393Y182018D02*
X750909Y182018D01*
X751040Y182016D01*
X751172Y182010D01*
X751303Y182001D01*
X751433Y181987D01*
X751564Y181970D01*
X751693Y181949D01*
X751822Y181925D01*
X751950Y181896D01*
X752078Y181864D01*
X752204Y181828D01*
X752329Y181789D01*
X752454Y181746D01*
X752576Y181699D01*
X752698Y181649D01*
X752818Y181595D01*
X752936Y181538D01*
X753052Y181477D01*
X753167Y181413D01*
X753280Y181346D01*
X753391Y181275D01*
X753499Y181201D01*
X753606Y181124D01*
X753710Y181044D01*
X753812Y180961D01*
X753911Y180876D01*
X754008Y180787D01*
X754102Y180695D01*
X754194Y180601D01*
X754283Y180504D01*
X754368Y180405D01*
X754451Y180303D01*
X754531Y180199D01*
X754608Y180092D01*
X754682Y179984D01*
X754753Y179873D01*
X754820Y179760D01*
X754884Y179645D01*
X754945Y179529D01*
X755002Y179411D01*
X755056Y179291D01*
X755106Y179169D01*
X755153Y179047D01*
X755196Y178922D01*
X755235Y178797D01*
X755271Y178671D01*
X755303Y178543D01*
X755332Y178415D01*
X755356Y178286D01*
X755377Y178157D01*
X755394Y178026D01*
X755408Y177896D01*
X755417Y177765D01*
X755423Y177633D01*
X755425Y177502D01*
X755424Y177502D02*
X755424Y170278D01*
X755425Y170278D02*
X755423Y170147D01*
X755417Y170015D01*
X755408Y169884D01*
X755394Y169754D01*
X755377Y169623D01*
X755356Y169494D01*
X755332Y169365D01*
X755303Y169237D01*
X755271Y169109D01*
X755235Y168983D01*
X755196Y168858D01*
X755153Y168733D01*
X755106Y168611D01*
X755056Y168489D01*
X755002Y168369D01*
X754945Y168251D01*
X754884Y168135D01*
X754820Y168020D01*
X754753Y167907D01*
X754682Y167796D01*
X754608Y167688D01*
X754531Y167581D01*
X754451Y167477D01*
X754368Y167375D01*
X754283Y167276D01*
X754194Y167179D01*
X754102Y167085D01*
X754008Y166993D01*
X753911Y166904D01*
X753812Y166819D01*
X753710Y166736D01*
X753606Y166656D01*
X753499Y166579D01*
X753391Y166505D01*
X753280Y166434D01*
X753167Y166367D01*
X753052Y166303D01*
X752936Y166242D01*
X752818Y166185D01*
X752698Y166131D01*
X752576Y166081D01*
X752454Y166034D01*
X752329Y165991D01*
X752204Y165952D01*
X752078Y165916D01*
X751950Y165884D01*
X751822Y165855D01*
X751693Y165831D01*
X751563Y165810D01*
X751433Y165793D01*
X751303Y165779D01*
X751172Y165770D01*
X751040Y165764D01*
X750909Y165762D01*
X746393Y165762D01*
X761642Y165762D02*
X767061Y182018D01*
X772480Y165762D01*
X771125Y169826D02*
X762997Y169826D01*
X736181Y215762D02*
X736299Y215764D01*
X736417Y215770D01*
X736535Y215779D01*
X736652Y215793D01*
X736769Y215810D01*
X736886Y215831D01*
X737001Y215856D01*
X737116Y215885D01*
X737230Y215918D01*
X737342Y215954D01*
X737453Y215994D01*
X737563Y216037D01*
X737672Y216084D01*
X737779Y216134D01*
X737884Y216189D01*
X737987Y216246D01*
X738088Y216307D01*
X738188Y216371D01*
X738285Y216438D01*
X738380Y216508D01*
X738472Y216582D01*
X738563Y216658D01*
X738650Y216738D01*
X738735Y216820D01*
X738817Y216905D01*
X738897Y216992D01*
X738973Y217083D01*
X739047Y217175D01*
X739117Y217270D01*
X739184Y217367D01*
X739248Y217467D01*
X739309Y217568D01*
X739366Y217671D01*
X739421Y217776D01*
X739471Y217883D01*
X739518Y217992D01*
X739561Y218102D01*
X739601Y218213D01*
X739637Y218325D01*
X739670Y218439D01*
X739699Y218554D01*
X739724Y218669D01*
X739745Y218786D01*
X739762Y218903D01*
X739776Y219020D01*
X739785Y219138D01*
X739791Y219256D01*
X739793Y219374D01*
X736181Y215762D02*
X735998Y215764D01*
X735816Y215771D01*
X735634Y215782D01*
X735452Y215797D01*
X735270Y215817D01*
X735089Y215840D01*
X734909Y215869D01*
X734729Y215901D01*
X734550Y215938D01*
X734373Y215979D01*
X734196Y216025D01*
X734020Y216074D01*
X733846Y216128D01*
X733672Y216186D01*
X733501Y216248D01*
X733331Y216314D01*
X733162Y216385D01*
X732995Y216459D01*
X732830Y216537D01*
X732667Y216619D01*
X732506Y216705D01*
X732347Y216795D01*
X732190Y216889D01*
X732036Y216986D01*
X731884Y217087D01*
X731734Y217192D01*
X731587Y217300D01*
X731443Y217411D01*
X731301Y217526D01*
X731162Y217645D01*
X731026Y217767D01*
X730893Y217892D01*
X730763Y218020D01*
X731214Y228406D02*
X731216Y228524D01*
X731222Y228642D01*
X731231Y228760D01*
X731245Y228877D01*
X731262Y228994D01*
X731283Y229111D01*
X731308Y229226D01*
X731337Y229341D01*
X731370Y229455D01*
X731406Y229567D01*
X731446Y229678D01*
X731489Y229788D01*
X731536Y229897D01*
X731586Y230004D01*
X731641Y230109D01*
X731698Y230212D01*
X731759Y230313D01*
X731823Y230413D01*
X731890Y230510D01*
X731960Y230605D01*
X732034Y230697D01*
X732110Y230788D01*
X732190Y230875D01*
X732272Y230960D01*
X732357Y231042D01*
X732444Y231122D01*
X732535Y231198D01*
X732627Y231272D01*
X732722Y231342D01*
X732819Y231409D01*
X732919Y231473D01*
X733020Y231534D01*
X733123Y231592D01*
X733228Y231646D01*
X733335Y231696D01*
X733444Y231743D01*
X733554Y231787D01*
X733665Y231826D01*
X733778Y231862D01*
X733891Y231895D01*
X734006Y231924D01*
X734121Y231949D01*
X734238Y231970D01*
X734355Y231987D01*
X734472Y232001D01*
X734590Y232010D01*
X734708Y232016D01*
X734826Y232018D01*
X734987Y232016D01*
X735149Y232010D01*
X735310Y232001D01*
X735471Y231987D01*
X735631Y231970D01*
X735791Y231949D01*
X735951Y231924D01*
X736110Y231895D01*
X736268Y231863D01*
X736425Y231827D01*
X736581Y231787D01*
X736737Y231743D01*
X736891Y231695D01*
X737044Y231644D01*
X737196Y231590D01*
X737347Y231531D01*
X737496Y231470D01*
X737643Y231404D01*
X737789Y231335D01*
X737934Y231263D01*
X738076Y231187D01*
X738217Y231108D01*
X738356Y231026D01*
X738492Y230940D01*
X738627Y230851D01*
X738760Y230759D01*
X738890Y230663D01*
X733019Y225245D02*
X732918Y225307D01*
X732818Y225372D01*
X732721Y225441D01*
X732626Y225513D01*
X732533Y225587D01*
X732443Y225665D01*
X732355Y225746D01*
X732270Y225829D01*
X732188Y225915D01*
X732109Y226004D01*
X732032Y226095D01*
X731959Y226189D01*
X731888Y226285D01*
X731821Y226383D01*
X731757Y226483D01*
X731696Y226586D01*
X731639Y226690D01*
X731585Y226796D01*
X731535Y226904D01*
X731488Y227013D01*
X731444Y227124D01*
X731404Y227236D01*
X731368Y227350D01*
X731336Y227464D01*
X731307Y227580D01*
X731282Y227696D01*
X731261Y227813D01*
X731244Y227931D01*
X731230Y228049D01*
X731221Y228168D01*
X731215Y228287D01*
X731213Y228406D01*
X737987Y222535D02*
X738088Y222473D01*
X738188Y222408D01*
X738285Y222339D01*
X738380Y222267D01*
X738473Y222193D01*
X738563Y222115D01*
X738651Y222034D01*
X738736Y221951D01*
X738818Y221865D01*
X738897Y221776D01*
X738974Y221685D01*
X739047Y221591D01*
X739118Y221495D01*
X739185Y221397D01*
X739249Y221297D01*
X739310Y221194D01*
X739367Y221090D01*
X739421Y220984D01*
X739471Y220876D01*
X739518Y220767D01*
X739562Y220656D01*
X739602Y220544D01*
X739638Y220430D01*
X739670Y220316D01*
X739699Y220200D01*
X739724Y220084D01*
X739745Y219967D01*
X739762Y219849D01*
X739776Y219731D01*
X739785Y219612D01*
X739791Y219493D01*
X739793Y219374D01*
X737987Y222535D02*
X733020Y225245D01*
X749445Y215762D02*
X753058Y215762D01*
X749445Y215762D02*
X749327Y215764D01*
X749209Y215770D01*
X749091Y215779D01*
X748974Y215793D01*
X748857Y215810D01*
X748740Y215831D01*
X748625Y215856D01*
X748510Y215885D01*
X748396Y215918D01*
X748284Y215954D01*
X748173Y215994D01*
X748063Y216037D01*
X747954Y216084D01*
X747847Y216134D01*
X747742Y216189D01*
X747639Y216246D01*
X747538Y216307D01*
X747438Y216371D01*
X747341Y216438D01*
X747246Y216508D01*
X747154Y216582D01*
X747063Y216658D01*
X746976Y216738D01*
X746891Y216820D01*
X746809Y216905D01*
X746729Y216992D01*
X746653Y217083D01*
X746579Y217175D01*
X746509Y217270D01*
X746442Y217367D01*
X746378Y217467D01*
X746317Y217568D01*
X746260Y217671D01*
X746205Y217776D01*
X746155Y217883D01*
X746108Y217992D01*
X746065Y218102D01*
X746025Y218213D01*
X745989Y218325D01*
X745956Y218439D01*
X745927Y218554D01*
X745902Y218669D01*
X745881Y218786D01*
X745864Y218903D01*
X745850Y219020D01*
X745841Y219138D01*
X745835Y219256D01*
X745833Y219374D01*
X745833Y228406D01*
X745835Y228524D01*
X745841Y228642D01*
X745850Y228760D01*
X745864Y228877D01*
X745881Y228994D01*
X745902Y229111D01*
X745927Y229226D01*
X745956Y229341D01*
X745989Y229455D01*
X746025Y229567D01*
X746065Y229678D01*
X746108Y229788D01*
X746155Y229897D01*
X746205Y230004D01*
X746259Y230109D01*
X746317Y230212D01*
X746378Y230313D01*
X746442Y230413D01*
X746509Y230510D01*
X746579Y230605D01*
X746653Y230697D01*
X746729Y230788D01*
X746809Y230875D01*
X746891Y230960D01*
X746976Y231042D01*
X747063Y231122D01*
X747154Y231198D01*
X747246Y231272D01*
X747341Y231342D01*
X747438Y231409D01*
X747538Y231473D01*
X747639Y231534D01*
X747742Y231591D01*
X747847Y231645D01*
X747954Y231696D01*
X748063Y231743D01*
X748173Y231786D01*
X748284Y231826D01*
X748396Y231862D01*
X748510Y231895D01*
X748625Y231924D01*
X748740Y231949D01*
X748857Y231970D01*
X748974Y231987D01*
X749091Y232001D01*
X749209Y232010D01*
X749327Y232016D01*
X749445Y232018D01*
X753058Y232018D01*
X759449Y232018D02*
X759449Y215762D01*
X766674Y215762D01*
D11*
X387400Y266300D02*
X387400Y33700D01*
X304600Y58900D02*
X304600Y241100D01*
X329800Y266300D02*
X387400Y266300D01*
X387400Y33700D02*
X329800Y33700D01*
X304600Y241100D02*
X329800Y266300D01*
X304600Y58900D02*
X329800Y33700D01*
X1016100Y33700D02*
X1016100Y266300D01*
X933300Y241100D02*
X933300Y58900D01*
X958500Y266300D02*
X1016100Y266300D01*
X1016100Y33700D02*
X958500Y33700D01*
X933300Y241100D02*
X958500Y266300D01*
X933300Y58900D02*
X958500Y33700D01*
X477400Y33700D02*
X477400Y266300D01*
X394600Y241100D02*
X394600Y58900D01*
X419800Y266300D02*
X477400Y266300D01*
X477400Y33700D02*
X419800Y33700D01*
X394600Y241100D02*
X419800Y266300D01*
X394600Y58900D02*
X419800Y33700D01*
X1106100Y33700D02*
X1106100Y266300D01*
X1023300Y241100D02*
X1023300Y58900D01*
X1048500Y266300D02*
X1106100Y266300D01*
X1106100Y33700D02*
X1048500Y33700D01*
X1023300Y241100D02*
X1048500Y266300D01*
X1023300Y58900D02*
X1048500Y33700D01*
X567400Y33700D02*
X567400Y266300D01*
X484600Y241100D02*
X484600Y58900D01*
X509800Y266300D02*
X567400Y266300D01*
X567400Y33700D02*
X509800Y33700D01*
X484600Y241100D02*
X509800Y266300D01*
X484600Y58900D02*
X509800Y33700D01*
X835100Y33700D02*
X835100Y266300D01*
X752300Y241100D02*
X752300Y58900D01*
X777500Y266300D02*
X835100Y266300D01*
X835100Y33700D02*
X777500Y33700D01*
X752300Y241100D02*
X777500Y266300D01*
X752300Y58900D02*
X777500Y33700D01*
X743400Y33700D02*
X743400Y266300D01*
X660600Y241100D02*
X660600Y58900D01*
X685800Y266300D02*
X743400Y266300D01*
X743400Y33700D02*
X685800Y33700D01*
X660600Y241100D02*
X685800Y266300D01*
X660600Y58900D02*
X685800Y33700D01*
X926100Y33700D02*
X926100Y266300D01*
X843300Y241100D02*
X843300Y58900D01*
X868500Y266300D02*
X926100Y266300D01*
X926100Y33700D02*
X868500Y33700D01*
X843300Y241100D02*
X868500Y266300D01*
X843300Y58900D02*
X868500Y33700D01*
X-104000Y71000D02*
X-186000Y71000D01*
X-104000Y71000D02*
X-99700Y71000D01*
X-74300Y71000D02*
X60000Y71000D01*
X60000Y150000D01*
X60000Y229000D01*
X-74300Y229000D01*
X-99700Y229000D02*
X-104000Y229000D01*
X-186000Y229000D01*
X-186000Y150000D01*
D12*
X49896Y64995D02*
X49896Y49416D01*
X42107Y57205D02*
X57686Y57205D01*
D11*
X-186000Y71000D02*
X-186000Y150000D01*
X-74300Y150000D02*
X60000Y150000D01*
X-99700Y150000D02*
X-186000Y150000D01*
X-99700Y150000D02*
X-99696Y150312D01*
X-99685Y150623D01*
X-99666Y150934D01*
X-99639Y151245D01*
X-99604Y151555D01*
X-99563Y151863D01*
X-99513Y152171D01*
X-99456Y152478D01*
X-99391Y152783D01*
X-99319Y153086D01*
X-99240Y153387D01*
X-99153Y153687D01*
X-99059Y153984D01*
X-98958Y154279D01*
X-98849Y154571D01*
X-98733Y154860D01*
X-98610Y155147D01*
X-98481Y155430D01*
X-98344Y155710D01*
X-98200Y155987D01*
X-98050Y156260D01*
X-97893Y156529D01*
X-97730Y156794D01*
X-97560Y157056D01*
X-97383Y157313D01*
X-97201Y157565D01*
X-97012Y157813D01*
X-96817Y158057D01*
X-96617Y158295D01*
X-96410Y158529D01*
X-96198Y158757D01*
X-95980Y158980D01*
X-95757Y159198D01*
X-95529Y159410D01*
X-95295Y159617D01*
X-95057Y159817D01*
X-94813Y160012D01*
X-94565Y160201D01*
X-94313Y160383D01*
X-94056Y160560D01*
X-93794Y160730D01*
X-93529Y160893D01*
X-93260Y161050D01*
X-92987Y161200D01*
X-92710Y161344D01*
X-92430Y161481D01*
X-92147Y161610D01*
X-91860Y161733D01*
X-91571Y161849D01*
X-91279Y161958D01*
X-90984Y162059D01*
X-90687Y162153D01*
X-90387Y162240D01*
X-90086Y162319D01*
X-89783Y162391D01*
X-89478Y162456D01*
X-89171Y162513D01*
X-88863Y162563D01*
X-88555Y162604D01*
X-88245Y162639D01*
X-87934Y162666D01*
X-87623Y162685D01*
X-87312Y162696D01*
X-87000Y162700D01*
X-86688Y162696D01*
X-86377Y162685D01*
X-86066Y162666D01*
X-85755Y162639D01*
X-85445Y162604D01*
X-85137Y162563D01*
X-84829Y162513D01*
X-84522Y162456D01*
X-84217Y162391D01*
X-83914Y162319D01*
X-83613Y162240D01*
X-83313Y162153D01*
X-83016Y162059D01*
X-82721Y161958D01*
X-82429Y161849D01*
X-82140Y161733D01*
X-81853Y161610D01*
X-81570Y161481D01*
X-81290Y161344D01*
X-81013Y161200D01*
X-80740Y161050D01*
X-80471Y160893D01*
X-80206Y160730D01*
X-79944Y160560D01*
X-79687Y160383D01*
X-79435Y160201D01*
X-79187Y160012D01*
X-78943Y159817D01*
X-78705Y159617D01*
X-78471Y159410D01*
X-78243Y159198D01*
X-78020Y158980D01*
X-77802Y158757D01*
X-77590Y158529D01*
X-77383Y158295D01*
X-77183Y158057D01*
X-76988Y157813D01*
X-76799Y157565D01*
X-76617Y157313D01*
X-76440Y157056D01*
X-76270Y156794D01*
X-76107Y156529D01*
X-75950Y156260D01*
X-75800Y155987D01*
X-75656Y155710D01*
X-75519Y155430D01*
X-75390Y155147D01*
X-75267Y154860D01*
X-75151Y154571D01*
X-75042Y154279D01*
X-74941Y153984D01*
X-74847Y153687D01*
X-74760Y153387D01*
X-74681Y153086D01*
X-74609Y152783D01*
X-74544Y152478D01*
X-74487Y152171D01*
X-74437Y151863D01*
X-74396Y151555D01*
X-74361Y151245D01*
X-74334Y150934D01*
X-74315Y150623D01*
X-74304Y150312D01*
X-74300Y150000D01*
X-74304Y149688D01*
X-74315Y149377D01*
X-74334Y149066D01*
X-74361Y148755D01*
X-74396Y148445D01*
X-74437Y148137D01*
X-74487Y147829D01*
X-74544Y147522D01*
X-74609Y147217D01*
X-74681Y146914D01*
X-74760Y146613D01*
X-74847Y146313D01*
X-74941Y146016D01*
X-75042Y145721D01*
X-75151Y145429D01*
X-75267Y145140D01*
X-75390Y144853D01*
X-75519Y144570D01*
X-75656Y144290D01*
X-75800Y144013D01*
X-75950Y143740D01*
X-76107Y143471D01*
X-76270Y143206D01*
X-76440Y142944D01*
X-76617Y142687D01*
X-76799Y142435D01*
X-76988Y142187D01*
X-77183Y141943D01*
X-77383Y141705D01*
X-77590Y141471D01*
X-77802Y141243D01*
X-78020Y141020D01*
X-78243Y140802D01*
X-78471Y140590D01*
X-78705Y140383D01*
X-78943Y140183D01*
X-79187Y139988D01*
X-79435Y139799D01*
X-79687Y139617D01*
X-79944Y139440D01*
X-80206Y139270D01*
X-80471Y139107D01*
X-80740Y138950D01*
X-81013Y138800D01*
X-81290Y138656D01*
X-81570Y138519D01*
X-81853Y138390D01*
X-82140Y138267D01*
X-82429Y138151D01*
X-82721Y138042D01*
X-83016Y137941D01*
X-83313Y137847D01*
X-83613Y137760D01*
X-83914Y137681D01*
X-84217Y137609D01*
X-84522Y137544D01*
X-84829Y137487D01*
X-85137Y137437D01*
X-85445Y137396D01*
X-85755Y137361D01*
X-86066Y137334D01*
X-86377Y137315D01*
X-86688Y137304D01*
X-87000Y137300D01*
X-87312Y137304D01*
X-87623Y137315D01*
X-87934Y137334D01*
X-88245Y137361D01*
X-88555Y137396D01*
X-88863Y137437D01*
X-89171Y137487D01*
X-89478Y137544D01*
X-89783Y137609D01*
X-90086Y137681D01*
X-90387Y137760D01*
X-90687Y137847D01*
X-90984Y137941D01*
X-91279Y138042D01*
X-91571Y138151D01*
X-91860Y138267D01*
X-92147Y138390D01*
X-92430Y138519D01*
X-92710Y138656D01*
X-92987Y138800D01*
X-93260Y138950D01*
X-93529Y139107D01*
X-93794Y139270D01*
X-94056Y139440D01*
X-94313Y139617D01*
X-94565Y139799D01*
X-94813Y139988D01*
X-95057Y140183D01*
X-95295Y140383D01*
X-95529Y140590D01*
X-95757Y140802D01*
X-95980Y141020D01*
X-96198Y141243D01*
X-96410Y141471D01*
X-96617Y141705D01*
X-96817Y141943D01*
X-97012Y142187D01*
X-97201Y142435D01*
X-97383Y142687D01*
X-97560Y142944D01*
X-97730Y143206D01*
X-97893Y143471D01*
X-98050Y143740D01*
X-98200Y144013D01*
X-98344Y144290D01*
X-98481Y144570D01*
X-98610Y144853D01*
X-98733Y145140D01*
X-98849Y145429D01*
X-98958Y145721D01*
X-99059Y146016D01*
X-99153Y146313D01*
X-99240Y146613D01*
X-99319Y146914D01*
X-99391Y147217D01*
X-99456Y147522D01*
X-99513Y147829D01*
X-99563Y148137D01*
X-99604Y148445D01*
X-99639Y148755D01*
X-99666Y149066D01*
X-99685Y149377D01*
X-99696Y149688D01*
X-99700Y150000D01*
X-99700Y71000D02*
X-99696Y71309D01*
X-99685Y71618D01*
X-99666Y71927D01*
X-99640Y72235D01*
X-99606Y72543D01*
X-99565Y72849D01*
X-99516Y73155D01*
X-99460Y73459D01*
X-99396Y73761D01*
X-99325Y74062D01*
X-99247Y74362D01*
X-99162Y74659D01*
X-99069Y74954D01*
X-98969Y75247D01*
X-98862Y75537D01*
X-98748Y75824D01*
X-98627Y76109D01*
X-98499Y76391D01*
X-98365Y76669D01*
X-98223Y76944D01*
X-98075Y77216D01*
X-97920Y77483D01*
X-97759Y77747D01*
X-97592Y78007D01*
X-97418Y78263D01*
X-97238Y78515D01*
X-97052Y78762D01*
X-96860Y79004D01*
X-96662Y79242D01*
X-96459Y79475D01*
X-96249Y79703D01*
X-96035Y79925D01*
X-95815Y80143D01*
X-95589Y80355D01*
X-95359Y80561D01*
X-95124Y80762D01*
X-94884Y80957D01*
X-94639Y81146D01*
X-94390Y81329D01*
X-94136Y81506D01*
X-93878Y81676D01*
X-93616Y81841D01*
X-93350Y81999D01*
X-93080Y82150D01*
X-92807Y82295D01*
X-92530Y82433D01*
X-92250Y82564D01*
X-91967Y82688D01*
X-91681Y82806D01*
X-91392Y82916D01*
X-91101Y83020D01*
X-90807Y83116D01*
X-90511Y83205D01*
X-90212Y83287D01*
X-89912Y83362D01*
X-89610Y83429D01*
X-89307Y83489D01*
X-89002Y83541D01*
X-88696Y83586D01*
X-88389Y83624D01*
X-88081Y83654D01*
X-87773Y83676D01*
X-87464Y83692D01*
X-87155Y83699D01*
X-86845Y83699D01*
X-86536Y83692D01*
X-86227Y83676D01*
X-85919Y83654D01*
X-85611Y83624D01*
X-85304Y83586D01*
X-84998Y83541D01*
X-84693Y83489D01*
X-84390Y83429D01*
X-84088Y83362D01*
X-83788Y83287D01*
X-83489Y83205D01*
X-83193Y83116D01*
X-82899Y83020D01*
X-82608Y82916D01*
X-82319Y82806D01*
X-82033Y82688D01*
X-81750Y82564D01*
X-81470Y82433D01*
X-81193Y82295D01*
X-80920Y82150D01*
X-80650Y81999D01*
X-80384Y81841D01*
X-80122Y81676D01*
X-79864Y81506D01*
X-79610Y81329D01*
X-79361Y81146D01*
X-79116Y80957D01*
X-78876Y80762D01*
X-78641Y80561D01*
X-78411Y80355D01*
X-78185Y80143D01*
X-77965Y79925D01*
X-77751Y79703D01*
X-77541Y79475D01*
X-77338Y79242D01*
X-77140Y79004D01*
X-76948Y78762D01*
X-76762Y78515D01*
X-76582Y78263D01*
X-76408Y78007D01*
X-76241Y77747D01*
X-76080Y77483D01*
X-75925Y77216D01*
X-75777Y76944D01*
X-75635Y76669D01*
X-75501Y76391D01*
X-75373Y76109D01*
X-75252Y75824D01*
X-75138Y75537D01*
X-75031Y75247D01*
X-74931Y74954D01*
X-74838Y74659D01*
X-74753Y74362D01*
X-74675Y74062D01*
X-74604Y73761D01*
X-74540Y73459D01*
X-74484Y73155D01*
X-74435Y72849D01*
X-74394Y72543D01*
X-74360Y72235D01*
X-74334Y71927D01*
X-74315Y71618D01*
X-74304Y71309D01*
X-74300Y71000D01*
X-74300Y229000D02*
X-74304Y228691D01*
X-74315Y228382D01*
X-74334Y228073D01*
X-74360Y227765D01*
X-74394Y227457D01*
X-74435Y227151D01*
X-74484Y226845D01*
X-74540Y226541D01*
X-74604Y226239D01*
X-74675Y225938D01*
X-74753Y225638D01*
X-74838Y225341D01*
X-74931Y225046D01*
X-75031Y224753D01*
X-75138Y224463D01*
X-75252Y224176D01*
X-75373Y223891D01*
X-75501Y223609D01*
X-75635Y223331D01*
X-75777Y223056D01*
X-75925Y222784D01*
X-76080Y222517D01*
X-76241Y222253D01*
X-76408Y221993D01*
X-76582Y221737D01*
X-76762Y221485D01*
X-76948Y221238D01*
X-77140Y220996D01*
X-77338Y220758D01*
X-77541Y220525D01*
X-77751Y220297D01*
X-77965Y220075D01*
X-78185Y219857D01*
X-78411Y219645D01*
X-78641Y219439D01*
X-78876Y219238D01*
X-79116Y219043D01*
X-79361Y218854D01*
X-79610Y218671D01*
X-79864Y218494D01*
X-80122Y218324D01*
X-80384Y218159D01*
X-80650Y218001D01*
X-80920Y217850D01*
X-81193Y217705D01*
X-81470Y217567D01*
X-81750Y217436D01*
X-82033Y217312D01*
X-82319Y217194D01*
X-82608Y217084D01*
X-82899Y216980D01*
X-83193Y216884D01*
X-83489Y216795D01*
X-83788Y216713D01*
X-84088Y216638D01*
X-84390Y216571D01*
X-84693Y216511D01*
X-84998Y216459D01*
X-85304Y216414D01*
X-85611Y216376D01*
X-85919Y216346D01*
X-86227Y216324D01*
X-86536Y216308D01*
X-86845Y216301D01*
X-87155Y216301D01*
X-87464Y216308D01*
X-87773Y216324D01*
X-88081Y216346D01*
X-88389Y216376D01*
X-88696Y216414D01*
X-89002Y216459D01*
X-89307Y216511D01*
X-89610Y216571D01*
X-89912Y216638D01*
X-90212Y216713D01*
X-90511Y216795D01*
X-90807Y216884D01*
X-91101Y216980D01*
X-91392Y217084D01*
X-91681Y217194D01*
X-91967Y217312D01*
X-92250Y217436D01*
X-92530Y217567D01*
X-92807Y217705D01*
X-93080Y217850D01*
X-93350Y218001D01*
X-93616Y218159D01*
X-93878Y218324D01*
X-94136Y218494D01*
X-94390Y218671D01*
X-94639Y218854D01*
X-94884Y219043D01*
X-95124Y219238D01*
X-95359Y219439D01*
X-95589Y219645D01*
X-95815Y219857D01*
X-96035Y220075D01*
X-96249Y220297D01*
X-96459Y220525D01*
X-96662Y220758D01*
X-96860Y220996D01*
X-97052Y221238D01*
X-97238Y221485D01*
X-97418Y221737D01*
X-97592Y221993D01*
X-97759Y222253D01*
X-97920Y222517D01*
X-98075Y222784D01*
X-98223Y223056D01*
X-98365Y223331D01*
X-98499Y223609D01*
X-98627Y223891D01*
X-98748Y224176D01*
X-98862Y224463D01*
X-98969Y224753D01*
X-99069Y225046D01*
X-99162Y225341D01*
X-99247Y225638D01*
X-99325Y225938D01*
X-99396Y226239D01*
X-99460Y226541D01*
X-99516Y226845D01*
X-99565Y227151D01*
X-99606Y227457D01*
X-99640Y227765D01*
X-99666Y228073D01*
X-99685Y228382D01*
X-99696Y228691D01*
X-99700Y229000D01*
X-104000Y229000D02*
X-104000Y71000D01*
D10*
X617000Y194000D02*
X623000Y194000D01*
X623000Y206000D02*
X617000Y206000D01*
D13*
X621740Y191618D02*
X621740Y187808D01*
X621740Y191618D02*
X622798Y191618D01*
X622862Y191616D01*
X622926Y191610D01*
X622989Y191601D01*
X623051Y191587D01*
X623113Y191570D01*
X623173Y191549D01*
X623232Y191525D01*
X623290Y191497D01*
X623345Y191465D01*
X623399Y191431D01*
X623450Y191393D01*
X623500Y191352D01*
X623546Y191308D01*
X623590Y191262D01*
X623631Y191212D01*
X623669Y191161D01*
X623703Y191107D01*
X623735Y191052D01*
X623763Y190994D01*
X623787Y190935D01*
X623808Y190875D01*
X623825Y190813D01*
X623839Y190751D01*
X623848Y190688D01*
X623854Y190624D01*
X623856Y190560D01*
X623854Y190496D01*
X623848Y190432D01*
X623839Y190369D01*
X623825Y190307D01*
X623808Y190245D01*
X623787Y190185D01*
X623763Y190126D01*
X623735Y190068D01*
X623703Y190013D01*
X623669Y189959D01*
X623631Y189908D01*
X623590Y189858D01*
X623546Y189812D01*
X623500Y189768D01*
X623450Y189727D01*
X623399Y189689D01*
X623345Y189655D01*
X623290Y189623D01*
X623232Y189595D01*
X623173Y189571D01*
X623113Y189550D01*
X623051Y189533D01*
X622989Y189519D01*
X622926Y189510D01*
X622862Y189504D01*
X622798Y189502D01*
X622798Y189501D02*
X621740Y189501D01*
X623010Y189501D02*
X623856Y187808D01*
X625376Y190771D02*
X626435Y191618D01*
X626435Y187808D01*
X627493Y187808D02*
X625376Y187808D01*
D10*
X623000Y149000D02*
X617000Y149000D01*
X617000Y161000D02*
X623000Y161000D01*
D13*
X621740Y146618D02*
X621740Y142808D01*
X621740Y146618D02*
X622798Y146618D01*
X622862Y146616D01*
X622926Y146610D01*
X622989Y146601D01*
X623051Y146587D01*
X623113Y146570D01*
X623173Y146549D01*
X623232Y146525D01*
X623290Y146497D01*
X623345Y146465D01*
X623399Y146431D01*
X623450Y146393D01*
X623500Y146352D01*
X623546Y146308D01*
X623590Y146262D01*
X623631Y146212D01*
X623669Y146161D01*
X623703Y146107D01*
X623735Y146052D01*
X623763Y145994D01*
X623787Y145935D01*
X623808Y145875D01*
X623825Y145813D01*
X623839Y145751D01*
X623848Y145688D01*
X623854Y145624D01*
X623856Y145560D01*
X623854Y145496D01*
X623848Y145432D01*
X623839Y145369D01*
X623825Y145307D01*
X623808Y145245D01*
X623787Y145185D01*
X623763Y145126D01*
X623735Y145068D01*
X623703Y145013D01*
X623669Y144959D01*
X623631Y144908D01*
X623590Y144858D01*
X623546Y144812D01*
X623500Y144768D01*
X623450Y144727D01*
X623399Y144689D01*
X623345Y144655D01*
X623290Y144623D01*
X623232Y144595D01*
X623173Y144571D01*
X623113Y144550D01*
X623051Y144533D01*
X622989Y144519D01*
X622926Y144510D01*
X622862Y144504D01*
X622798Y144502D01*
X622798Y144501D02*
X621740Y144501D01*
X623010Y144501D02*
X623856Y142808D01*
X627494Y145666D02*
X627492Y145726D01*
X627486Y145785D01*
X627477Y145845D01*
X627464Y145903D01*
X627447Y145960D01*
X627427Y146017D01*
X627403Y146072D01*
X627376Y146125D01*
X627346Y146177D01*
X627312Y146226D01*
X627275Y146273D01*
X627236Y146318D01*
X627193Y146361D01*
X627148Y146400D01*
X627101Y146437D01*
X627052Y146471D01*
X627000Y146501D01*
X626947Y146528D01*
X626892Y146552D01*
X626835Y146572D01*
X626778Y146589D01*
X626720Y146602D01*
X626660Y146611D01*
X626601Y146617D01*
X626541Y146619D01*
X626541Y146618D02*
X626474Y146616D01*
X626407Y146611D01*
X626341Y146602D01*
X626275Y146589D01*
X626211Y146573D01*
X626147Y146553D01*
X626084Y146529D01*
X626022Y146503D01*
X625963Y146473D01*
X625905Y146440D01*
X625848Y146403D01*
X625794Y146364D01*
X625742Y146322D01*
X625693Y146277D01*
X625646Y146229D01*
X625602Y146179D01*
X625560Y146126D01*
X625522Y146071D01*
X625486Y146015D01*
X625454Y145956D01*
X625425Y145896D01*
X625399Y145834D01*
X625377Y145771D01*
X627176Y144925D02*
X627217Y144967D01*
X627256Y145012D01*
X627293Y145058D01*
X627327Y145107D01*
X627358Y145157D01*
X627385Y145209D01*
X627410Y145263D01*
X627432Y145318D01*
X627451Y145374D01*
X627466Y145431D01*
X627478Y145489D01*
X627486Y145548D01*
X627491Y145607D01*
X627493Y145666D01*
X627176Y144925D02*
X625376Y142808D01*
X627493Y142808D01*
D10*
X78250Y239600D02*
X71900Y245950D01*
X90950Y239600D02*
X97300Y245950D01*
X103650Y239600D01*
X116350Y239600D02*
X122700Y245950D01*
X71900Y245950D02*
X71900Y284050D01*
X78250Y290400D01*
X90950Y290400D01*
X97300Y284050D01*
X103650Y290400D01*
X116350Y290400D01*
X122700Y284050D01*
X97300Y284050D02*
X97300Y245950D01*
X122700Y245950D02*
X122700Y284050D01*
X116350Y239600D02*
X103650Y239600D01*
X90950Y239600D02*
X78250Y239600D01*
X122700Y245950D02*
X129050Y239600D01*
X141750Y239600D02*
X148100Y245950D01*
X122700Y284050D02*
X129050Y290400D01*
X141750Y290400D01*
X148100Y284050D01*
X148100Y245950D01*
X141750Y239600D02*
X129050Y239600D01*
D11*
X76345Y299925D02*
X76345Y308815D01*
X76345Y299925D02*
X76343Y299825D01*
X76337Y299726D01*
X76327Y299626D01*
X76314Y299528D01*
X76296Y299429D01*
X76275Y299332D01*
X76250Y299236D01*
X76221Y299140D01*
X76188Y299046D01*
X76152Y298953D01*
X76112Y298862D01*
X76068Y298772D01*
X76021Y298684D01*
X75971Y298598D01*
X75917Y298514D01*
X75860Y298432D01*
X75800Y298353D01*
X75736Y298275D01*
X75670Y298201D01*
X75601Y298129D01*
X75529Y298060D01*
X75455Y297994D01*
X75377Y297930D01*
X75298Y297870D01*
X75216Y297813D01*
X75132Y297759D01*
X75046Y297709D01*
X74958Y297662D01*
X74868Y297618D01*
X74777Y297578D01*
X74684Y297542D01*
X74590Y297509D01*
X74494Y297480D01*
X74398Y297455D01*
X74301Y297434D01*
X74202Y297416D01*
X74104Y297403D01*
X74004Y297393D01*
X73905Y297387D01*
X73805Y297385D01*
X72535Y297385D01*
X82325Y297385D02*
X82325Y308815D01*
X85500Y308815D01*
X85611Y308813D01*
X85721Y308807D01*
X85832Y308798D01*
X85942Y308784D01*
X86051Y308767D01*
X86160Y308746D01*
X86268Y308721D01*
X86375Y308692D01*
X86481Y308660D01*
X86586Y308624D01*
X86689Y308584D01*
X86791Y308541D01*
X86892Y308494D01*
X86991Y308443D01*
X87088Y308390D01*
X87182Y308333D01*
X87275Y308272D01*
X87366Y308209D01*
X87455Y308142D01*
X87541Y308072D01*
X87624Y307999D01*
X87706Y307924D01*
X87784Y307846D01*
X87859Y307764D01*
X87932Y307681D01*
X88002Y307595D01*
X88069Y307506D01*
X88132Y307415D01*
X88193Y307322D01*
X88250Y307227D01*
X88303Y307131D01*
X88354Y307032D01*
X88401Y306931D01*
X88444Y306829D01*
X88484Y306726D01*
X88520Y306621D01*
X88552Y306515D01*
X88581Y306408D01*
X88606Y306300D01*
X88627Y306191D01*
X88644Y306082D01*
X88658Y305972D01*
X88667Y305861D01*
X88673Y305751D01*
X88675Y305640D01*
X88673Y305529D01*
X88667Y305419D01*
X88658Y305308D01*
X88644Y305198D01*
X88627Y305089D01*
X88606Y304980D01*
X88581Y304872D01*
X88552Y304765D01*
X88520Y304659D01*
X88484Y304554D01*
X88444Y304451D01*
X88401Y304349D01*
X88354Y304248D01*
X88303Y304149D01*
X88250Y304052D01*
X88193Y303958D01*
X88132Y303865D01*
X88069Y303774D01*
X88002Y303685D01*
X87932Y303599D01*
X87859Y303516D01*
X87784Y303434D01*
X87706Y303356D01*
X87624Y303281D01*
X87541Y303208D01*
X87455Y303138D01*
X87366Y303071D01*
X87275Y303008D01*
X87182Y302947D01*
X87087Y302890D01*
X86991Y302837D01*
X86892Y302786D01*
X86791Y302739D01*
X86689Y302696D01*
X86586Y302656D01*
X86481Y302620D01*
X86375Y302588D01*
X86268Y302559D01*
X86160Y302534D01*
X86051Y302513D01*
X85942Y302496D01*
X85832Y302482D01*
X85721Y302473D01*
X85611Y302467D01*
X85500Y302465D01*
X82325Y302465D01*
X96676Y308816D02*
X96780Y308814D01*
X96885Y308808D01*
X96989Y308799D01*
X97092Y308786D01*
X97195Y308768D01*
X97297Y308748D01*
X97399Y308723D01*
X97499Y308695D01*
X97599Y308663D01*
X97697Y308627D01*
X97794Y308588D01*
X97889Y308546D01*
X97983Y308500D01*
X98075Y308450D01*
X98165Y308398D01*
X98253Y308342D01*
X98339Y308282D01*
X98423Y308220D01*
X98504Y308155D01*
X98583Y308087D01*
X98660Y308015D01*
X98733Y307942D01*
X98805Y307865D01*
X98873Y307786D01*
X98938Y307705D01*
X99000Y307621D01*
X99060Y307535D01*
X99116Y307447D01*
X99168Y307357D01*
X99218Y307265D01*
X99264Y307171D01*
X99306Y307076D01*
X99345Y306979D01*
X99381Y306881D01*
X99413Y306781D01*
X99441Y306681D01*
X99466Y306579D01*
X99486Y306477D01*
X99504Y306374D01*
X99517Y306271D01*
X99526Y306167D01*
X99532Y306062D01*
X99534Y305958D01*
X96676Y308815D02*
X96558Y308813D01*
X96439Y308807D01*
X96321Y308798D01*
X96204Y308785D01*
X96087Y308767D01*
X95970Y308747D01*
X95854Y308722D01*
X95739Y308694D01*
X95626Y308661D01*
X95513Y308626D01*
X95401Y308586D01*
X95291Y308544D01*
X95182Y308497D01*
X95074Y308447D01*
X94969Y308394D01*
X94865Y308337D01*
X94763Y308277D01*
X94663Y308214D01*
X94565Y308147D01*
X94469Y308078D01*
X94376Y308005D01*
X94285Y307929D01*
X94196Y307851D01*
X94110Y307769D01*
X94027Y307685D01*
X93946Y307599D01*
X93869Y307509D01*
X93794Y307418D01*
X93722Y307324D01*
X93653Y307227D01*
X93588Y307129D01*
X93525Y307028D01*
X93466Y306925D01*
X93410Y306821D01*
X93358Y306715D01*
X93309Y306607D01*
X93264Y306498D01*
X93222Y306387D01*
X93184Y306275D01*
X98582Y303736D02*
X98658Y303811D01*
X98733Y303890D01*
X98804Y303971D01*
X98873Y304055D01*
X98938Y304141D01*
X99000Y304229D01*
X99060Y304319D01*
X99116Y304411D01*
X99169Y304506D01*
X99218Y304602D01*
X99264Y304700D01*
X99307Y304799D01*
X99346Y304900D01*
X99381Y305002D01*
X99413Y305105D01*
X99441Y305209D01*
X99466Y305314D01*
X99487Y305421D01*
X99504Y305527D01*
X99517Y305634D01*
X99526Y305742D01*
X99532Y305850D01*
X99534Y305958D01*
X98581Y303735D02*
X93184Y297385D01*
X99534Y297385D01*
X241250Y165000D02*
X258750Y165000D01*
X258750Y135000D02*
X241250Y135000D01*
X258750Y135000D02*
X258750Y165000D01*
X241250Y165000D02*
X241250Y135000D01*
X247160Y161430D02*
X247162Y161536D01*
X247168Y161642D01*
X247178Y161748D01*
X247192Y161853D01*
X247210Y161958D01*
X247231Y162062D01*
X247257Y162165D01*
X247286Y162267D01*
X247319Y162368D01*
X247356Y162468D01*
X247397Y162566D01*
X247441Y162662D01*
X247489Y162757D01*
X247540Y162850D01*
X247595Y162941D01*
X247653Y163030D01*
X247715Y163116D01*
X247780Y163201D01*
X247847Y163282D01*
X247918Y163362D01*
X247992Y163438D01*
X248068Y163512D01*
X248148Y163583D01*
X248229Y163650D01*
X248314Y163715D01*
X248400Y163777D01*
X248489Y163835D01*
X248580Y163890D01*
X248673Y163941D01*
X248768Y163989D01*
X248864Y164033D01*
X248962Y164074D01*
X249062Y164111D01*
X249163Y164144D01*
X249265Y164173D01*
X249368Y164199D01*
X249472Y164220D01*
X249577Y164238D01*
X249682Y164252D01*
X249788Y164262D01*
X249894Y164268D01*
X250000Y164270D01*
X250106Y164268D01*
X250212Y164262D01*
X250318Y164252D01*
X250423Y164238D01*
X250528Y164220D01*
X250632Y164199D01*
X250735Y164173D01*
X250837Y164144D01*
X250938Y164111D01*
X251038Y164074D01*
X251136Y164033D01*
X251232Y163989D01*
X251327Y163941D01*
X251420Y163890D01*
X251511Y163835D01*
X251600Y163777D01*
X251686Y163715D01*
X251771Y163650D01*
X251852Y163583D01*
X251932Y163512D01*
X252008Y163438D01*
X252082Y163362D01*
X252153Y163282D01*
X252220Y163201D01*
X252285Y163116D01*
X252347Y163030D01*
X252405Y162941D01*
X252460Y162850D01*
X252511Y162757D01*
X252559Y162662D01*
X252603Y162566D01*
X252644Y162468D01*
X252681Y162368D01*
X252714Y162267D01*
X252743Y162165D01*
X252769Y162062D01*
X252790Y161958D01*
X252808Y161853D01*
X252822Y161748D01*
X252832Y161642D01*
X252838Y161536D01*
X252840Y161430D01*
X252838Y161324D01*
X252832Y161218D01*
X252822Y161112D01*
X252808Y161007D01*
X252790Y160902D01*
X252769Y160798D01*
X252743Y160695D01*
X252714Y160593D01*
X252681Y160492D01*
X252644Y160392D01*
X252603Y160294D01*
X252559Y160198D01*
X252511Y160103D01*
X252460Y160010D01*
X252405Y159919D01*
X252347Y159830D01*
X252285Y159744D01*
X252220Y159659D01*
X252153Y159578D01*
X252082Y159498D01*
X252008Y159422D01*
X251932Y159348D01*
X251852Y159277D01*
X251771Y159210D01*
X251686Y159145D01*
X251600Y159083D01*
X251511Y159025D01*
X251420Y158970D01*
X251327Y158919D01*
X251232Y158871D01*
X251136Y158827D01*
X251038Y158786D01*
X250938Y158749D01*
X250837Y158716D01*
X250735Y158687D01*
X250632Y158661D01*
X250528Y158640D01*
X250423Y158622D01*
X250318Y158608D01*
X250212Y158598D01*
X250106Y158592D01*
X250000Y158590D01*
X249894Y158592D01*
X249788Y158598D01*
X249682Y158608D01*
X249577Y158622D01*
X249472Y158640D01*
X249368Y158661D01*
X249265Y158687D01*
X249163Y158716D01*
X249062Y158749D01*
X248962Y158786D01*
X248864Y158827D01*
X248768Y158871D01*
X248673Y158919D01*
X248580Y158970D01*
X248489Y159025D01*
X248400Y159083D01*
X248314Y159145D01*
X248229Y159210D01*
X248148Y159277D01*
X248068Y159348D01*
X247992Y159422D01*
X247918Y159498D01*
X247847Y159578D01*
X247780Y159659D01*
X247715Y159744D01*
X247653Y159830D01*
X247595Y159919D01*
X247540Y160010D01*
X247489Y160103D01*
X247441Y160198D01*
X247397Y160294D01*
X247356Y160392D01*
X247319Y160492D01*
X247286Y160593D01*
X247257Y160695D01*
X247231Y160798D01*
X247210Y160902D01*
X247192Y161007D01*
X247178Y161112D01*
X247168Y161218D01*
X247162Y161324D01*
X247160Y161430D01*
D14*
X275908Y122554D02*
X284346Y122554D01*
X284459Y122556D01*
X284572Y122562D01*
X284685Y122572D01*
X284798Y122586D01*
X284910Y122603D01*
X285021Y122625D01*
X285131Y122650D01*
X285241Y122680D01*
X285349Y122713D01*
X285456Y122750D01*
X285562Y122790D01*
X285666Y122835D01*
X285769Y122883D01*
X285870Y122934D01*
X285969Y122989D01*
X286066Y123047D01*
X286161Y123109D01*
X286254Y123174D01*
X286344Y123242D01*
X286432Y123313D01*
X286518Y123388D01*
X286601Y123465D01*
X286681Y123545D01*
X286758Y123628D01*
X286833Y123714D01*
X286904Y123802D01*
X286972Y123892D01*
X287037Y123985D01*
X287099Y124080D01*
X287157Y124177D01*
X287212Y124276D01*
X287263Y124377D01*
X287311Y124480D01*
X287356Y124584D01*
X287396Y124690D01*
X287433Y124797D01*
X287466Y124905D01*
X287496Y125015D01*
X287521Y125125D01*
X287543Y125236D01*
X287560Y125348D01*
X287574Y125461D01*
X287584Y125574D01*
X287590Y125687D01*
X287592Y125800D01*
X287590Y125913D01*
X287584Y126026D01*
X287574Y126139D01*
X287560Y126252D01*
X287543Y126364D01*
X287521Y126475D01*
X287496Y126585D01*
X287466Y126695D01*
X287433Y126803D01*
X287396Y126910D01*
X287356Y127016D01*
X287311Y127120D01*
X287263Y127223D01*
X287212Y127324D01*
X287157Y127423D01*
X287099Y127520D01*
X287037Y127615D01*
X286972Y127708D01*
X286904Y127798D01*
X286833Y127886D01*
X286758Y127972D01*
X286681Y128055D01*
X286601Y128135D01*
X286518Y128212D01*
X286432Y128287D01*
X286344Y128358D01*
X286254Y128426D01*
X286161Y128491D01*
X286066Y128553D01*
X285969Y128611D01*
X285870Y128666D01*
X285769Y128717D01*
X285666Y128765D01*
X285562Y128810D01*
X285456Y128850D01*
X285349Y128887D01*
X285241Y128920D01*
X285131Y128950D01*
X285021Y128975D01*
X284910Y128997D01*
X284798Y129014D01*
X284685Y129028D01*
X284572Y129038D01*
X284459Y129044D01*
X284346Y129046D01*
X284346Y129045D02*
X275908Y129045D01*
X275908Y136849D02*
X287592Y136849D01*
X281750Y136849D02*
X280776Y135226D01*
X280777Y135225D02*
X280730Y135152D01*
X280681Y135081D01*
X280628Y135012D01*
X280572Y134945D01*
X280513Y134881D01*
X280452Y134819D01*
X280388Y134761D01*
X280321Y134705D01*
X280252Y134653D01*
X280180Y134603D01*
X280106Y134557D01*
X280031Y134514D01*
X279953Y134475D01*
X279874Y134439D01*
X279793Y134407D01*
X279711Y134378D01*
X279628Y134353D01*
X279544Y134332D01*
X279459Y134315D01*
X279373Y134301D01*
X279287Y134292D01*
X279200Y134286D01*
X279113Y134284D01*
X279026Y134286D01*
X278939Y134292D01*
X278853Y134302D01*
X278767Y134315D01*
X278682Y134333D01*
X278598Y134354D01*
X278515Y134379D01*
X278432Y134408D01*
X278352Y134440D01*
X278273Y134476D01*
X278195Y134515D01*
X278120Y134558D01*
X278046Y134605D01*
X277975Y134654D01*
X277905Y134707D01*
X277839Y134762D01*
X277775Y134821D01*
X277713Y134882D01*
X277654Y134946D01*
X277599Y135013D01*
X277546Y135082D01*
X277496Y135154D01*
X277450Y135227D01*
X277407Y135303D01*
X277368Y135380D01*
X277332Y135459D01*
X277299Y135540D01*
X277271Y135622D01*
X277245Y135705D01*
X277224Y135789D01*
X277207Y135874D01*
X277206Y135875D02*
X277182Y136015D01*
X277162Y136157D01*
X277146Y136298D01*
X277135Y136440D01*
X277127Y136583D01*
X277123Y136725D01*
X277122Y136868D01*
X277126Y137011D01*
X277134Y137153D01*
X277146Y137295D01*
X277162Y137437D01*
X277181Y137578D01*
X277205Y137719D01*
X277232Y137859D01*
X277264Y137998D01*
X277299Y138136D01*
X277338Y138274D01*
X277381Y138410D01*
X277427Y138544D01*
X277478Y138678D01*
X277531Y138810D01*
X277589Y138940D01*
X277650Y139069D01*
X277715Y139196D01*
X277783Y139322D01*
X277855Y139445D01*
X281750Y136849D02*
X282724Y138471D01*
X282723Y138472D02*
X282770Y138545D01*
X282819Y138616D01*
X282872Y138686D01*
X282928Y138752D01*
X282987Y138816D01*
X283048Y138878D01*
X283112Y138936D01*
X283179Y138992D01*
X283248Y139044D01*
X283320Y139094D01*
X283394Y139140D01*
X283469Y139183D01*
X283547Y139222D01*
X283626Y139258D01*
X283707Y139290D01*
X283789Y139319D01*
X283872Y139344D01*
X283956Y139365D01*
X284041Y139382D01*
X284127Y139396D01*
X284214Y139405D01*
X284300Y139411D01*
X284387Y139413D01*
X284474Y139411D01*
X284561Y139405D01*
X284647Y139395D01*
X284733Y139382D01*
X284818Y139364D01*
X284902Y139343D01*
X284985Y139318D01*
X285068Y139289D01*
X285148Y139257D01*
X285227Y139221D01*
X285305Y139182D01*
X285380Y139139D01*
X285454Y139092D01*
X285525Y139043D01*
X285595Y138990D01*
X285661Y138935D01*
X285725Y138876D01*
X285787Y138815D01*
X285846Y138750D01*
X285901Y138684D01*
X285954Y138615D01*
X286004Y138543D01*
X286050Y138470D01*
X286093Y138394D01*
X286132Y138317D01*
X286168Y138238D01*
X286201Y138157D01*
X286229Y138075D01*
X286255Y137992D01*
X286276Y137908D01*
X286293Y137822D01*
X286294Y137822D02*
X286318Y137682D01*
X286338Y137540D01*
X286354Y137399D01*
X286365Y137257D01*
X286373Y137114D01*
X286377Y136972D01*
X286378Y136829D01*
X286374Y136686D01*
X286366Y136544D01*
X286354Y136402D01*
X286338Y136260D01*
X286319Y136119D01*
X286295Y135978D01*
X286268Y135838D01*
X286236Y135699D01*
X286201Y135561D01*
X286162Y135423D01*
X286119Y135287D01*
X286073Y135153D01*
X286022Y135019D01*
X285969Y134887D01*
X285911Y134757D01*
X285850Y134628D01*
X285785Y134501D01*
X285717Y134375D01*
X285645Y134252D01*
X278504Y144271D02*
X275908Y147516D01*
X287592Y147516D01*
X287592Y144271D02*
X287592Y150762D01*
X281750Y155701D02*
X281520Y155704D01*
X281290Y155712D01*
X281061Y155726D01*
X280832Y155745D01*
X280603Y155770D01*
X280375Y155800D01*
X280148Y155835D01*
X279922Y155876D01*
X279697Y155922D01*
X279473Y155974D01*
X279250Y156031D01*
X279029Y156093D01*
X278809Y156161D01*
X278591Y156234D01*
X278375Y156312D01*
X278161Y156395D01*
X277949Y156483D01*
X277738Y156576D01*
X277531Y156675D01*
X277531Y156674D02*
X277441Y156707D01*
X277352Y156743D01*
X277264Y156783D01*
X277179Y156827D01*
X277095Y156874D01*
X277013Y156924D01*
X276933Y156978D01*
X276856Y157034D01*
X276780Y157094D01*
X276707Y157157D01*
X276637Y157222D01*
X276569Y157291D01*
X276505Y157362D01*
X276443Y157435D01*
X276384Y157511D01*
X276328Y157589D01*
X276275Y157670D01*
X276226Y157752D01*
X276180Y157836D01*
X276137Y157923D01*
X276098Y158010D01*
X276062Y158100D01*
X276030Y158190D01*
X276002Y158282D01*
X275977Y158375D01*
X275956Y158469D01*
X275939Y158563D01*
X275925Y158658D01*
X275916Y158754D01*
X275910Y158850D01*
X275908Y158946D01*
X275910Y159042D01*
X275916Y159138D01*
X275925Y159234D01*
X275939Y159329D01*
X275956Y159423D01*
X275977Y159517D01*
X276002Y159610D01*
X276030Y159702D01*
X276062Y159792D01*
X276098Y159882D01*
X276137Y159970D01*
X276180Y160056D01*
X276226Y160140D01*
X276275Y160222D01*
X276328Y160303D01*
X276384Y160381D01*
X276443Y160457D01*
X276505Y160530D01*
X276569Y160601D01*
X276637Y160670D01*
X276707Y160735D01*
X276780Y160798D01*
X276856Y160858D01*
X276933Y160914D01*
X277013Y160968D01*
X277095Y161018D01*
X277179Y161065D01*
X277264Y161109D01*
X277352Y161149D01*
X277441Y161185D01*
X277531Y161218D01*
X277738Y161317D01*
X277949Y161410D01*
X278161Y161498D01*
X278375Y161581D01*
X278591Y161659D01*
X278809Y161732D01*
X279029Y161800D01*
X279250Y161862D01*
X279473Y161919D01*
X279697Y161971D01*
X279922Y162017D01*
X280148Y162058D01*
X280375Y162093D01*
X280603Y162123D01*
X280832Y162148D01*
X281061Y162167D01*
X281290Y162181D01*
X281520Y162189D01*
X281750Y162192D01*
X281750Y155701D02*
X281980Y155704D01*
X282210Y155712D01*
X282439Y155726D01*
X282668Y155745D01*
X282897Y155770D01*
X283125Y155800D01*
X283352Y155835D01*
X283578Y155876D01*
X283803Y155922D01*
X284027Y155974D01*
X284250Y156031D01*
X284471Y156093D01*
X284691Y156161D01*
X284909Y156234D01*
X285125Y156312D01*
X285339Y156395D01*
X285551Y156483D01*
X285762Y156576D01*
X285969Y156675D01*
X285969Y156674D02*
X286059Y156707D01*
X286148Y156743D01*
X286236Y156784D01*
X286321Y156827D01*
X286405Y156874D01*
X286487Y156924D01*
X286567Y156978D01*
X286644Y157034D01*
X286720Y157094D01*
X286793Y157157D01*
X286863Y157222D01*
X286931Y157291D01*
X286995Y157362D01*
X287057Y157435D01*
X287116Y157511D01*
X287172Y157589D01*
X287225Y157670D01*
X287274Y157752D01*
X287320Y157836D01*
X287363Y157923D01*
X287402Y158010D01*
X287438Y158100D01*
X287470Y158190D01*
X287498Y158282D01*
X287523Y158375D01*
X287544Y158469D01*
X287561Y158563D01*
X287575Y158658D01*
X287584Y158754D01*
X287590Y158850D01*
X287592Y158946D01*
X285969Y161218D02*
X285762Y161317D01*
X285551Y161410D01*
X285339Y161498D01*
X285125Y161581D01*
X284909Y161659D01*
X284691Y161732D01*
X284471Y161800D01*
X284250Y161862D01*
X284027Y161919D01*
X283803Y161971D01*
X283578Y162017D01*
X283352Y162058D01*
X283125Y162093D01*
X282897Y162123D01*
X282668Y162148D01*
X282439Y162167D01*
X282210Y162181D01*
X281980Y162189D01*
X281750Y162192D01*
X285969Y161218D02*
X286059Y161185D01*
X286148Y161149D01*
X286236Y161109D01*
X286321Y161065D01*
X286405Y161018D01*
X286487Y160968D01*
X286567Y160914D01*
X286644Y160858D01*
X286720Y160798D01*
X286793Y160735D01*
X286863Y160670D01*
X286931Y160601D01*
X286995Y160530D01*
X287057Y160457D01*
X287116Y160381D01*
X287172Y160303D01*
X287225Y160222D01*
X287274Y160140D01*
X287320Y160056D01*
X287363Y159969D01*
X287402Y159882D01*
X287438Y159792D01*
X287470Y159702D01*
X287498Y159610D01*
X287523Y159517D01*
X287544Y159423D01*
X287561Y159329D01*
X287575Y159234D01*
X287584Y159138D01*
X287590Y159042D01*
X287592Y158946D01*
X284996Y156350D02*
X278504Y161543D01*
D15*
X196929Y163502D02*
X196929Y159466D01*
X196931Y159389D01*
X196937Y159311D01*
X196946Y159235D01*
X196960Y159158D01*
X196977Y159083D01*
X196998Y159009D01*
X197023Y158935D01*
X197051Y158863D01*
X197083Y158793D01*
X197118Y158724D01*
X197157Y158657D01*
X197199Y158592D01*
X197244Y158529D01*
X197292Y158468D01*
X197343Y158410D01*
X197397Y158355D01*
X197454Y158302D01*
X197513Y158253D01*
X197575Y158206D01*
X197639Y158162D01*
X197705Y158122D01*
X197773Y158085D01*
X197843Y158051D01*
X197914Y158021D01*
X197987Y157995D01*
X198061Y157972D01*
X198136Y157953D01*
X198211Y157938D01*
X198288Y157926D01*
X198365Y157918D01*
X198442Y157914D01*
X198520Y157914D01*
X198597Y157918D01*
X198674Y157926D01*
X198751Y157938D01*
X198826Y157953D01*
X198901Y157972D01*
X198975Y157995D01*
X199048Y158021D01*
X199119Y158051D01*
X199189Y158085D01*
X199257Y158122D01*
X199323Y158162D01*
X199387Y158206D01*
X199449Y158253D01*
X199508Y158302D01*
X199565Y158355D01*
X199619Y158410D01*
X199670Y158468D01*
X199718Y158529D01*
X199763Y158592D01*
X199805Y158657D01*
X199844Y158724D01*
X199879Y158793D01*
X199911Y158863D01*
X199939Y158935D01*
X199964Y159009D01*
X199985Y159083D01*
X200002Y159158D01*
X200016Y159235D01*
X200025Y159311D01*
X200031Y159389D01*
X200033Y159466D01*
X200033Y163502D01*
X203785Y163502D02*
X203785Y157914D01*
X203785Y160708D02*
X203009Y161174D01*
X202958Y161207D01*
X202909Y161243D01*
X202863Y161282D01*
X202820Y161325D01*
X202779Y161369D01*
X202741Y161417D01*
X202707Y161467D01*
X202676Y161519D01*
X202648Y161573D01*
X202624Y161628D01*
X202603Y161686D01*
X202587Y161744D01*
X202574Y161803D01*
X202565Y161863D01*
X202560Y161923D01*
X202559Y161984D01*
X202562Y162045D01*
X202569Y162105D01*
X202580Y162165D01*
X202595Y162223D01*
X202613Y162281D01*
X202635Y162338D01*
X202661Y162392D01*
X202691Y162445D01*
X202724Y162496D01*
X202760Y162545D01*
X202799Y162591D01*
X202841Y162635D01*
X202886Y162676D01*
X202933Y162713D01*
X202983Y162748D01*
X203035Y162779D01*
X203089Y162807D01*
X203145Y162831D01*
X203202Y162851D01*
X203260Y162868D01*
X203319Y162881D01*
X203416Y162897D01*
X203514Y162909D01*
X203612Y162916D01*
X203711Y162920D01*
X203809Y162921D01*
X203908Y162917D01*
X204006Y162909D01*
X204104Y162897D01*
X204201Y162881D01*
X204297Y162862D01*
X204393Y162838D01*
X204488Y162811D01*
X204581Y162780D01*
X204673Y162745D01*
X204764Y162707D01*
X204853Y162665D01*
X204941Y162620D01*
X205026Y162571D01*
X203785Y160708D02*
X204561Y160242D01*
X204612Y160209D01*
X204661Y160173D01*
X204707Y160134D01*
X204750Y160091D01*
X204791Y160047D01*
X204829Y159999D01*
X204863Y159949D01*
X204894Y159897D01*
X204922Y159843D01*
X204946Y159788D01*
X204967Y159730D01*
X204983Y159672D01*
X204996Y159613D01*
X205005Y159553D01*
X205010Y159493D01*
X205011Y159432D01*
X205008Y159371D01*
X205001Y159311D01*
X204990Y159251D01*
X204975Y159193D01*
X204957Y159135D01*
X204935Y159078D01*
X204909Y159024D01*
X204879Y158971D01*
X204846Y158920D01*
X204810Y158871D01*
X204771Y158825D01*
X204729Y158781D01*
X204684Y158740D01*
X204637Y158703D01*
X204587Y158668D01*
X204535Y158637D01*
X204481Y158609D01*
X204425Y158585D01*
X204368Y158565D01*
X204310Y158548D01*
X204251Y158535D01*
X204250Y158535D02*
X204153Y158519D01*
X204055Y158507D01*
X203957Y158500D01*
X203858Y158496D01*
X203760Y158495D01*
X203661Y158499D01*
X203563Y158507D01*
X203465Y158519D01*
X203368Y158535D01*
X203272Y158554D01*
X203176Y158578D01*
X203081Y158605D01*
X202988Y158636D01*
X202896Y158671D01*
X202805Y158709D01*
X202716Y158751D01*
X202628Y158796D01*
X202543Y158845D01*
X207353Y162260D02*
X208905Y163502D01*
X208905Y157914D01*
X207353Y157914D02*
X210458Y157914D01*
X212839Y162260D02*
X214392Y163502D01*
X214392Y157914D01*
X215944Y157914D02*
X212839Y157914D01*
D10*
X227000Y196000D02*
X233000Y196000D01*
X233000Y184000D02*
X227000Y184000D01*
D13*
X224200Y198382D02*
X223354Y198382D01*
X223299Y198384D01*
X223243Y198389D01*
X223189Y198398D01*
X223135Y198411D01*
X223082Y198427D01*
X223030Y198446D01*
X222979Y198469D01*
X222931Y198495D01*
X222883Y198525D01*
X222838Y198557D01*
X222796Y198592D01*
X222755Y198630D01*
X222717Y198671D01*
X222682Y198713D01*
X222650Y198758D01*
X222620Y198806D01*
X222594Y198854D01*
X222571Y198905D01*
X222552Y198957D01*
X222536Y199010D01*
X222523Y199064D01*
X222514Y199118D01*
X222509Y199174D01*
X222507Y199229D01*
X222507Y201345D01*
X222509Y201403D01*
X222515Y201460D01*
X222525Y201517D01*
X222538Y201574D01*
X222556Y201629D01*
X222577Y201682D01*
X222602Y201735D01*
X222630Y201785D01*
X222662Y201833D01*
X222697Y201880D01*
X222735Y201923D01*
X222776Y201964D01*
X222819Y202002D01*
X222866Y202037D01*
X222914Y202069D01*
X222964Y202097D01*
X223017Y202122D01*
X223070Y202143D01*
X223125Y202161D01*
X223182Y202174D01*
X223239Y202184D01*
X223296Y202190D01*
X223354Y202192D01*
X224200Y202192D01*
X225564Y201345D02*
X226623Y202192D01*
X226623Y198382D01*
X227681Y198382D02*
X225564Y198382D01*
D10*
X227000Y216000D02*
X233000Y216000D01*
X233000Y204000D02*
X227000Y204000D01*
D13*
X224200Y218382D02*
X223354Y218382D01*
X223299Y218384D01*
X223243Y218389D01*
X223189Y218398D01*
X223135Y218411D01*
X223082Y218427D01*
X223030Y218446D01*
X222979Y218469D01*
X222931Y218495D01*
X222883Y218525D01*
X222838Y218557D01*
X222796Y218592D01*
X222755Y218630D01*
X222717Y218671D01*
X222682Y218713D01*
X222650Y218758D01*
X222620Y218806D01*
X222594Y218854D01*
X222571Y218905D01*
X222552Y218957D01*
X222536Y219010D01*
X222523Y219064D01*
X222514Y219118D01*
X222509Y219174D01*
X222507Y219229D01*
X222507Y221345D01*
X222509Y221403D01*
X222515Y221460D01*
X222525Y221517D01*
X222538Y221574D01*
X222556Y221629D01*
X222577Y221682D01*
X222602Y221735D01*
X222630Y221785D01*
X222662Y221833D01*
X222697Y221880D01*
X222735Y221923D01*
X222776Y221964D01*
X222819Y222002D01*
X222866Y222037D01*
X222914Y222069D01*
X222964Y222097D01*
X223017Y222122D01*
X223070Y222143D01*
X223125Y222161D01*
X223182Y222174D01*
X223239Y222184D01*
X223296Y222190D01*
X223354Y222192D01*
X224200Y222192D01*
X226729Y222193D02*
X226789Y222191D01*
X226848Y222185D01*
X226908Y222176D01*
X226966Y222163D01*
X227023Y222146D01*
X227080Y222126D01*
X227135Y222102D01*
X227188Y222075D01*
X227240Y222045D01*
X227289Y222011D01*
X227336Y221974D01*
X227381Y221935D01*
X227424Y221892D01*
X227463Y221847D01*
X227500Y221800D01*
X227534Y221751D01*
X227564Y221699D01*
X227591Y221646D01*
X227615Y221591D01*
X227635Y221534D01*
X227652Y221477D01*
X227665Y221419D01*
X227674Y221359D01*
X227680Y221300D01*
X227682Y221240D01*
X226729Y222192D02*
X226662Y222190D01*
X226595Y222185D01*
X226529Y222176D01*
X226463Y222163D01*
X226399Y222147D01*
X226335Y222127D01*
X226272Y222103D01*
X226210Y222077D01*
X226151Y222047D01*
X226093Y222014D01*
X226036Y221977D01*
X225982Y221938D01*
X225930Y221896D01*
X225881Y221851D01*
X225834Y221803D01*
X225790Y221753D01*
X225748Y221700D01*
X225710Y221645D01*
X225674Y221589D01*
X225642Y221530D01*
X225613Y221470D01*
X225587Y221408D01*
X225565Y221345D01*
X227364Y220499D02*
X227405Y220541D01*
X227444Y220586D01*
X227481Y220632D01*
X227515Y220681D01*
X227546Y220731D01*
X227573Y220783D01*
X227598Y220837D01*
X227620Y220892D01*
X227639Y220948D01*
X227654Y221005D01*
X227666Y221063D01*
X227674Y221122D01*
X227679Y221181D01*
X227681Y221240D01*
X227364Y220499D02*
X225564Y218382D01*
X227681Y218382D01*
D10*
X237000Y126000D02*
X243000Y126000D01*
X243000Y114000D02*
X237000Y114000D01*
D13*
X234200Y128382D02*
X233354Y128382D01*
X233299Y128384D01*
X233243Y128389D01*
X233189Y128398D01*
X233135Y128411D01*
X233082Y128427D01*
X233030Y128446D01*
X232979Y128469D01*
X232931Y128495D01*
X232883Y128525D01*
X232838Y128557D01*
X232796Y128592D01*
X232755Y128630D01*
X232717Y128671D01*
X232682Y128713D01*
X232650Y128758D01*
X232620Y128806D01*
X232594Y128854D01*
X232571Y128905D01*
X232552Y128957D01*
X232536Y129010D01*
X232523Y129064D01*
X232514Y129118D01*
X232509Y129174D01*
X232507Y129229D01*
X232507Y131345D01*
X232509Y131403D01*
X232515Y131460D01*
X232525Y131517D01*
X232538Y131574D01*
X232556Y131629D01*
X232577Y131682D01*
X232602Y131735D01*
X232630Y131785D01*
X232662Y131833D01*
X232697Y131880D01*
X232735Y131923D01*
X232776Y131964D01*
X232819Y132002D01*
X232866Y132037D01*
X232914Y132069D01*
X232964Y132097D01*
X233017Y132122D01*
X233070Y132143D01*
X233125Y132161D01*
X233182Y132174D01*
X233239Y132184D01*
X233296Y132190D01*
X233354Y132192D01*
X234200Y132192D01*
X235564Y128382D02*
X236623Y128382D01*
X236687Y128384D01*
X236751Y128390D01*
X236814Y128399D01*
X236876Y128413D01*
X236938Y128430D01*
X236998Y128451D01*
X237057Y128475D01*
X237115Y128503D01*
X237170Y128535D01*
X237224Y128569D01*
X237275Y128607D01*
X237325Y128648D01*
X237371Y128692D01*
X237415Y128738D01*
X237456Y128788D01*
X237494Y128839D01*
X237528Y128893D01*
X237560Y128948D01*
X237588Y129006D01*
X237612Y129065D01*
X237633Y129125D01*
X237650Y129187D01*
X237664Y129249D01*
X237673Y129312D01*
X237679Y129376D01*
X237681Y129440D01*
X237679Y129504D01*
X237673Y129568D01*
X237664Y129631D01*
X237650Y129693D01*
X237633Y129755D01*
X237612Y129815D01*
X237588Y129874D01*
X237560Y129932D01*
X237528Y129987D01*
X237494Y130041D01*
X237456Y130092D01*
X237415Y130142D01*
X237371Y130188D01*
X237325Y130232D01*
X237275Y130273D01*
X237224Y130311D01*
X237170Y130345D01*
X237115Y130377D01*
X237057Y130405D01*
X236998Y130429D01*
X236938Y130450D01*
X236876Y130467D01*
X236814Y130481D01*
X236751Y130490D01*
X236687Y130496D01*
X236623Y130498D01*
X236834Y132192D02*
X235564Y132192D01*
X236834Y132192D02*
X236891Y132190D01*
X236947Y132184D01*
X237003Y132175D01*
X237058Y132162D01*
X237112Y132145D01*
X237165Y132125D01*
X237216Y132101D01*
X237266Y132074D01*
X237313Y132043D01*
X237359Y132010D01*
X237402Y131973D01*
X237443Y131934D01*
X237481Y131892D01*
X237516Y131847D01*
X237548Y131801D01*
X237577Y131752D01*
X237602Y131702D01*
X237624Y131649D01*
X237643Y131596D01*
X237658Y131541D01*
X237669Y131486D01*
X237677Y131430D01*
X237681Y131373D01*
X237681Y131317D01*
X237677Y131260D01*
X237669Y131204D01*
X237658Y131149D01*
X237643Y131094D01*
X237624Y131041D01*
X237602Y130988D01*
X237577Y130938D01*
X237548Y130889D01*
X237516Y130843D01*
X237481Y130798D01*
X237443Y130756D01*
X237402Y130717D01*
X237359Y130680D01*
X237313Y130647D01*
X237266Y130616D01*
X237216Y130589D01*
X237165Y130565D01*
X237112Y130545D01*
X237058Y130528D01*
X237003Y130515D01*
X236947Y130506D01*
X236891Y130500D01*
X236834Y130498D01*
X236834Y130499D02*
X235988Y130499D01*
D10*
X237000Y106000D02*
X243000Y106000D01*
X243000Y94000D02*
X237000Y94000D01*
D13*
X234200Y108382D02*
X233354Y108382D01*
X233299Y108384D01*
X233243Y108389D01*
X233189Y108398D01*
X233135Y108411D01*
X233082Y108427D01*
X233030Y108446D01*
X232979Y108469D01*
X232931Y108495D01*
X232883Y108525D01*
X232838Y108557D01*
X232796Y108592D01*
X232755Y108630D01*
X232717Y108671D01*
X232682Y108713D01*
X232650Y108758D01*
X232620Y108806D01*
X232594Y108854D01*
X232571Y108905D01*
X232552Y108957D01*
X232536Y109010D01*
X232523Y109064D01*
X232514Y109118D01*
X232509Y109174D01*
X232507Y109229D01*
X232507Y111345D01*
X232509Y111403D01*
X232515Y111460D01*
X232525Y111517D01*
X232538Y111574D01*
X232556Y111629D01*
X232577Y111682D01*
X232602Y111735D01*
X232630Y111785D01*
X232662Y111833D01*
X232697Y111880D01*
X232735Y111923D01*
X232776Y111964D01*
X232819Y112002D01*
X232866Y112037D01*
X232914Y112069D01*
X232964Y112097D01*
X233017Y112122D01*
X233070Y112143D01*
X233125Y112161D01*
X233182Y112174D01*
X233239Y112184D01*
X233296Y112190D01*
X233354Y112192D01*
X234200Y112192D01*
X236411Y112192D02*
X235564Y109229D01*
X237681Y109229D01*
X237046Y110075D02*
X237046Y108382D01*
D10*
X237000Y86000D02*
X243000Y86000D01*
X243000Y74000D02*
X237000Y74000D01*
D13*
X234200Y88382D02*
X233354Y88382D01*
X233299Y88384D01*
X233243Y88389D01*
X233189Y88398D01*
X233135Y88411D01*
X233082Y88427D01*
X233030Y88446D01*
X232979Y88469D01*
X232931Y88495D01*
X232883Y88525D01*
X232838Y88557D01*
X232796Y88592D01*
X232755Y88630D01*
X232717Y88671D01*
X232682Y88713D01*
X232650Y88758D01*
X232620Y88806D01*
X232594Y88854D01*
X232571Y88905D01*
X232552Y88957D01*
X232536Y89010D01*
X232523Y89064D01*
X232514Y89118D01*
X232509Y89174D01*
X232507Y89229D01*
X232507Y91345D01*
X232509Y91403D01*
X232515Y91460D01*
X232525Y91517D01*
X232538Y91574D01*
X232556Y91629D01*
X232577Y91682D01*
X232602Y91735D01*
X232630Y91785D01*
X232662Y91833D01*
X232697Y91880D01*
X232735Y91923D01*
X232776Y91964D01*
X232819Y92002D01*
X232866Y92037D01*
X232914Y92069D01*
X232964Y92097D01*
X233017Y92122D01*
X233070Y92143D01*
X233125Y92161D01*
X233182Y92174D01*
X233239Y92184D01*
X233296Y92190D01*
X233354Y92192D01*
X234200Y92192D01*
X235564Y88382D02*
X236834Y88382D01*
X236889Y88384D01*
X236945Y88389D01*
X236999Y88398D01*
X237053Y88411D01*
X237106Y88427D01*
X237158Y88446D01*
X237209Y88469D01*
X237258Y88495D01*
X237305Y88525D01*
X237350Y88557D01*
X237392Y88592D01*
X237433Y88630D01*
X237471Y88671D01*
X237506Y88713D01*
X237538Y88758D01*
X237568Y88806D01*
X237594Y88854D01*
X237617Y88905D01*
X237636Y88957D01*
X237652Y89010D01*
X237665Y89064D01*
X237674Y89118D01*
X237679Y89174D01*
X237681Y89229D01*
X237681Y89652D01*
X237679Y89707D01*
X237674Y89763D01*
X237665Y89817D01*
X237652Y89871D01*
X237636Y89924D01*
X237617Y89976D01*
X237594Y90027D01*
X237568Y90076D01*
X237538Y90123D01*
X237506Y90168D01*
X237471Y90210D01*
X237433Y90251D01*
X237392Y90289D01*
X237350Y90324D01*
X237305Y90356D01*
X237258Y90386D01*
X237209Y90412D01*
X237158Y90435D01*
X237106Y90454D01*
X237053Y90470D01*
X236999Y90483D01*
X236945Y90492D01*
X236889Y90497D01*
X236834Y90499D01*
X235564Y90499D01*
X235564Y92192D01*
X237681Y92192D01*
D10*
X267875Y178250D02*
X267875Y184250D01*
X255875Y184250D02*
X255875Y178250D01*
D13*
X274067Y184416D02*
X274067Y185262D01*
X274067Y184416D02*
X274065Y184358D01*
X274059Y184301D01*
X274049Y184244D01*
X274036Y184187D01*
X274018Y184132D01*
X273997Y184079D01*
X273972Y184026D01*
X273944Y183976D01*
X273912Y183928D01*
X273877Y183881D01*
X273839Y183838D01*
X273798Y183797D01*
X273755Y183759D01*
X273708Y183724D01*
X273660Y183692D01*
X273610Y183664D01*
X273557Y183639D01*
X273504Y183618D01*
X273449Y183600D01*
X273392Y183587D01*
X273335Y183577D01*
X273278Y183571D01*
X273220Y183569D01*
X271104Y183569D01*
X271046Y183571D01*
X270989Y183577D01*
X270932Y183587D01*
X270875Y183600D01*
X270820Y183618D01*
X270767Y183639D01*
X270714Y183664D01*
X270664Y183692D01*
X270616Y183724D01*
X270569Y183759D01*
X270526Y183797D01*
X270485Y183838D01*
X270447Y183881D01*
X270412Y183928D01*
X270380Y183976D01*
X270352Y184026D01*
X270327Y184079D01*
X270306Y184132D01*
X270288Y184187D01*
X270275Y184244D01*
X270265Y184301D01*
X270259Y184358D01*
X270257Y184416D01*
X270257Y185262D01*
X271950Y186626D02*
X271950Y187896D01*
X271952Y187951D01*
X271957Y188007D01*
X271966Y188061D01*
X271979Y188115D01*
X271995Y188168D01*
X272014Y188220D01*
X272037Y188271D01*
X272063Y188320D01*
X272093Y188367D01*
X272125Y188412D01*
X272160Y188454D01*
X272198Y188495D01*
X272239Y188533D01*
X272281Y188568D01*
X272326Y188600D01*
X272374Y188630D01*
X272422Y188656D01*
X272473Y188679D01*
X272525Y188698D01*
X272578Y188714D01*
X272632Y188727D01*
X272686Y188736D01*
X272742Y188741D01*
X272797Y188743D01*
X273009Y188743D01*
X273073Y188741D01*
X273137Y188735D01*
X273200Y188726D01*
X273262Y188712D01*
X273324Y188695D01*
X273384Y188674D01*
X273443Y188650D01*
X273501Y188622D01*
X273556Y188590D01*
X273610Y188556D01*
X273661Y188518D01*
X273711Y188477D01*
X273757Y188433D01*
X273801Y188387D01*
X273842Y188337D01*
X273880Y188286D01*
X273914Y188232D01*
X273946Y188177D01*
X273974Y188119D01*
X273998Y188060D01*
X274019Y188000D01*
X274036Y187938D01*
X274050Y187876D01*
X274059Y187813D01*
X274065Y187749D01*
X274067Y187685D01*
X274065Y187621D01*
X274059Y187557D01*
X274050Y187494D01*
X274036Y187432D01*
X274019Y187370D01*
X273998Y187310D01*
X273974Y187251D01*
X273946Y187193D01*
X273914Y187138D01*
X273880Y187084D01*
X273842Y187033D01*
X273801Y186983D01*
X273757Y186937D01*
X273711Y186893D01*
X273661Y186852D01*
X273610Y186814D01*
X273556Y186780D01*
X273501Y186748D01*
X273443Y186720D01*
X273384Y186696D01*
X273324Y186675D01*
X273262Y186658D01*
X273200Y186644D01*
X273137Y186635D01*
X273073Y186629D01*
X273009Y186627D01*
X273009Y186626D02*
X271950Y186626D01*
X271950Y186627D02*
X271869Y186629D01*
X271789Y186635D01*
X271709Y186644D01*
X271630Y186658D01*
X271551Y186675D01*
X271473Y186696D01*
X271396Y186720D01*
X271321Y186748D01*
X271247Y186780D01*
X271174Y186815D01*
X271104Y186854D01*
X271035Y186896D01*
X270968Y186941D01*
X270903Y186989D01*
X270841Y187040D01*
X270782Y187095D01*
X270725Y187152D01*
X270671Y187211D01*
X270619Y187273D01*
X270571Y187338D01*
X270526Y187405D01*
X270484Y187473D01*
X270445Y187544D01*
X270410Y187617D01*
X270378Y187691D01*
X270350Y187766D01*
X270326Y187843D01*
X270305Y187921D01*
X270288Y188000D01*
X270274Y188079D01*
X270265Y188159D01*
X270259Y188239D01*
X270257Y188320D01*
D10*
X286000Y143000D02*
X286000Y137000D01*
X274000Y137000D02*
X274000Y143000D01*
D13*
X288382Y141740D02*
X292192Y141740D01*
X288382Y141740D02*
X288382Y142798D01*
X288384Y142862D01*
X288390Y142926D01*
X288399Y142989D01*
X288413Y143051D01*
X288430Y143113D01*
X288451Y143173D01*
X288475Y143232D01*
X288503Y143290D01*
X288535Y143345D01*
X288569Y143399D01*
X288607Y143450D01*
X288648Y143500D01*
X288692Y143546D01*
X288738Y143590D01*
X288788Y143631D01*
X288839Y143669D01*
X288893Y143703D01*
X288948Y143735D01*
X289006Y143763D01*
X289065Y143787D01*
X289125Y143808D01*
X289187Y143825D01*
X289249Y143839D01*
X289312Y143848D01*
X289376Y143854D01*
X289440Y143856D01*
X289504Y143854D01*
X289568Y143848D01*
X289631Y143839D01*
X289693Y143825D01*
X289755Y143808D01*
X289815Y143787D01*
X289874Y143763D01*
X289932Y143735D01*
X289987Y143703D01*
X290041Y143669D01*
X290092Y143631D01*
X290142Y143590D01*
X290188Y143546D01*
X290232Y143500D01*
X290273Y143450D01*
X290311Y143399D01*
X290345Y143345D01*
X290377Y143290D01*
X290405Y143232D01*
X290429Y143173D01*
X290450Y143113D01*
X290467Y143051D01*
X290481Y142989D01*
X290490Y142926D01*
X290496Y142862D01*
X290498Y142798D01*
X290499Y142798D02*
X290499Y141740D01*
X290499Y143010D02*
X292192Y143856D01*
X292192Y145376D02*
X292192Y146435D01*
X292190Y146499D01*
X292184Y146563D01*
X292175Y146626D01*
X292161Y146688D01*
X292144Y146750D01*
X292123Y146810D01*
X292099Y146869D01*
X292071Y146927D01*
X292039Y146982D01*
X292005Y147036D01*
X291967Y147087D01*
X291926Y147137D01*
X291882Y147183D01*
X291836Y147227D01*
X291786Y147268D01*
X291735Y147306D01*
X291681Y147340D01*
X291626Y147372D01*
X291568Y147400D01*
X291509Y147424D01*
X291449Y147445D01*
X291387Y147462D01*
X291325Y147476D01*
X291262Y147485D01*
X291198Y147491D01*
X291134Y147493D01*
X291070Y147491D01*
X291006Y147485D01*
X290943Y147476D01*
X290881Y147462D01*
X290819Y147445D01*
X290759Y147424D01*
X290700Y147400D01*
X290642Y147372D01*
X290587Y147340D01*
X290533Y147306D01*
X290482Y147268D01*
X290432Y147227D01*
X290386Y147183D01*
X290342Y147137D01*
X290301Y147087D01*
X290263Y147036D01*
X290229Y146982D01*
X290197Y146927D01*
X290169Y146869D01*
X290145Y146810D01*
X290124Y146750D01*
X290107Y146688D01*
X290093Y146626D01*
X290084Y146563D01*
X290078Y146499D01*
X290076Y146435D01*
X288382Y146646D02*
X288382Y145376D01*
X288382Y146646D02*
X288384Y146703D01*
X288390Y146759D01*
X288399Y146815D01*
X288412Y146870D01*
X288429Y146924D01*
X288449Y146977D01*
X288473Y147028D01*
X288500Y147078D01*
X288531Y147125D01*
X288564Y147171D01*
X288601Y147214D01*
X288640Y147255D01*
X288682Y147293D01*
X288727Y147328D01*
X288773Y147360D01*
X288822Y147389D01*
X288872Y147414D01*
X288925Y147436D01*
X288978Y147455D01*
X289033Y147470D01*
X289088Y147481D01*
X289144Y147489D01*
X289201Y147493D01*
X289257Y147493D01*
X289314Y147489D01*
X289370Y147481D01*
X289425Y147470D01*
X289480Y147455D01*
X289533Y147436D01*
X289586Y147414D01*
X289636Y147389D01*
X289685Y147360D01*
X289731Y147328D01*
X289776Y147293D01*
X289818Y147255D01*
X289857Y147214D01*
X289894Y147171D01*
X289927Y147125D01*
X289958Y147078D01*
X289985Y147028D01*
X290009Y146977D01*
X290029Y146924D01*
X290046Y146870D01*
X290059Y146815D01*
X290068Y146759D01*
X290074Y146703D01*
X290076Y146646D01*
X290075Y146646D02*
X290075Y145800D01*
D10*
X290875Y178250D02*
X290875Y184250D01*
X302875Y184250D02*
X302875Y178250D01*
D13*
X288493Y173757D02*
X284683Y173757D01*
X284683Y174815D01*
X284685Y174879D01*
X284691Y174943D01*
X284700Y175006D01*
X284714Y175068D01*
X284731Y175130D01*
X284752Y175190D01*
X284776Y175249D01*
X284804Y175307D01*
X284836Y175362D01*
X284870Y175416D01*
X284908Y175467D01*
X284949Y175517D01*
X284993Y175563D01*
X285039Y175607D01*
X285089Y175648D01*
X285140Y175686D01*
X285194Y175720D01*
X285249Y175752D01*
X285307Y175780D01*
X285366Y175804D01*
X285426Y175825D01*
X285488Y175842D01*
X285550Y175856D01*
X285613Y175865D01*
X285677Y175871D01*
X285741Y175873D01*
X285805Y175871D01*
X285869Y175865D01*
X285932Y175856D01*
X285994Y175842D01*
X286056Y175825D01*
X286116Y175804D01*
X286175Y175780D01*
X286233Y175752D01*
X286288Y175720D01*
X286342Y175686D01*
X286393Y175648D01*
X286443Y175607D01*
X286489Y175563D01*
X286533Y175517D01*
X286574Y175467D01*
X286612Y175416D01*
X286646Y175362D01*
X286678Y175307D01*
X286706Y175249D01*
X286730Y175190D01*
X286751Y175130D01*
X286768Y175068D01*
X286782Y175006D01*
X286791Y174943D01*
X286797Y174879D01*
X286799Y174815D01*
X286800Y174815D02*
X286800Y173757D01*
X286800Y175027D02*
X288493Y175874D01*
X287646Y177394D02*
X284683Y178240D01*
X287646Y177394D02*
X287646Y179510D01*
X286800Y178875D02*
X288493Y178875D01*
D10*
X285375Y178250D02*
X285375Y184250D01*
X273375Y184250D02*
X273375Y178250D01*
D13*
X287757Y182990D02*
X291567Y182990D01*
X287757Y182990D02*
X287757Y184048D01*
X287759Y184112D01*
X287765Y184176D01*
X287774Y184239D01*
X287788Y184301D01*
X287805Y184363D01*
X287826Y184423D01*
X287850Y184482D01*
X287878Y184540D01*
X287910Y184595D01*
X287944Y184649D01*
X287982Y184700D01*
X288023Y184750D01*
X288067Y184796D01*
X288113Y184840D01*
X288163Y184881D01*
X288214Y184919D01*
X288268Y184953D01*
X288323Y184985D01*
X288381Y185013D01*
X288440Y185037D01*
X288500Y185058D01*
X288562Y185075D01*
X288624Y185089D01*
X288687Y185098D01*
X288751Y185104D01*
X288815Y185106D01*
X288879Y185104D01*
X288943Y185098D01*
X289006Y185089D01*
X289068Y185075D01*
X289130Y185058D01*
X289190Y185037D01*
X289249Y185013D01*
X289307Y184985D01*
X289362Y184953D01*
X289416Y184919D01*
X289467Y184881D01*
X289517Y184840D01*
X289563Y184796D01*
X289607Y184750D01*
X289648Y184700D01*
X289686Y184649D01*
X289720Y184595D01*
X289752Y184540D01*
X289780Y184482D01*
X289804Y184423D01*
X289825Y184363D01*
X289842Y184301D01*
X289856Y184239D01*
X289865Y184176D01*
X289871Y184112D01*
X289873Y184048D01*
X289874Y184048D02*
X289874Y182990D01*
X289874Y184260D02*
X291567Y185106D01*
X291567Y186626D02*
X291567Y187896D01*
X291565Y187951D01*
X291560Y188007D01*
X291551Y188061D01*
X291538Y188115D01*
X291522Y188168D01*
X291503Y188220D01*
X291480Y188271D01*
X291454Y188320D01*
X291424Y188367D01*
X291392Y188412D01*
X291357Y188454D01*
X291319Y188495D01*
X291278Y188533D01*
X291236Y188568D01*
X291191Y188600D01*
X291144Y188630D01*
X291095Y188656D01*
X291044Y188679D01*
X290992Y188698D01*
X290939Y188714D01*
X290885Y188727D01*
X290831Y188736D01*
X290775Y188741D01*
X290720Y188743D01*
X290297Y188743D01*
X290239Y188741D01*
X290182Y188735D01*
X290125Y188725D01*
X290068Y188712D01*
X290013Y188694D01*
X289960Y188673D01*
X289907Y188648D01*
X289857Y188620D01*
X289809Y188588D01*
X289762Y188553D01*
X289719Y188515D01*
X289678Y188474D01*
X289640Y188431D01*
X289605Y188384D01*
X289573Y188336D01*
X289545Y188286D01*
X289520Y188233D01*
X289499Y188180D01*
X289481Y188125D01*
X289468Y188068D01*
X289458Y188011D01*
X289452Y187954D01*
X289450Y187896D01*
X289450Y186626D01*
X287757Y186626D01*
X287757Y188743D01*
M02*
