G04 EAGLE Gerber X2 export*
%TF.Part,Single*%
%TF.FileFunction,Legend,Bot,1*%
%TF.FilePolarity,Positive*%
%TF.GenerationSoftware,Autodesk,EAGLE,8.6.0*%
%TF.CreationDate,2018-06-26T05:58:37Z*%
G75*
%MOMM*%
%FSLAX34Y34*%
%LPD*%
%AMOC8*
5,1,8,0,0,1.08239X$1,22.5*%
G01*
%ADD10C,0.152400*%


D10*
X1090207Y264374D02*
X1090209Y264256D01*
X1090215Y264138D01*
X1090224Y264020D01*
X1090238Y263903D01*
X1090255Y263786D01*
X1090276Y263669D01*
X1090301Y263554D01*
X1090330Y263439D01*
X1090363Y263325D01*
X1090399Y263213D01*
X1090439Y263102D01*
X1090482Y262992D01*
X1090529Y262883D01*
X1090579Y262776D01*
X1090634Y262671D01*
X1090691Y262568D01*
X1090752Y262467D01*
X1090816Y262367D01*
X1090883Y262270D01*
X1090953Y262175D01*
X1091027Y262083D01*
X1091103Y261992D01*
X1091183Y261905D01*
X1091265Y261820D01*
X1091350Y261738D01*
X1091437Y261658D01*
X1091528Y261582D01*
X1091620Y261508D01*
X1091715Y261438D01*
X1091812Y261371D01*
X1091912Y261307D01*
X1092013Y261246D01*
X1092116Y261189D01*
X1092221Y261134D01*
X1092328Y261084D01*
X1092437Y261037D01*
X1092547Y260994D01*
X1092658Y260954D01*
X1092770Y260918D01*
X1092884Y260885D01*
X1092999Y260856D01*
X1093114Y260831D01*
X1093231Y260810D01*
X1093348Y260793D01*
X1093465Y260779D01*
X1093583Y260770D01*
X1093701Y260764D01*
X1093819Y260762D01*
X1094002Y260764D01*
X1094184Y260771D01*
X1094366Y260782D01*
X1094548Y260797D01*
X1094730Y260817D01*
X1094911Y260841D01*
X1095091Y260869D01*
X1095271Y260901D01*
X1095450Y260938D01*
X1095627Y260979D01*
X1095804Y261025D01*
X1095980Y261074D01*
X1096155Y261128D01*
X1096328Y261186D01*
X1096499Y261248D01*
X1096670Y261314D01*
X1096838Y261385D01*
X1097005Y261459D01*
X1097170Y261537D01*
X1097333Y261619D01*
X1097494Y261705D01*
X1097653Y261795D01*
X1097810Y261889D01*
X1097964Y261986D01*
X1098116Y262087D01*
X1098266Y262192D01*
X1098413Y262300D01*
X1098557Y262411D01*
X1098699Y262526D01*
X1098838Y262645D01*
X1098974Y262767D01*
X1099107Y262892D01*
X1099237Y263020D01*
X1098786Y273406D02*
X1098784Y273524D01*
X1098778Y273642D01*
X1098769Y273760D01*
X1098755Y273877D01*
X1098738Y273994D01*
X1098717Y274111D01*
X1098692Y274226D01*
X1098663Y274341D01*
X1098630Y274455D01*
X1098594Y274567D01*
X1098554Y274678D01*
X1098511Y274788D01*
X1098464Y274897D01*
X1098414Y275004D01*
X1098359Y275109D01*
X1098302Y275212D01*
X1098241Y275313D01*
X1098177Y275413D01*
X1098110Y275510D01*
X1098040Y275605D01*
X1097966Y275697D01*
X1097890Y275788D01*
X1097810Y275875D01*
X1097728Y275960D01*
X1097643Y276042D01*
X1097556Y276122D01*
X1097465Y276198D01*
X1097373Y276272D01*
X1097278Y276342D01*
X1097181Y276409D01*
X1097081Y276473D01*
X1096980Y276534D01*
X1096877Y276591D01*
X1096772Y276646D01*
X1096665Y276696D01*
X1096556Y276743D01*
X1096446Y276786D01*
X1096335Y276826D01*
X1096223Y276862D01*
X1096109Y276895D01*
X1095994Y276924D01*
X1095879Y276949D01*
X1095762Y276970D01*
X1095645Y276987D01*
X1095528Y277001D01*
X1095410Y277010D01*
X1095292Y277016D01*
X1095174Y277018D01*
X1095013Y277016D01*
X1094851Y277010D01*
X1094690Y277001D01*
X1094529Y276987D01*
X1094369Y276970D01*
X1094209Y276949D01*
X1094049Y276924D01*
X1093890Y276895D01*
X1093732Y276863D01*
X1093575Y276827D01*
X1093419Y276787D01*
X1093263Y276743D01*
X1093109Y276695D01*
X1092956Y276644D01*
X1092804Y276590D01*
X1092653Y276531D01*
X1092504Y276470D01*
X1092357Y276404D01*
X1092211Y276335D01*
X1092066Y276263D01*
X1091924Y276187D01*
X1091783Y276108D01*
X1091644Y276026D01*
X1091508Y275940D01*
X1091373Y275851D01*
X1091240Y275759D01*
X1091110Y275663D01*
X1096981Y270245D02*
X1097082Y270307D01*
X1097182Y270372D01*
X1097279Y270441D01*
X1097374Y270513D01*
X1097467Y270587D01*
X1097557Y270665D01*
X1097645Y270746D01*
X1097730Y270829D01*
X1097812Y270915D01*
X1097891Y271004D01*
X1097968Y271095D01*
X1098041Y271189D01*
X1098112Y271285D01*
X1098179Y271383D01*
X1098243Y271483D01*
X1098304Y271586D01*
X1098361Y271690D01*
X1098415Y271796D01*
X1098465Y271904D01*
X1098512Y272013D01*
X1098556Y272124D01*
X1098596Y272236D01*
X1098632Y272350D01*
X1098664Y272464D01*
X1098693Y272580D01*
X1098718Y272696D01*
X1098739Y272813D01*
X1098756Y272931D01*
X1098770Y273049D01*
X1098779Y273168D01*
X1098785Y273287D01*
X1098787Y273406D01*
X1092013Y267535D02*
X1091912Y267473D01*
X1091812Y267408D01*
X1091715Y267339D01*
X1091620Y267267D01*
X1091527Y267193D01*
X1091437Y267115D01*
X1091349Y267034D01*
X1091264Y266951D01*
X1091182Y266865D01*
X1091103Y266776D01*
X1091026Y266685D01*
X1090953Y266591D01*
X1090882Y266495D01*
X1090815Y266397D01*
X1090751Y266297D01*
X1090690Y266194D01*
X1090633Y266090D01*
X1090579Y265984D01*
X1090529Y265876D01*
X1090482Y265767D01*
X1090438Y265656D01*
X1090398Y265544D01*
X1090362Y265430D01*
X1090330Y265316D01*
X1090301Y265200D01*
X1090276Y265084D01*
X1090255Y264967D01*
X1090238Y264849D01*
X1090224Y264731D01*
X1090215Y264612D01*
X1090209Y264493D01*
X1090207Y264374D01*
X1092013Y267535D02*
X1096980Y270245D01*
X1084267Y267987D02*
X1084267Y264374D01*
X1084266Y267987D02*
X1084264Y268106D01*
X1084258Y268226D01*
X1084248Y268345D01*
X1084234Y268463D01*
X1084217Y268582D01*
X1084195Y268699D01*
X1084170Y268816D01*
X1084140Y268931D01*
X1084107Y269046D01*
X1084070Y269160D01*
X1084030Y269272D01*
X1083985Y269383D01*
X1083937Y269492D01*
X1083886Y269600D01*
X1083831Y269706D01*
X1083772Y269810D01*
X1083710Y269912D01*
X1083645Y270012D01*
X1083576Y270110D01*
X1083504Y270206D01*
X1083429Y270299D01*
X1083352Y270389D01*
X1083271Y270477D01*
X1083187Y270562D01*
X1083100Y270644D01*
X1083011Y270724D01*
X1082919Y270800D01*
X1082825Y270874D01*
X1082728Y270944D01*
X1082630Y271011D01*
X1082529Y271075D01*
X1082425Y271135D01*
X1082320Y271192D01*
X1082213Y271245D01*
X1082105Y271295D01*
X1081995Y271341D01*
X1081883Y271383D01*
X1081770Y271422D01*
X1081656Y271457D01*
X1081541Y271488D01*
X1081424Y271516D01*
X1081307Y271539D01*
X1081190Y271559D01*
X1081071Y271575D01*
X1080952Y271587D01*
X1080833Y271595D01*
X1080714Y271599D01*
X1080594Y271599D01*
X1080475Y271595D01*
X1080356Y271587D01*
X1080237Y271575D01*
X1080118Y271559D01*
X1080001Y271539D01*
X1079884Y271516D01*
X1079767Y271488D01*
X1079652Y271457D01*
X1079538Y271422D01*
X1079425Y271383D01*
X1079313Y271341D01*
X1079203Y271295D01*
X1079095Y271245D01*
X1078988Y271192D01*
X1078883Y271135D01*
X1078779Y271075D01*
X1078678Y271011D01*
X1078580Y270944D01*
X1078483Y270874D01*
X1078389Y270800D01*
X1078297Y270724D01*
X1078208Y270644D01*
X1078121Y270562D01*
X1078037Y270477D01*
X1077956Y270389D01*
X1077879Y270299D01*
X1077804Y270206D01*
X1077732Y270110D01*
X1077663Y270012D01*
X1077598Y269912D01*
X1077536Y269810D01*
X1077477Y269706D01*
X1077422Y269600D01*
X1077371Y269492D01*
X1077323Y269383D01*
X1077278Y269272D01*
X1077238Y269160D01*
X1077201Y269046D01*
X1077168Y268931D01*
X1077138Y268816D01*
X1077113Y268699D01*
X1077091Y268582D01*
X1077074Y268463D01*
X1077060Y268345D01*
X1077050Y268226D01*
X1077044Y268106D01*
X1077042Y267987D01*
X1077042Y264374D01*
X1077044Y264255D01*
X1077050Y264135D01*
X1077060Y264016D01*
X1077074Y263898D01*
X1077091Y263779D01*
X1077113Y263662D01*
X1077138Y263545D01*
X1077168Y263430D01*
X1077201Y263315D01*
X1077238Y263201D01*
X1077278Y263089D01*
X1077323Y262978D01*
X1077371Y262869D01*
X1077422Y262761D01*
X1077477Y262655D01*
X1077536Y262551D01*
X1077598Y262449D01*
X1077663Y262349D01*
X1077732Y262251D01*
X1077804Y262155D01*
X1077879Y262062D01*
X1077956Y261972D01*
X1078037Y261884D01*
X1078121Y261799D01*
X1078208Y261717D01*
X1078297Y261637D01*
X1078389Y261561D01*
X1078483Y261487D01*
X1078580Y261417D01*
X1078678Y261350D01*
X1078779Y261286D01*
X1078883Y261226D01*
X1078988Y261169D01*
X1079095Y261116D01*
X1079203Y261066D01*
X1079313Y261020D01*
X1079425Y260978D01*
X1079538Y260939D01*
X1079652Y260904D01*
X1079767Y260873D01*
X1079884Y260845D01*
X1080001Y260822D01*
X1080118Y260802D01*
X1080237Y260786D01*
X1080356Y260774D01*
X1080475Y260766D01*
X1080594Y260762D01*
X1080714Y260762D01*
X1080833Y260766D01*
X1080952Y260774D01*
X1081071Y260786D01*
X1081190Y260802D01*
X1081307Y260822D01*
X1081424Y260845D01*
X1081541Y260873D01*
X1081656Y260904D01*
X1081770Y260939D01*
X1081883Y260978D01*
X1081995Y261020D01*
X1082105Y261066D01*
X1082213Y261116D01*
X1082320Y261169D01*
X1082425Y261226D01*
X1082529Y261286D01*
X1082630Y261350D01*
X1082728Y261417D01*
X1082825Y261487D01*
X1082919Y261561D01*
X1083011Y261637D01*
X1083100Y261717D01*
X1083187Y261799D01*
X1083271Y261884D01*
X1083352Y261972D01*
X1083429Y262062D01*
X1083504Y262155D01*
X1083576Y262251D01*
X1083645Y262349D01*
X1083710Y262449D01*
X1083772Y262551D01*
X1083831Y262655D01*
X1083886Y262761D01*
X1083937Y262869D01*
X1083985Y262978D01*
X1084030Y263089D01*
X1084070Y263201D01*
X1084107Y263315D01*
X1084140Y263430D01*
X1084170Y263545D01*
X1084195Y263662D01*
X1084217Y263779D01*
X1084234Y263898D01*
X1084248Y264016D01*
X1084258Y264135D01*
X1084264Y264255D01*
X1084266Y264374D01*
X1070483Y263471D02*
X1070483Y277018D01*
X1070483Y263471D02*
X1070481Y263370D01*
X1070475Y263269D01*
X1070466Y263168D01*
X1070453Y263067D01*
X1070436Y262967D01*
X1070415Y262868D01*
X1070391Y262770D01*
X1070363Y262673D01*
X1070331Y262576D01*
X1070296Y262481D01*
X1070257Y262388D01*
X1070215Y262296D01*
X1070169Y262205D01*
X1070120Y262116D01*
X1070068Y262030D01*
X1070012Y261945D01*
X1069954Y261862D01*
X1069892Y261782D01*
X1069827Y261704D01*
X1069760Y261628D01*
X1069690Y261555D01*
X1069617Y261485D01*
X1069541Y261418D01*
X1069463Y261353D01*
X1069383Y261291D01*
X1069300Y261233D01*
X1069215Y261177D01*
X1069129Y261125D01*
X1069040Y261076D01*
X1068949Y261030D01*
X1068857Y260988D01*
X1068764Y260949D01*
X1068669Y260914D01*
X1068572Y260882D01*
X1068475Y260854D01*
X1068377Y260830D01*
X1068278Y260809D01*
X1068178Y260792D01*
X1068077Y260779D01*
X1067976Y260770D01*
X1067875Y260764D01*
X1067774Y260762D01*
X1059295Y267084D02*
X1055231Y267084D01*
X1059295Y267084D02*
X1059407Y267082D01*
X1059518Y267076D01*
X1059629Y267066D01*
X1059740Y267053D01*
X1059850Y267035D01*
X1059959Y267013D01*
X1060068Y266988D01*
X1060176Y266959D01*
X1060282Y266926D01*
X1060388Y266889D01*
X1060492Y266849D01*
X1060594Y266805D01*
X1060695Y266757D01*
X1060794Y266706D01*
X1060892Y266651D01*
X1060987Y266593D01*
X1061080Y266532D01*
X1061171Y266467D01*
X1061260Y266399D01*
X1061346Y266328D01*
X1061429Y266255D01*
X1061510Y266178D01*
X1061589Y266098D01*
X1061664Y266016D01*
X1061736Y265931D01*
X1061806Y265844D01*
X1061872Y265754D01*
X1061935Y265662D01*
X1061995Y265567D01*
X1062051Y265471D01*
X1062104Y265373D01*
X1062153Y265273D01*
X1062199Y265171D01*
X1062241Y265068D01*
X1062280Y264963D01*
X1062315Y264857D01*
X1062346Y264750D01*
X1062373Y264642D01*
X1062397Y264533D01*
X1062416Y264423D01*
X1062432Y264313D01*
X1062444Y264202D01*
X1062452Y264090D01*
X1062456Y263979D01*
X1062456Y263867D01*
X1062452Y263756D01*
X1062444Y263644D01*
X1062432Y263533D01*
X1062416Y263423D01*
X1062397Y263313D01*
X1062373Y263204D01*
X1062346Y263096D01*
X1062315Y262989D01*
X1062280Y262883D01*
X1062241Y262778D01*
X1062199Y262675D01*
X1062153Y262573D01*
X1062104Y262473D01*
X1062051Y262375D01*
X1061995Y262279D01*
X1061935Y262184D01*
X1061872Y262092D01*
X1061806Y262002D01*
X1061736Y261915D01*
X1061664Y261830D01*
X1061589Y261748D01*
X1061510Y261668D01*
X1061429Y261591D01*
X1061346Y261518D01*
X1061260Y261447D01*
X1061171Y261379D01*
X1061080Y261314D01*
X1060987Y261253D01*
X1060892Y261195D01*
X1060794Y261140D01*
X1060695Y261089D01*
X1060594Y261041D01*
X1060492Y260997D01*
X1060388Y260957D01*
X1060282Y260920D01*
X1060176Y260887D01*
X1060068Y260858D01*
X1059959Y260833D01*
X1059850Y260811D01*
X1059740Y260793D01*
X1059629Y260780D01*
X1059518Y260770D01*
X1059407Y260764D01*
X1059295Y260762D01*
X1055231Y260762D01*
X1055231Y268890D01*
X1055232Y268890D02*
X1055234Y268991D01*
X1055240Y269092D01*
X1055249Y269193D01*
X1055262Y269294D01*
X1055279Y269394D01*
X1055300Y269493D01*
X1055324Y269591D01*
X1055352Y269688D01*
X1055384Y269785D01*
X1055419Y269880D01*
X1055458Y269973D01*
X1055500Y270065D01*
X1055546Y270156D01*
X1055595Y270245D01*
X1055647Y270331D01*
X1055703Y270416D01*
X1055761Y270499D01*
X1055823Y270579D01*
X1055888Y270657D01*
X1055955Y270733D01*
X1056025Y270806D01*
X1056098Y270876D01*
X1056174Y270943D01*
X1056252Y271008D01*
X1056332Y271070D01*
X1056415Y271128D01*
X1056500Y271184D01*
X1056587Y271236D01*
X1056675Y271285D01*
X1056766Y271331D01*
X1056858Y271373D01*
X1056951Y271412D01*
X1057046Y271447D01*
X1057143Y271479D01*
X1057240Y271507D01*
X1057338Y271531D01*
X1057437Y271552D01*
X1057537Y271569D01*
X1057638Y271582D01*
X1057739Y271591D01*
X1057840Y271597D01*
X1057941Y271599D01*
X1061553Y271599D01*
X1047709Y271599D02*
X1047709Y260762D01*
X1047709Y271599D02*
X1042290Y271599D01*
X1042290Y269793D01*
X1037408Y271599D02*
X1037408Y260762D01*
X1037860Y276115D02*
X1037860Y277018D01*
X1036956Y277018D01*
X1036956Y276115D01*
X1037860Y276115D01*
X1030600Y271599D02*
X1030600Y263471D01*
X1030599Y263471D02*
X1030597Y263370D01*
X1030591Y263269D01*
X1030582Y263168D01*
X1030569Y263067D01*
X1030552Y262967D01*
X1030531Y262868D01*
X1030507Y262770D01*
X1030479Y262673D01*
X1030447Y262576D01*
X1030412Y262481D01*
X1030373Y262388D01*
X1030331Y262296D01*
X1030285Y262205D01*
X1030236Y262116D01*
X1030184Y262030D01*
X1030128Y261945D01*
X1030070Y261862D01*
X1030008Y261782D01*
X1029943Y261704D01*
X1029876Y261628D01*
X1029806Y261555D01*
X1029733Y261485D01*
X1029657Y261418D01*
X1029579Y261353D01*
X1029499Y261291D01*
X1029416Y261233D01*
X1029331Y261177D01*
X1029245Y261125D01*
X1029156Y261076D01*
X1029065Y261030D01*
X1028973Y260988D01*
X1028880Y260949D01*
X1028785Y260914D01*
X1028688Y260882D01*
X1028591Y260854D01*
X1028493Y260830D01*
X1028394Y260809D01*
X1028294Y260792D01*
X1028193Y260779D01*
X1028092Y260770D01*
X1027991Y260764D01*
X1027890Y260762D01*
X1023375Y260762D01*
X1023375Y271599D01*
X1015733Y271599D02*
X1015733Y260762D01*
X1015733Y271599D02*
X1007605Y271599D01*
X1007504Y271597D01*
X1007403Y271591D01*
X1007302Y271582D01*
X1007201Y271569D01*
X1007101Y271552D01*
X1007002Y271531D01*
X1006904Y271507D01*
X1006807Y271479D01*
X1006710Y271447D01*
X1006615Y271412D01*
X1006522Y271373D01*
X1006430Y271331D01*
X1006339Y271285D01*
X1006251Y271236D01*
X1006164Y271184D01*
X1006079Y271128D01*
X1005996Y271070D01*
X1005916Y271008D01*
X1005838Y270943D01*
X1005762Y270876D01*
X1005689Y270806D01*
X1005619Y270733D01*
X1005552Y270657D01*
X1005487Y270579D01*
X1005425Y270499D01*
X1005367Y270416D01*
X1005311Y270331D01*
X1005259Y270245D01*
X1005210Y270156D01*
X1005164Y270065D01*
X1005122Y269973D01*
X1005083Y269880D01*
X1005048Y269785D01*
X1005016Y269688D01*
X1004988Y269591D01*
X1004964Y269493D01*
X1004943Y269394D01*
X1004926Y269294D01*
X1004913Y269193D01*
X1004904Y269092D01*
X1004898Y268991D01*
X1004896Y268890D01*
X1004895Y268890D02*
X1004895Y260762D01*
X1010314Y260762D02*
X1010314Y271599D01*
X982456Y269793D02*
X979746Y269793D01*
X979746Y260762D01*
X985165Y260762D01*
X985283Y260764D01*
X985401Y260770D01*
X985519Y260779D01*
X985636Y260793D01*
X985753Y260810D01*
X985870Y260831D01*
X985985Y260856D01*
X986100Y260885D01*
X986214Y260918D01*
X986326Y260954D01*
X986437Y260994D01*
X986547Y261037D01*
X986656Y261084D01*
X986763Y261134D01*
X986868Y261189D01*
X986971Y261246D01*
X987072Y261307D01*
X987172Y261371D01*
X987269Y261438D01*
X987364Y261508D01*
X987456Y261582D01*
X987547Y261658D01*
X987634Y261738D01*
X987719Y261820D01*
X987801Y261905D01*
X987881Y261992D01*
X987957Y262083D01*
X988031Y262175D01*
X988101Y262270D01*
X988168Y262367D01*
X988232Y262467D01*
X988293Y262568D01*
X988350Y262671D01*
X988405Y262776D01*
X988455Y262883D01*
X988502Y262992D01*
X988545Y263102D01*
X988585Y263213D01*
X988621Y263325D01*
X988654Y263439D01*
X988683Y263554D01*
X988708Y263669D01*
X988729Y263786D01*
X988746Y263903D01*
X988760Y264020D01*
X988769Y264138D01*
X988775Y264256D01*
X988777Y264374D01*
X988777Y273406D01*
X988775Y273524D01*
X988769Y273642D01*
X988760Y273760D01*
X988746Y273877D01*
X988729Y273994D01*
X988708Y274111D01*
X988683Y274226D01*
X988654Y274341D01*
X988621Y274455D01*
X988585Y274567D01*
X988545Y274678D01*
X988502Y274788D01*
X988455Y274897D01*
X988405Y275004D01*
X988350Y275109D01*
X988293Y275212D01*
X988232Y275313D01*
X988168Y275413D01*
X988101Y275510D01*
X988031Y275605D01*
X987957Y275697D01*
X987881Y275788D01*
X987801Y275875D01*
X987719Y275960D01*
X987634Y276042D01*
X987547Y276122D01*
X987456Y276198D01*
X987364Y276272D01*
X987269Y276342D01*
X987172Y276409D01*
X987072Y276473D01*
X986971Y276534D01*
X986868Y276591D01*
X986763Y276646D01*
X986656Y276696D01*
X986547Y276743D01*
X986437Y276786D01*
X986326Y276826D01*
X986214Y276862D01*
X986100Y276895D01*
X985985Y276924D01*
X985870Y276949D01*
X985753Y276970D01*
X985636Y276987D01*
X985519Y277001D01*
X985401Y277010D01*
X985283Y277016D01*
X985165Y277018D01*
X979746Y277018D01*
X972243Y277018D02*
X972243Y260762D01*
X972243Y271599D02*
X967728Y271599D01*
X967624Y271597D01*
X967521Y271591D01*
X967417Y271581D01*
X967314Y271567D01*
X967212Y271549D01*
X967111Y271528D01*
X967010Y271502D01*
X966911Y271473D01*
X966812Y271440D01*
X966715Y271403D01*
X966620Y271362D01*
X966526Y271318D01*
X966434Y271270D01*
X966344Y271219D01*
X966255Y271164D01*
X966169Y271106D01*
X966086Y271044D01*
X966004Y270980D01*
X965926Y270912D01*
X965850Y270842D01*
X965776Y270769D01*
X965706Y270692D01*
X965638Y270614D01*
X965574Y270532D01*
X965512Y270449D01*
X965454Y270363D01*
X965399Y270274D01*
X965348Y270184D01*
X965300Y270092D01*
X965256Y269998D01*
X965215Y269903D01*
X965178Y269806D01*
X965145Y269707D01*
X965116Y269608D01*
X965090Y269507D01*
X965069Y269406D01*
X965051Y269304D01*
X965037Y269201D01*
X965027Y269097D01*
X965021Y268994D01*
X965019Y268890D01*
X965018Y268890D02*
X965018Y260762D01*
X958175Y264374D02*
X958175Y267987D01*
X958173Y268106D01*
X958167Y268226D01*
X958157Y268345D01*
X958143Y268463D01*
X958126Y268582D01*
X958104Y268699D01*
X958079Y268816D01*
X958049Y268931D01*
X958016Y269046D01*
X957979Y269160D01*
X957939Y269272D01*
X957894Y269383D01*
X957846Y269492D01*
X957795Y269600D01*
X957740Y269706D01*
X957681Y269810D01*
X957619Y269912D01*
X957554Y270012D01*
X957485Y270110D01*
X957413Y270206D01*
X957338Y270299D01*
X957261Y270389D01*
X957180Y270477D01*
X957096Y270562D01*
X957009Y270644D01*
X956920Y270724D01*
X956828Y270800D01*
X956734Y270874D01*
X956637Y270944D01*
X956539Y271011D01*
X956438Y271075D01*
X956334Y271135D01*
X956229Y271192D01*
X956122Y271245D01*
X956014Y271295D01*
X955904Y271341D01*
X955792Y271383D01*
X955679Y271422D01*
X955565Y271457D01*
X955450Y271488D01*
X955333Y271516D01*
X955216Y271539D01*
X955099Y271559D01*
X954980Y271575D01*
X954861Y271587D01*
X954742Y271595D01*
X954623Y271599D01*
X954503Y271599D01*
X954384Y271595D01*
X954265Y271587D01*
X954146Y271575D01*
X954027Y271559D01*
X953910Y271539D01*
X953793Y271516D01*
X953676Y271488D01*
X953561Y271457D01*
X953447Y271422D01*
X953334Y271383D01*
X953222Y271341D01*
X953112Y271295D01*
X953004Y271245D01*
X952897Y271192D01*
X952792Y271135D01*
X952688Y271075D01*
X952587Y271011D01*
X952489Y270944D01*
X952392Y270874D01*
X952298Y270800D01*
X952206Y270724D01*
X952117Y270644D01*
X952030Y270562D01*
X951946Y270477D01*
X951865Y270389D01*
X951788Y270299D01*
X951713Y270206D01*
X951641Y270110D01*
X951572Y270012D01*
X951507Y269912D01*
X951445Y269810D01*
X951386Y269706D01*
X951331Y269600D01*
X951280Y269492D01*
X951232Y269383D01*
X951187Y269272D01*
X951147Y269160D01*
X951110Y269046D01*
X951077Y268931D01*
X951047Y268816D01*
X951022Y268699D01*
X951000Y268582D01*
X950983Y268463D01*
X950969Y268345D01*
X950959Y268226D01*
X950953Y268106D01*
X950951Y267987D01*
X950950Y267987D02*
X950950Y264374D01*
X950951Y264374D02*
X950953Y264255D01*
X950959Y264135D01*
X950969Y264016D01*
X950983Y263898D01*
X951000Y263779D01*
X951022Y263662D01*
X951047Y263545D01*
X951077Y263430D01*
X951110Y263315D01*
X951147Y263201D01*
X951187Y263089D01*
X951232Y262978D01*
X951280Y262869D01*
X951331Y262761D01*
X951386Y262655D01*
X951445Y262551D01*
X951507Y262449D01*
X951572Y262349D01*
X951641Y262251D01*
X951713Y262155D01*
X951788Y262062D01*
X951865Y261972D01*
X951946Y261884D01*
X952030Y261799D01*
X952117Y261717D01*
X952206Y261637D01*
X952298Y261561D01*
X952392Y261487D01*
X952489Y261417D01*
X952587Y261350D01*
X952688Y261286D01*
X952792Y261226D01*
X952897Y261169D01*
X953004Y261116D01*
X953112Y261066D01*
X953222Y261020D01*
X953334Y260978D01*
X953447Y260939D01*
X953561Y260904D01*
X953676Y260873D01*
X953793Y260845D01*
X953910Y260822D01*
X954027Y260802D01*
X954146Y260786D01*
X954265Y260774D01*
X954384Y260766D01*
X954503Y260762D01*
X954623Y260762D01*
X954742Y260766D01*
X954861Y260774D01*
X954980Y260786D01*
X955099Y260802D01*
X955216Y260822D01*
X955333Y260845D01*
X955450Y260873D01*
X955565Y260904D01*
X955679Y260939D01*
X955792Y260978D01*
X955904Y261020D01*
X956014Y261066D01*
X956122Y261116D01*
X956229Y261169D01*
X956334Y261226D01*
X956438Y261286D01*
X956539Y261350D01*
X956637Y261417D01*
X956734Y261487D01*
X956828Y261561D01*
X956920Y261637D01*
X957009Y261717D01*
X957096Y261799D01*
X957180Y261884D01*
X957261Y261972D01*
X957338Y262062D01*
X957413Y262155D01*
X957485Y262251D01*
X957554Y262349D01*
X957619Y262449D01*
X957681Y262551D01*
X957740Y262655D01*
X957795Y262761D01*
X957846Y262869D01*
X957894Y262978D01*
X957939Y263089D01*
X957979Y263201D01*
X958016Y263315D01*
X958049Y263430D01*
X958079Y263545D01*
X958104Y263662D01*
X958126Y263779D01*
X958143Y263898D01*
X958157Y264016D01*
X958167Y264135D01*
X958173Y264255D01*
X958175Y264374D01*
X943273Y267084D02*
X938758Y265278D01*
X943274Y267084D02*
X943362Y267121D01*
X943448Y267162D01*
X943533Y267206D01*
X943616Y267254D01*
X943696Y267305D01*
X943775Y267359D01*
X943851Y267417D01*
X943925Y267477D01*
X943997Y267541D01*
X944065Y267607D01*
X944131Y267677D01*
X944194Y267748D01*
X944255Y267823D01*
X944312Y267899D01*
X944365Y267978D01*
X944416Y268059D01*
X944463Y268142D01*
X944507Y268227D01*
X944547Y268314D01*
X944584Y268402D01*
X944617Y268492D01*
X944647Y268583D01*
X944672Y268675D01*
X944694Y268768D01*
X944712Y268862D01*
X944727Y268956D01*
X944737Y269051D01*
X944743Y269147D01*
X944746Y269242D01*
X944745Y269338D01*
X944739Y269433D01*
X944730Y269529D01*
X944717Y269623D01*
X944701Y269717D01*
X944680Y269811D01*
X944655Y269903D01*
X944627Y269994D01*
X944595Y270084D01*
X944560Y270173D01*
X944521Y270260D01*
X944478Y270346D01*
X944432Y270430D01*
X944382Y270511D01*
X944330Y270591D01*
X944274Y270669D01*
X944214Y270744D01*
X944152Y270816D01*
X944087Y270886D01*
X944019Y270954D01*
X943949Y271018D01*
X943876Y271080D01*
X943800Y271138D01*
X943722Y271194D01*
X943642Y271246D01*
X943560Y271295D01*
X943476Y271340D01*
X943390Y271382D01*
X943303Y271421D01*
X943214Y271456D01*
X943123Y271487D01*
X943032Y271514D01*
X942939Y271538D01*
X942846Y271558D01*
X942752Y271574D01*
X942657Y271586D01*
X942562Y271595D01*
X942466Y271599D01*
X942371Y271600D01*
X942124Y271593D01*
X941878Y271581D01*
X941632Y271563D01*
X941386Y271538D01*
X941142Y271508D01*
X940898Y271472D01*
X940655Y271431D01*
X940413Y271383D01*
X940172Y271329D01*
X939933Y271270D01*
X939695Y271205D01*
X939459Y271134D01*
X939224Y271058D01*
X938991Y270976D01*
X938761Y270888D01*
X938533Y270795D01*
X938306Y270697D01*
X938757Y265277D02*
X938669Y265240D01*
X938583Y265199D01*
X938498Y265155D01*
X938415Y265107D01*
X938335Y265056D01*
X938256Y265002D01*
X938180Y264944D01*
X938106Y264884D01*
X938034Y264820D01*
X937966Y264754D01*
X937900Y264684D01*
X937837Y264613D01*
X937776Y264538D01*
X937719Y264462D01*
X937666Y264383D01*
X937615Y264302D01*
X937568Y264219D01*
X937524Y264134D01*
X937484Y264047D01*
X937447Y263959D01*
X937414Y263869D01*
X937384Y263778D01*
X937359Y263686D01*
X937337Y263593D01*
X937319Y263499D01*
X937304Y263405D01*
X937294Y263310D01*
X937288Y263214D01*
X937285Y263119D01*
X937286Y263023D01*
X937292Y262928D01*
X937301Y262832D01*
X937314Y262738D01*
X937330Y262644D01*
X937351Y262550D01*
X937376Y262458D01*
X937404Y262367D01*
X937436Y262277D01*
X937471Y262188D01*
X937510Y262101D01*
X937553Y262015D01*
X937599Y261931D01*
X937649Y261850D01*
X937701Y261770D01*
X937757Y261692D01*
X937817Y261617D01*
X937879Y261545D01*
X937944Y261475D01*
X938012Y261407D01*
X938082Y261343D01*
X938155Y261281D01*
X938231Y261223D01*
X938309Y261167D01*
X938389Y261115D01*
X938471Y261066D01*
X938555Y261021D01*
X938641Y260979D01*
X938728Y260940D01*
X938817Y260905D01*
X938908Y260874D01*
X938999Y260847D01*
X939092Y260823D01*
X939185Y260803D01*
X939279Y260787D01*
X939374Y260775D01*
X939469Y260766D01*
X939565Y260762D01*
X939660Y260761D01*
X939661Y260762D02*
X940023Y260771D01*
X940385Y260789D01*
X940746Y260816D01*
X941106Y260851D01*
X941466Y260894D01*
X941825Y260946D01*
X942182Y261007D01*
X942537Y261076D01*
X942891Y261153D01*
X943243Y261239D01*
X943593Y261333D01*
X943941Y261436D01*
X944286Y261546D01*
X944628Y261665D01*
X932378Y271599D02*
X926959Y271599D01*
X930572Y277018D02*
X930572Y263471D01*
X930570Y263370D01*
X930564Y263269D01*
X930555Y263168D01*
X930542Y263067D01*
X930525Y262967D01*
X930504Y262868D01*
X930480Y262770D01*
X930452Y262673D01*
X930420Y262576D01*
X930385Y262481D01*
X930346Y262388D01*
X930304Y262296D01*
X930258Y262205D01*
X930209Y262116D01*
X930157Y262030D01*
X930101Y261945D01*
X930043Y261862D01*
X929981Y261782D01*
X929916Y261704D01*
X929849Y261628D01*
X929779Y261555D01*
X929706Y261485D01*
X929630Y261418D01*
X929552Y261353D01*
X929472Y261291D01*
X929389Y261233D01*
X929304Y261177D01*
X929218Y261125D01*
X929129Y261076D01*
X929038Y261030D01*
X928946Y260988D01*
X928853Y260949D01*
X928758Y260914D01*
X928661Y260882D01*
X928564Y260854D01*
X928466Y260830D01*
X928367Y260809D01*
X928267Y260792D01*
X928166Y260779D01*
X928065Y260770D01*
X927964Y260764D01*
X927863Y260762D01*
X926959Y260762D01*
X919826Y267084D02*
X915311Y265278D01*
X919827Y267084D02*
X919915Y267121D01*
X920001Y267162D01*
X920086Y267206D01*
X920169Y267254D01*
X920249Y267305D01*
X920328Y267359D01*
X920404Y267417D01*
X920478Y267477D01*
X920550Y267541D01*
X920618Y267607D01*
X920684Y267677D01*
X920747Y267748D01*
X920808Y267823D01*
X920865Y267899D01*
X920918Y267978D01*
X920969Y268059D01*
X921016Y268142D01*
X921060Y268227D01*
X921100Y268314D01*
X921137Y268402D01*
X921170Y268492D01*
X921200Y268583D01*
X921225Y268675D01*
X921247Y268768D01*
X921265Y268862D01*
X921280Y268956D01*
X921290Y269051D01*
X921296Y269147D01*
X921299Y269242D01*
X921298Y269338D01*
X921292Y269433D01*
X921283Y269529D01*
X921270Y269623D01*
X921254Y269717D01*
X921233Y269811D01*
X921208Y269903D01*
X921180Y269994D01*
X921148Y270084D01*
X921113Y270173D01*
X921074Y270260D01*
X921031Y270346D01*
X920985Y270430D01*
X920935Y270511D01*
X920883Y270591D01*
X920827Y270669D01*
X920767Y270744D01*
X920705Y270816D01*
X920640Y270886D01*
X920572Y270954D01*
X920502Y271018D01*
X920429Y271080D01*
X920353Y271138D01*
X920275Y271194D01*
X920195Y271246D01*
X920113Y271295D01*
X920029Y271340D01*
X919943Y271382D01*
X919856Y271421D01*
X919767Y271456D01*
X919676Y271487D01*
X919585Y271514D01*
X919492Y271538D01*
X919399Y271558D01*
X919305Y271574D01*
X919210Y271586D01*
X919115Y271595D01*
X919019Y271599D01*
X918924Y271600D01*
X918677Y271593D01*
X918431Y271581D01*
X918185Y271563D01*
X917939Y271538D01*
X917695Y271508D01*
X917451Y271472D01*
X917208Y271431D01*
X916966Y271383D01*
X916725Y271329D01*
X916486Y271270D01*
X916248Y271205D01*
X916012Y271134D01*
X915777Y271058D01*
X915544Y270976D01*
X915314Y270888D01*
X915086Y270795D01*
X914859Y270697D01*
X915311Y265277D02*
X915223Y265240D01*
X915137Y265199D01*
X915052Y265155D01*
X914969Y265107D01*
X914889Y265056D01*
X914810Y265002D01*
X914734Y264944D01*
X914660Y264884D01*
X914588Y264820D01*
X914520Y264754D01*
X914454Y264684D01*
X914391Y264613D01*
X914330Y264538D01*
X914273Y264462D01*
X914220Y264383D01*
X914169Y264302D01*
X914122Y264219D01*
X914078Y264134D01*
X914038Y264047D01*
X914001Y263959D01*
X913968Y263869D01*
X913938Y263778D01*
X913913Y263686D01*
X913891Y263593D01*
X913873Y263499D01*
X913858Y263405D01*
X913848Y263310D01*
X913842Y263214D01*
X913839Y263119D01*
X913840Y263023D01*
X913846Y262928D01*
X913855Y262832D01*
X913868Y262738D01*
X913884Y262644D01*
X913905Y262550D01*
X913930Y262458D01*
X913958Y262367D01*
X913990Y262277D01*
X914025Y262188D01*
X914064Y262101D01*
X914107Y262015D01*
X914153Y261931D01*
X914203Y261850D01*
X914255Y261770D01*
X914311Y261692D01*
X914371Y261617D01*
X914433Y261545D01*
X914498Y261475D01*
X914566Y261407D01*
X914636Y261343D01*
X914709Y261281D01*
X914785Y261223D01*
X914863Y261167D01*
X914943Y261115D01*
X915025Y261066D01*
X915109Y261021D01*
X915195Y260979D01*
X915282Y260940D01*
X915371Y260905D01*
X915462Y260874D01*
X915553Y260847D01*
X915646Y260823D01*
X915739Y260803D01*
X915833Y260787D01*
X915928Y260775D01*
X916023Y260766D01*
X916119Y260762D01*
X916214Y260761D01*
X916214Y260762D02*
X916576Y260771D01*
X916938Y260789D01*
X917299Y260816D01*
X917659Y260851D01*
X918019Y260894D01*
X918378Y260946D01*
X918735Y261007D01*
X919090Y261076D01*
X919444Y261153D01*
X919796Y261239D01*
X920146Y261333D01*
X920494Y261436D01*
X920839Y261546D01*
X921181Y261665D01*
X899818Y271599D02*
X896206Y260762D01*
X892594Y271599D01*
X886653Y273406D02*
X882138Y277018D01*
X882138Y260762D01*
X886653Y260762D02*
X877622Y260762D01*
X871648Y260762D02*
X871648Y261665D01*
X870745Y261665D01*
X870745Y260762D01*
X871648Y260762D01*
X864770Y268890D02*
X864766Y269210D01*
X864755Y269529D01*
X864736Y269849D01*
X864709Y270167D01*
X864675Y270485D01*
X864633Y270802D01*
X864583Y271118D01*
X864526Y271433D01*
X864462Y271746D01*
X864390Y272058D01*
X864311Y272368D01*
X864224Y272675D01*
X864130Y272981D01*
X864029Y273284D01*
X863920Y273585D01*
X863805Y273883D01*
X863682Y274179D01*
X863552Y274471D01*
X863415Y274760D01*
X863415Y274761D02*
X863376Y274869D01*
X863333Y274976D01*
X863287Y275081D01*
X863236Y275185D01*
X863183Y275287D01*
X863126Y275387D01*
X863065Y275485D01*
X863001Y275580D01*
X862934Y275674D01*
X862863Y275765D01*
X862790Y275854D01*
X862713Y275940D01*
X862634Y276023D01*
X862552Y276104D01*
X862467Y276182D01*
X862379Y276256D01*
X862289Y276328D01*
X862197Y276396D01*
X862102Y276462D01*
X862005Y276524D01*
X861906Y276582D01*
X861804Y276638D01*
X861702Y276689D01*
X861597Y276737D01*
X861491Y276782D01*
X861383Y276823D01*
X861274Y276860D01*
X861164Y276893D01*
X861052Y276922D01*
X860940Y276948D01*
X860827Y276970D01*
X860713Y276987D01*
X860599Y277001D01*
X860484Y277011D01*
X860369Y277017D01*
X860254Y277019D01*
X860254Y277018D02*
X860139Y277016D01*
X860024Y277010D01*
X859909Y277000D01*
X859795Y276986D01*
X859681Y276969D01*
X859568Y276947D01*
X859456Y276921D01*
X859344Y276892D01*
X859234Y276859D01*
X859125Y276822D01*
X859017Y276781D01*
X858911Y276736D01*
X858807Y276688D01*
X858704Y276637D01*
X858603Y276581D01*
X858503Y276523D01*
X858406Y276461D01*
X858312Y276396D01*
X858219Y276327D01*
X858129Y276255D01*
X858041Y276181D01*
X857956Y276103D01*
X857874Y276022D01*
X857795Y275939D01*
X857718Y275853D01*
X857645Y275764D01*
X857574Y275673D01*
X857507Y275579D01*
X857443Y275484D01*
X857382Y275386D01*
X857325Y275286D01*
X857272Y275184D01*
X857221Y275080D01*
X857175Y274975D01*
X857132Y274868D01*
X857093Y274760D01*
X857094Y274760D02*
X856957Y274471D01*
X856827Y274179D01*
X856704Y273883D01*
X856589Y273585D01*
X856480Y273284D01*
X856379Y272981D01*
X856285Y272675D01*
X856198Y272368D01*
X856119Y272058D01*
X856047Y271746D01*
X855983Y271433D01*
X855926Y271118D01*
X855876Y270802D01*
X855834Y270485D01*
X855800Y270167D01*
X855773Y269849D01*
X855754Y269529D01*
X855743Y269210D01*
X855739Y268890D01*
X864769Y268890D02*
X864765Y268570D01*
X864754Y268251D01*
X864735Y267931D01*
X864708Y267613D01*
X864674Y267295D01*
X864632Y266978D01*
X864582Y266662D01*
X864525Y266347D01*
X864461Y266034D01*
X864389Y265722D01*
X864310Y265412D01*
X864223Y265105D01*
X864129Y264799D01*
X864028Y264496D01*
X863919Y264195D01*
X863804Y263897D01*
X863681Y263601D01*
X863551Y263309D01*
X863414Y263020D01*
X863415Y263020D02*
X863376Y262912D01*
X863333Y262805D01*
X863287Y262700D01*
X863236Y262596D01*
X863183Y262494D01*
X863126Y262394D01*
X863065Y262296D01*
X863001Y262201D01*
X862934Y262107D01*
X862863Y262016D01*
X862790Y261927D01*
X862713Y261841D01*
X862634Y261758D01*
X862552Y261677D01*
X862467Y261599D01*
X862379Y261525D01*
X862289Y261453D01*
X862196Y261384D01*
X862102Y261319D01*
X862005Y261257D01*
X861905Y261199D01*
X861804Y261143D01*
X861702Y261092D01*
X861597Y261044D01*
X861491Y260999D01*
X861383Y260958D01*
X861274Y260921D01*
X861164Y260888D01*
X861052Y260859D01*
X860940Y260833D01*
X860827Y260811D01*
X860713Y260794D01*
X860599Y260780D01*
X860484Y260770D01*
X860369Y260764D01*
X860254Y260762D01*
X857094Y263020D02*
X856957Y263309D01*
X856827Y263601D01*
X856704Y263897D01*
X856589Y264195D01*
X856480Y264496D01*
X856379Y264799D01*
X856285Y265105D01*
X856198Y265412D01*
X856119Y265722D01*
X856047Y266034D01*
X855983Y266347D01*
X855926Y266662D01*
X855876Y266978D01*
X855834Y267295D01*
X855800Y267613D01*
X855773Y267931D01*
X855754Y268251D01*
X855743Y268570D01*
X855739Y268890D01*
X857093Y263020D02*
X857132Y262912D01*
X857175Y262805D01*
X857221Y262700D01*
X857272Y262596D01*
X857325Y262494D01*
X857383Y262394D01*
X857443Y262296D01*
X857507Y262201D01*
X857574Y262107D01*
X857645Y262016D01*
X857718Y261927D01*
X857795Y261841D01*
X857874Y261758D01*
X857956Y261677D01*
X858041Y261599D01*
X858129Y261525D01*
X858219Y261453D01*
X858312Y261384D01*
X858406Y261319D01*
X858503Y261257D01*
X858603Y261199D01*
X858704Y261143D01*
X858807Y261092D01*
X858911Y261044D01*
X859017Y260999D01*
X859125Y260958D01*
X859234Y260921D01*
X859344Y260888D01*
X859456Y260859D01*
X859568Y260833D01*
X859681Y260811D01*
X859795Y260794D01*
X859909Y260780D01*
X860024Y260770D01*
X860139Y260764D01*
X860254Y260762D01*
X863867Y264374D02*
X856642Y273406D01*
X1090207Y202954D02*
X1090209Y203079D01*
X1090215Y203204D01*
X1090224Y203329D01*
X1090238Y203453D01*
X1090255Y203577D01*
X1090276Y203701D01*
X1090301Y203823D01*
X1090330Y203945D01*
X1090362Y204066D01*
X1090398Y204186D01*
X1090438Y204305D01*
X1090481Y204422D01*
X1090528Y204538D01*
X1090579Y204653D01*
X1090633Y204765D01*
X1090691Y204877D01*
X1090751Y204986D01*
X1090816Y205093D01*
X1090883Y205199D01*
X1090954Y205302D01*
X1091028Y205403D01*
X1091105Y205502D01*
X1091185Y205598D01*
X1091268Y205692D01*
X1091353Y205783D01*
X1091442Y205872D01*
X1091533Y205957D01*
X1091627Y206040D01*
X1091723Y206120D01*
X1091822Y206197D01*
X1091923Y206271D01*
X1092026Y206342D01*
X1092132Y206409D01*
X1092239Y206474D01*
X1092348Y206534D01*
X1092460Y206592D01*
X1092572Y206646D01*
X1092687Y206697D01*
X1092803Y206744D01*
X1092920Y206787D01*
X1093039Y206827D01*
X1093159Y206863D01*
X1093280Y206895D01*
X1093402Y206924D01*
X1093524Y206949D01*
X1093648Y206970D01*
X1093772Y206987D01*
X1093896Y207001D01*
X1094021Y207010D01*
X1094146Y207016D01*
X1094271Y207018D01*
X1094414Y207016D01*
X1094556Y207010D01*
X1094699Y207000D01*
X1094841Y206987D01*
X1094982Y206969D01*
X1095124Y206948D01*
X1095264Y206923D01*
X1095404Y206894D01*
X1095543Y206861D01*
X1095681Y206824D01*
X1095818Y206784D01*
X1095953Y206740D01*
X1096088Y206692D01*
X1096221Y206640D01*
X1096353Y206585D01*
X1096483Y206526D01*
X1096611Y206464D01*
X1096738Y206398D01*
X1096863Y206329D01*
X1096986Y206257D01*
X1097107Y206181D01*
X1097225Y206102D01*
X1097342Y206019D01*
X1097456Y205934D01*
X1097568Y205845D01*
X1097677Y205754D01*
X1097784Y205659D01*
X1097889Y205562D01*
X1097990Y205461D01*
X1098089Y205358D01*
X1098185Y205253D01*
X1098278Y205144D01*
X1098368Y205033D01*
X1098455Y204920D01*
X1098539Y204805D01*
X1098619Y204687D01*
X1098697Y204567D01*
X1098771Y204445D01*
X1098841Y204321D01*
X1098909Y204195D01*
X1098972Y204067D01*
X1099033Y203938D01*
X1099090Y203807D01*
X1099143Y203675D01*
X1099192Y203541D01*
X1099238Y203406D01*
X1091562Y199793D02*
X1091468Y199885D01*
X1091378Y199979D01*
X1091290Y200076D01*
X1091205Y200176D01*
X1091123Y200278D01*
X1091044Y200383D01*
X1090969Y200490D01*
X1090897Y200599D01*
X1090828Y200710D01*
X1090762Y200824D01*
X1090700Y200939D01*
X1090641Y201056D01*
X1090586Y201175D01*
X1090535Y201295D01*
X1090487Y201417D01*
X1090442Y201540D01*
X1090402Y201664D01*
X1090365Y201790D01*
X1090332Y201917D01*
X1090303Y202044D01*
X1090277Y202173D01*
X1090256Y202302D01*
X1090238Y202432D01*
X1090225Y202562D01*
X1090215Y202692D01*
X1090209Y202823D01*
X1090207Y202954D01*
X1091562Y199793D02*
X1099238Y190762D01*
X1090207Y190762D01*
X1083607Y198890D02*
X1083603Y199210D01*
X1083592Y199529D01*
X1083573Y199849D01*
X1083546Y200167D01*
X1083512Y200485D01*
X1083470Y200802D01*
X1083420Y201118D01*
X1083363Y201433D01*
X1083299Y201746D01*
X1083227Y202058D01*
X1083148Y202368D01*
X1083061Y202675D01*
X1082967Y202981D01*
X1082866Y203284D01*
X1082757Y203585D01*
X1082642Y203883D01*
X1082519Y204179D01*
X1082389Y204471D01*
X1082252Y204760D01*
X1082252Y204761D02*
X1082213Y204869D01*
X1082170Y204976D01*
X1082124Y205081D01*
X1082073Y205185D01*
X1082020Y205287D01*
X1081963Y205387D01*
X1081902Y205485D01*
X1081838Y205580D01*
X1081771Y205674D01*
X1081700Y205765D01*
X1081627Y205854D01*
X1081550Y205940D01*
X1081471Y206023D01*
X1081389Y206104D01*
X1081304Y206182D01*
X1081216Y206256D01*
X1081126Y206328D01*
X1081034Y206396D01*
X1080939Y206462D01*
X1080842Y206524D01*
X1080743Y206582D01*
X1080641Y206638D01*
X1080539Y206689D01*
X1080434Y206737D01*
X1080328Y206782D01*
X1080220Y206823D01*
X1080111Y206860D01*
X1080001Y206893D01*
X1079889Y206922D01*
X1079777Y206948D01*
X1079664Y206970D01*
X1079550Y206987D01*
X1079436Y207001D01*
X1079321Y207011D01*
X1079206Y207017D01*
X1079091Y207019D01*
X1079091Y207018D02*
X1078976Y207016D01*
X1078861Y207010D01*
X1078746Y207000D01*
X1078632Y206986D01*
X1078518Y206969D01*
X1078405Y206947D01*
X1078293Y206921D01*
X1078181Y206892D01*
X1078071Y206859D01*
X1077962Y206822D01*
X1077854Y206781D01*
X1077748Y206736D01*
X1077644Y206688D01*
X1077541Y206637D01*
X1077440Y206581D01*
X1077340Y206523D01*
X1077243Y206461D01*
X1077149Y206396D01*
X1077056Y206327D01*
X1076966Y206255D01*
X1076878Y206181D01*
X1076793Y206103D01*
X1076711Y206022D01*
X1076632Y205939D01*
X1076555Y205853D01*
X1076482Y205764D01*
X1076411Y205673D01*
X1076344Y205579D01*
X1076280Y205484D01*
X1076219Y205386D01*
X1076162Y205286D01*
X1076109Y205184D01*
X1076058Y205080D01*
X1076012Y204975D01*
X1075969Y204868D01*
X1075930Y204760D01*
X1075931Y204760D02*
X1075794Y204471D01*
X1075664Y204179D01*
X1075541Y203883D01*
X1075426Y203585D01*
X1075317Y203284D01*
X1075216Y202981D01*
X1075122Y202675D01*
X1075035Y202368D01*
X1074956Y202058D01*
X1074884Y201746D01*
X1074820Y201433D01*
X1074763Y201118D01*
X1074713Y200802D01*
X1074671Y200485D01*
X1074637Y200167D01*
X1074610Y199849D01*
X1074591Y199529D01*
X1074580Y199210D01*
X1074576Y198890D01*
X1083606Y198890D02*
X1083602Y198570D01*
X1083591Y198251D01*
X1083572Y197931D01*
X1083545Y197613D01*
X1083511Y197295D01*
X1083469Y196978D01*
X1083419Y196662D01*
X1083362Y196347D01*
X1083298Y196034D01*
X1083226Y195722D01*
X1083147Y195412D01*
X1083060Y195105D01*
X1082966Y194799D01*
X1082865Y194496D01*
X1082756Y194195D01*
X1082641Y193897D01*
X1082518Y193601D01*
X1082388Y193309D01*
X1082251Y193020D01*
X1082252Y193020D02*
X1082213Y192912D01*
X1082170Y192805D01*
X1082124Y192700D01*
X1082073Y192596D01*
X1082020Y192494D01*
X1081963Y192394D01*
X1081902Y192296D01*
X1081838Y192201D01*
X1081771Y192107D01*
X1081700Y192016D01*
X1081627Y191927D01*
X1081550Y191841D01*
X1081471Y191758D01*
X1081389Y191677D01*
X1081304Y191599D01*
X1081216Y191525D01*
X1081126Y191453D01*
X1081033Y191384D01*
X1080939Y191319D01*
X1080842Y191257D01*
X1080742Y191199D01*
X1080641Y191143D01*
X1080539Y191092D01*
X1080434Y191044D01*
X1080328Y190999D01*
X1080220Y190958D01*
X1080111Y190921D01*
X1080001Y190888D01*
X1079889Y190859D01*
X1079777Y190833D01*
X1079664Y190811D01*
X1079550Y190794D01*
X1079436Y190780D01*
X1079321Y190770D01*
X1079206Y190764D01*
X1079091Y190762D01*
X1075931Y193020D02*
X1075794Y193309D01*
X1075664Y193601D01*
X1075541Y193897D01*
X1075426Y194195D01*
X1075317Y194496D01*
X1075216Y194799D01*
X1075122Y195105D01*
X1075035Y195412D01*
X1074956Y195722D01*
X1074884Y196034D01*
X1074820Y196347D01*
X1074763Y196662D01*
X1074713Y196978D01*
X1074671Y197295D01*
X1074637Y197613D01*
X1074610Y197931D01*
X1074591Y198251D01*
X1074580Y198570D01*
X1074576Y198890D01*
X1075930Y193020D02*
X1075969Y192912D01*
X1076012Y192805D01*
X1076058Y192700D01*
X1076109Y192596D01*
X1076162Y192494D01*
X1076220Y192394D01*
X1076280Y192296D01*
X1076344Y192201D01*
X1076411Y192107D01*
X1076482Y192016D01*
X1076555Y191927D01*
X1076632Y191841D01*
X1076711Y191758D01*
X1076793Y191677D01*
X1076878Y191599D01*
X1076966Y191525D01*
X1077056Y191453D01*
X1077149Y191384D01*
X1077243Y191319D01*
X1077340Y191257D01*
X1077440Y191199D01*
X1077541Y191143D01*
X1077644Y191092D01*
X1077748Y191044D01*
X1077854Y190999D01*
X1077962Y190958D01*
X1078071Y190921D01*
X1078181Y190888D01*
X1078293Y190859D01*
X1078405Y190833D01*
X1078518Y190811D01*
X1078632Y190794D01*
X1078746Y190780D01*
X1078861Y190770D01*
X1078976Y190764D01*
X1079091Y190762D01*
X1082704Y194374D02*
X1075479Y203406D01*
X1067976Y203406D02*
X1063460Y207018D01*
X1063460Y190762D01*
X1067976Y190762D02*
X1058944Y190762D01*
X1052345Y195278D02*
X1052343Y195411D01*
X1052337Y195543D01*
X1052327Y195675D01*
X1052314Y195807D01*
X1052296Y195939D01*
X1052275Y196069D01*
X1052250Y196200D01*
X1052221Y196329D01*
X1052188Y196457D01*
X1052152Y196585D01*
X1052112Y196711D01*
X1052068Y196836D01*
X1052020Y196960D01*
X1051969Y197082D01*
X1051914Y197203D01*
X1051856Y197322D01*
X1051794Y197440D01*
X1051729Y197555D01*
X1051660Y197669D01*
X1051589Y197780D01*
X1051513Y197889D01*
X1051435Y197996D01*
X1051354Y198101D01*
X1051269Y198203D01*
X1051182Y198303D01*
X1051092Y198400D01*
X1050999Y198495D01*
X1050903Y198586D01*
X1050805Y198675D01*
X1050704Y198761D01*
X1050600Y198844D01*
X1050494Y198924D01*
X1050386Y199000D01*
X1050276Y199074D01*
X1050163Y199144D01*
X1050049Y199211D01*
X1049932Y199274D01*
X1049814Y199334D01*
X1049694Y199391D01*
X1049572Y199444D01*
X1049449Y199493D01*
X1049325Y199539D01*
X1049199Y199581D01*
X1049072Y199619D01*
X1048944Y199654D01*
X1048815Y199685D01*
X1048686Y199712D01*
X1048555Y199735D01*
X1048424Y199755D01*
X1048292Y199770D01*
X1048160Y199782D01*
X1048028Y199790D01*
X1047895Y199794D01*
X1047763Y199794D01*
X1047630Y199790D01*
X1047498Y199782D01*
X1047366Y199770D01*
X1047234Y199755D01*
X1047103Y199735D01*
X1046972Y199712D01*
X1046843Y199685D01*
X1046714Y199654D01*
X1046586Y199619D01*
X1046459Y199581D01*
X1046333Y199539D01*
X1046209Y199493D01*
X1046086Y199444D01*
X1045964Y199391D01*
X1045844Y199334D01*
X1045726Y199274D01*
X1045609Y199211D01*
X1045495Y199144D01*
X1045382Y199074D01*
X1045272Y199000D01*
X1045164Y198924D01*
X1045058Y198844D01*
X1044954Y198761D01*
X1044853Y198675D01*
X1044755Y198586D01*
X1044659Y198495D01*
X1044566Y198400D01*
X1044476Y198303D01*
X1044389Y198203D01*
X1044304Y198101D01*
X1044223Y197996D01*
X1044145Y197889D01*
X1044069Y197780D01*
X1043998Y197669D01*
X1043929Y197555D01*
X1043864Y197440D01*
X1043802Y197322D01*
X1043744Y197203D01*
X1043689Y197082D01*
X1043638Y196960D01*
X1043590Y196836D01*
X1043546Y196711D01*
X1043506Y196585D01*
X1043470Y196457D01*
X1043437Y196329D01*
X1043408Y196200D01*
X1043383Y196069D01*
X1043362Y195939D01*
X1043344Y195807D01*
X1043331Y195675D01*
X1043321Y195543D01*
X1043315Y195411D01*
X1043313Y195278D01*
X1043315Y195145D01*
X1043321Y195013D01*
X1043331Y194881D01*
X1043344Y194749D01*
X1043362Y194617D01*
X1043383Y194487D01*
X1043408Y194356D01*
X1043437Y194227D01*
X1043470Y194099D01*
X1043506Y193971D01*
X1043546Y193845D01*
X1043590Y193720D01*
X1043638Y193596D01*
X1043689Y193474D01*
X1043744Y193353D01*
X1043802Y193234D01*
X1043864Y193116D01*
X1043929Y193001D01*
X1043998Y192887D01*
X1044069Y192776D01*
X1044145Y192667D01*
X1044223Y192560D01*
X1044304Y192455D01*
X1044389Y192353D01*
X1044476Y192253D01*
X1044566Y192156D01*
X1044659Y192061D01*
X1044755Y191970D01*
X1044853Y191881D01*
X1044954Y191795D01*
X1045058Y191712D01*
X1045164Y191632D01*
X1045272Y191556D01*
X1045382Y191482D01*
X1045495Y191412D01*
X1045609Y191345D01*
X1045726Y191282D01*
X1045844Y191222D01*
X1045964Y191165D01*
X1046086Y191112D01*
X1046209Y191063D01*
X1046333Y191017D01*
X1046459Y190975D01*
X1046586Y190937D01*
X1046714Y190902D01*
X1046843Y190871D01*
X1046972Y190844D01*
X1047103Y190821D01*
X1047234Y190801D01*
X1047366Y190786D01*
X1047498Y190774D01*
X1047630Y190766D01*
X1047763Y190762D01*
X1047895Y190762D01*
X1048028Y190766D01*
X1048160Y190774D01*
X1048292Y190786D01*
X1048424Y190801D01*
X1048555Y190821D01*
X1048686Y190844D01*
X1048815Y190871D01*
X1048944Y190902D01*
X1049072Y190937D01*
X1049199Y190975D01*
X1049325Y191017D01*
X1049449Y191063D01*
X1049572Y191112D01*
X1049694Y191165D01*
X1049814Y191222D01*
X1049932Y191282D01*
X1050049Y191345D01*
X1050163Y191412D01*
X1050276Y191482D01*
X1050386Y191556D01*
X1050494Y191632D01*
X1050600Y191712D01*
X1050704Y191795D01*
X1050805Y191881D01*
X1050903Y191970D01*
X1050999Y192061D01*
X1051092Y192156D01*
X1051182Y192253D01*
X1051269Y192353D01*
X1051354Y192455D01*
X1051435Y192560D01*
X1051513Y192667D01*
X1051589Y192776D01*
X1051660Y192887D01*
X1051729Y193001D01*
X1051794Y193116D01*
X1051856Y193234D01*
X1051914Y193353D01*
X1051969Y193474D01*
X1052020Y193596D01*
X1052068Y193720D01*
X1052112Y193845D01*
X1052152Y193971D01*
X1052188Y194099D01*
X1052221Y194227D01*
X1052250Y194356D01*
X1052275Y194487D01*
X1052296Y194617D01*
X1052314Y194749D01*
X1052327Y194881D01*
X1052337Y195013D01*
X1052343Y195145D01*
X1052345Y195278D01*
X1051441Y203406D02*
X1051439Y203525D01*
X1051433Y203645D01*
X1051423Y203764D01*
X1051409Y203882D01*
X1051392Y204001D01*
X1051370Y204118D01*
X1051345Y204235D01*
X1051315Y204350D01*
X1051282Y204465D01*
X1051245Y204579D01*
X1051205Y204691D01*
X1051160Y204802D01*
X1051112Y204911D01*
X1051061Y205019D01*
X1051006Y205125D01*
X1050947Y205229D01*
X1050885Y205331D01*
X1050820Y205431D01*
X1050751Y205529D01*
X1050679Y205625D01*
X1050604Y205718D01*
X1050527Y205808D01*
X1050446Y205896D01*
X1050362Y205981D01*
X1050275Y206063D01*
X1050186Y206143D01*
X1050094Y206219D01*
X1050000Y206293D01*
X1049903Y206363D01*
X1049805Y206430D01*
X1049704Y206494D01*
X1049600Y206554D01*
X1049495Y206611D01*
X1049388Y206664D01*
X1049280Y206714D01*
X1049170Y206760D01*
X1049058Y206802D01*
X1048945Y206841D01*
X1048831Y206876D01*
X1048716Y206907D01*
X1048599Y206935D01*
X1048482Y206958D01*
X1048365Y206978D01*
X1048246Y206994D01*
X1048127Y207006D01*
X1048008Y207014D01*
X1047889Y207018D01*
X1047769Y207018D01*
X1047650Y207014D01*
X1047531Y207006D01*
X1047412Y206994D01*
X1047293Y206978D01*
X1047176Y206958D01*
X1047059Y206935D01*
X1046942Y206907D01*
X1046827Y206876D01*
X1046713Y206841D01*
X1046600Y206802D01*
X1046488Y206760D01*
X1046378Y206714D01*
X1046270Y206664D01*
X1046163Y206611D01*
X1046058Y206554D01*
X1045954Y206494D01*
X1045853Y206430D01*
X1045755Y206363D01*
X1045658Y206293D01*
X1045564Y206219D01*
X1045472Y206143D01*
X1045383Y206063D01*
X1045296Y205981D01*
X1045212Y205896D01*
X1045131Y205808D01*
X1045054Y205718D01*
X1044979Y205625D01*
X1044907Y205529D01*
X1044838Y205431D01*
X1044773Y205331D01*
X1044711Y205229D01*
X1044652Y205125D01*
X1044597Y205019D01*
X1044546Y204911D01*
X1044498Y204802D01*
X1044453Y204691D01*
X1044413Y204579D01*
X1044376Y204465D01*
X1044343Y204350D01*
X1044313Y204235D01*
X1044288Y204118D01*
X1044266Y204001D01*
X1044249Y203882D01*
X1044235Y203764D01*
X1044225Y203645D01*
X1044219Y203525D01*
X1044217Y203406D01*
X1044219Y203287D01*
X1044225Y203167D01*
X1044235Y203048D01*
X1044249Y202930D01*
X1044266Y202811D01*
X1044288Y202694D01*
X1044313Y202577D01*
X1044343Y202462D01*
X1044376Y202347D01*
X1044413Y202233D01*
X1044453Y202121D01*
X1044498Y202010D01*
X1044546Y201901D01*
X1044597Y201793D01*
X1044652Y201687D01*
X1044711Y201583D01*
X1044773Y201481D01*
X1044838Y201381D01*
X1044907Y201283D01*
X1044979Y201187D01*
X1045054Y201094D01*
X1045131Y201004D01*
X1045212Y200916D01*
X1045296Y200831D01*
X1045383Y200749D01*
X1045472Y200669D01*
X1045564Y200593D01*
X1045658Y200519D01*
X1045755Y200449D01*
X1045853Y200382D01*
X1045954Y200318D01*
X1046058Y200258D01*
X1046163Y200201D01*
X1046270Y200148D01*
X1046378Y200098D01*
X1046488Y200052D01*
X1046600Y200010D01*
X1046713Y199971D01*
X1046827Y199936D01*
X1046942Y199905D01*
X1047059Y199877D01*
X1047176Y199854D01*
X1047293Y199834D01*
X1047412Y199818D01*
X1047531Y199806D01*
X1047650Y199798D01*
X1047769Y199794D01*
X1047889Y199794D01*
X1048008Y199798D01*
X1048127Y199806D01*
X1048246Y199818D01*
X1048365Y199834D01*
X1048482Y199854D01*
X1048599Y199877D01*
X1048716Y199905D01*
X1048831Y199936D01*
X1048945Y199971D01*
X1049058Y200010D01*
X1049170Y200052D01*
X1049280Y200098D01*
X1049388Y200148D01*
X1049495Y200201D01*
X1049600Y200258D01*
X1049704Y200318D01*
X1049805Y200382D01*
X1049903Y200449D01*
X1050000Y200519D01*
X1050094Y200593D01*
X1050186Y200669D01*
X1050275Y200749D01*
X1050362Y200831D01*
X1050446Y200916D01*
X1050527Y201004D01*
X1050604Y201094D01*
X1050679Y201187D01*
X1050751Y201283D01*
X1050820Y201381D01*
X1050885Y201481D01*
X1050947Y201583D01*
X1051006Y201687D01*
X1051061Y201793D01*
X1051112Y201901D01*
X1051160Y202010D01*
X1051205Y202121D01*
X1051245Y202233D01*
X1051282Y202347D01*
X1051315Y202462D01*
X1051345Y202577D01*
X1051370Y202694D01*
X1051392Y202811D01*
X1051409Y202930D01*
X1051423Y203048D01*
X1051433Y203167D01*
X1051439Y203287D01*
X1051441Y203406D01*
X1036574Y197084D02*
X1025737Y197084D01*
X1015123Y194374D02*
X1015123Y207018D01*
X1015123Y194374D02*
X1015125Y194256D01*
X1015131Y194138D01*
X1015140Y194020D01*
X1015154Y193903D01*
X1015171Y193786D01*
X1015192Y193669D01*
X1015217Y193554D01*
X1015246Y193439D01*
X1015279Y193325D01*
X1015315Y193213D01*
X1015355Y193102D01*
X1015398Y192992D01*
X1015445Y192883D01*
X1015495Y192776D01*
X1015550Y192671D01*
X1015607Y192568D01*
X1015668Y192467D01*
X1015732Y192367D01*
X1015799Y192270D01*
X1015869Y192175D01*
X1015943Y192083D01*
X1016019Y191992D01*
X1016099Y191905D01*
X1016181Y191820D01*
X1016266Y191738D01*
X1016353Y191658D01*
X1016444Y191582D01*
X1016536Y191508D01*
X1016631Y191438D01*
X1016728Y191371D01*
X1016828Y191307D01*
X1016929Y191246D01*
X1017032Y191189D01*
X1017137Y191134D01*
X1017244Y191084D01*
X1017353Y191037D01*
X1017463Y190994D01*
X1017574Y190954D01*
X1017686Y190918D01*
X1017800Y190885D01*
X1017915Y190856D01*
X1018030Y190831D01*
X1018147Y190810D01*
X1018264Y190793D01*
X1018381Y190779D01*
X1018499Y190770D01*
X1018617Y190764D01*
X1018735Y190762D01*
X1020542Y190762D01*
X1007674Y193471D02*
X1007674Y201599D01*
X1007674Y193471D02*
X1007672Y193370D01*
X1007666Y193269D01*
X1007657Y193168D01*
X1007644Y193067D01*
X1007627Y192967D01*
X1007606Y192868D01*
X1007582Y192770D01*
X1007554Y192673D01*
X1007522Y192576D01*
X1007487Y192481D01*
X1007448Y192388D01*
X1007406Y192296D01*
X1007360Y192205D01*
X1007311Y192116D01*
X1007259Y192030D01*
X1007203Y191945D01*
X1007145Y191862D01*
X1007083Y191782D01*
X1007018Y191704D01*
X1006951Y191628D01*
X1006881Y191555D01*
X1006808Y191485D01*
X1006732Y191418D01*
X1006654Y191353D01*
X1006574Y191291D01*
X1006491Y191233D01*
X1006406Y191177D01*
X1006320Y191125D01*
X1006231Y191076D01*
X1006140Y191030D01*
X1006048Y190988D01*
X1005955Y190949D01*
X1005860Y190914D01*
X1005763Y190882D01*
X1005666Y190854D01*
X1005568Y190830D01*
X1005469Y190809D01*
X1005369Y190792D01*
X1005268Y190779D01*
X1005167Y190770D01*
X1005066Y190764D01*
X1004965Y190762D01*
X1000449Y190762D01*
X1000449Y201599D01*
X993085Y201599D02*
X993085Y190762D01*
X993085Y201599D02*
X988569Y201599D01*
X988465Y201597D01*
X988362Y201591D01*
X988258Y201581D01*
X988155Y201567D01*
X988053Y201549D01*
X987952Y201528D01*
X987851Y201502D01*
X987752Y201473D01*
X987653Y201440D01*
X987556Y201403D01*
X987461Y201362D01*
X987367Y201318D01*
X987275Y201270D01*
X987185Y201219D01*
X987096Y201164D01*
X987010Y201106D01*
X986927Y201044D01*
X986845Y200980D01*
X986767Y200912D01*
X986691Y200842D01*
X986617Y200769D01*
X986547Y200692D01*
X986479Y200614D01*
X986415Y200532D01*
X986353Y200449D01*
X986295Y200363D01*
X986240Y200274D01*
X986189Y200184D01*
X986141Y200092D01*
X986097Y199998D01*
X986056Y199903D01*
X986019Y199806D01*
X985986Y199707D01*
X985957Y199608D01*
X985931Y199507D01*
X985910Y199406D01*
X985892Y199304D01*
X985878Y199201D01*
X985868Y199097D01*
X985862Y198994D01*
X985860Y198890D01*
X985860Y190762D01*
X978739Y197084D02*
X967901Y197084D01*
X961162Y198890D02*
X961158Y199210D01*
X961147Y199529D01*
X961128Y199849D01*
X961101Y200167D01*
X961067Y200485D01*
X961025Y200802D01*
X960975Y201118D01*
X960918Y201433D01*
X960854Y201746D01*
X960782Y202058D01*
X960703Y202368D01*
X960616Y202675D01*
X960522Y202981D01*
X960421Y203284D01*
X960312Y203585D01*
X960197Y203883D01*
X960074Y204179D01*
X959944Y204471D01*
X959807Y204760D01*
X959808Y204761D02*
X959769Y204869D01*
X959726Y204976D01*
X959680Y205081D01*
X959629Y205185D01*
X959576Y205287D01*
X959519Y205387D01*
X959458Y205485D01*
X959394Y205580D01*
X959327Y205674D01*
X959256Y205765D01*
X959183Y205854D01*
X959106Y205940D01*
X959027Y206023D01*
X958945Y206104D01*
X958860Y206182D01*
X958772Y206256D01*
X958682Y206328D01*
X958590Y206396D01*
X958495Y206462D01*
X958398Y206524D01*
X958299Y206582D01*
X958197Y206638D01*
X958095Y206689D01*
X957990Y206737D01*
X957884Y206782D01*
X957776Y206823D01*
X957667Y206860D01*
X957557Y206893D01*
X957445Y206922D01*
X957333Y206948D01*
X957220Y206970D01*
X957106Y206987D01*
X956992Y207001D01*
X956877Y207011D01*
X956762Y207017D01*
X956647Y207019D01*
X956647Y207018D02*
X956532Y207016D01*
X956417Y207010D01*
X956302Y207000D01*
X956188Y206986D01*
X956074Y206969D01*
X955961Y206947D01*
X955849Y206921D01*
X955737Y206892D01*
X955627Y206859D01*
X955518Y206822D01*
X955410Y206781D01*
X955304Y206736D01*
X955200Y206688D01*
X955097Y206637D01*
X954996Y206581D01*
X954896Y206523D01*
X954799Y206461D01*
X954705Y206396D01*
X954612Y206327D01*
X954522Y206255D01*
X954434Y206181D01*
X954349Y206103D01*
X954267Y206022D01*
X954188Y205939D01*
X954111Y205853D01*
X954038Y205764D01*
X953967Y205673D01*
X953900Y205579D01*
X953836Y205484D01*
X953775Y205386D01*
X953718Y205286D01*
X953665Y205184D01*
X953614Y205080D01*
X953568Y204975D01*
X953525Y204868D01*
X953486Y204760D01*
X953349Y204471D01*
X953219Y204179D01*
X953096Y203883D01*
X952981Y203585D01*
X952872Y203284D01*
X952771Y202981D01*
X952677Y202675D01*
X952590Y202368D01*
X952511Y202058D01*
X952439Y201746D01*
X952375Y201433D01*
X952318Y201118D01*
X952268Y200802D01*
X952226Y200485D01*
X952192Y200167D01*
X952165Y199849D01*
X952146Y199529D01*
X952135Y199210D01*
X952131Y198890D01*
X961162Y198890D02*
X961158Y198570D01*
X961147Y198251D01*
X961128Y197931D01*
X961101Y197613D01*
X961067Y197295D01*
X961025Y196978D01*
X960975Y196662D01*
X960918Y196347D01*
X960854Y196034D01*
X960782Y195722D01*
X960703Y195412D01*
X960616Y195105D01*
X960522Y194799D01*
X960421Y194496D01*
X960312Y194195D01*
X960197Y193897D01*
X960074Y193601D01*
X959944Y193309D01*
X959807Y193020D01*
X959808Y193020D02*
X959769Y192912D01*
X959726Y192805D01*
X959680Y192700D01*
X959629Y192596D01*
X959576Y192494D01*
X959519Y192394D01*
X959458Y192296D01*
X959394Y192201D01*
X959327Y192107D01*
X959256Y192016D01*
X959183Y191927D01*
X959106Y191841D01*
X959027Y191758D01*
X958945Y191677D01*
X958860Y191599D01*
X958772Y191525D01*
X958682Y191453D01*
X958589Y191384D01*
X958495Y191319D01*
X958398Y191257D01*
X958298Y191199D01*
X958197Y191143D01*
X958095Y191092D01*
X957990Y191044D01*
X957884Y190999D01*
X957776Y190958D01*
X957667Y190921D01*
X957557Y190888D01*
X957445Y190859D01*
X957333Y190833D01*
X957220Y190811D01*
X957106Y190794D01*
X956992Y190780D01*
X956877Y190770D01*
X956762Y190764D01*
X956647Y190762D01*
X953487Y193020D02*
X953350Y193309D01*
X953220Y193601D01*
X953097Y193897D01*
X952982Y194195D01*
X952873Y194496D01*
X952772Y194799D01*
X952678Y195105D01*
X952591Y195412D01*
X952512Y195722D01*
X952440Y196034D01*
X952376Y196347D01*
X952319Y196662D01*
X952269Y196978D01*
X952227Y197295D01*
X952193Y197613D01*
X952166Y197931D01*
X952147Y198251D01*
X952136Y198570D01*
X952132Y198890D01*
X953486Y193020D02*
X953525Y192912D01*
X953568Y192805D01*
X953614Y192700D01*
X953665Y192596D01*
X953718Y192494D01*
X953776Y192394D01*
X953836Y192296D01*
X953900Y192201D01*
X953967Y192107D01*
X954038Y192016D01*
X954111Y191927D01*
X954188Y191841D01*
X954267Y191758D01*
X954349Y191677D01*
X954434Y191599D01*
X954522Y191525D01*
X954612Y191453D01*
X954705Y191384D01*
X954799Y191319D01*
X954896Y191257D01*
X954996Y191199D01*
X955097Y191143D01*
X955200Y191092D01*
X955304Y191044D01*
X955410Y190999D01*
X955518Y190958D01*
X955627Y190921D01*
X955737Y190888D01*
X955849Y190859D01*
X955961Y190833D01*
X956074Y190811D01*
X956188Y190794D01*
X956302Y190780D01*
X956417Y190770D01*
X956532Y190764D01*
X956647Y190762D01*
X960259Y194374D02*
X953034Y203406D01*
X940564Y207018D02*
X940439Y207016D01*
X940314Y207010D01*
X940189Y207001D01*
X940065Y206987D01*
X939941Y206970D01*
X939817Y206949D01*
X939695Y206924D01*
X939573Y206895D01*
X939452Y206863D01*
X939332Y206827D01*
X939213Y206787D01*
X939096Y206744D01*
X938980Y206697D01*
X938865Y206646D01*
X938753Y206592D01*
X938641Y206534D01*
X938532Y206474D01*
X938425Y206409D01*
X938319Y206342D01*
X938216Y206271D01*
X938115Y206197D01*
X938016Y206120D01*
X937920Y206040D01*
X937826Y205957D01*
X937735Y205872D01*
X937646Y205783D01*
X937561Y205692D01*
X937478Y205598D01*
X937398Y205502D01*
X937321Y205403D01*
X937247Y205302D01*
X937176Y205199D01*
X937109Y205093D01*
X937044Y204986D01*
X936984Y204877D01*
X936926Y204765D01*
X936872Y204653D01*
X936821Y204538D01*
X936774Y204422D01*
X936731Y204305D01*
X936691Y204186D01*
X936655Y204066D01*
X936623Y203945D01*
X936594Y203823D01*
X936569Y203701D01*
X936548Y203577D01*
X936531Y203453D01*
X936517Y203329D01*
X936508Y203204D01*
X936502Y203079D01*
X936500Y202954D01*
X940564Y207018D02*
X940707Y207016D01*
X940849Y207010D01*
X940992Y207000D01*
X941134Y206987D01*
X941275Y206969D01*
X941417Y206948D01*
X941557Y206923D01*
X941697Y206894D01*
X941836Y206861D01*
X941974Y206824D01*
X942111Y206784D01*
X942246Y206740D01*
X942381Y206692D01*
X942514Y206640D01*
X942646Y206585D01*
X942776Y206526D01*
X942904Y206464D01*
X943031Y206398D01*
X943156Y206329D01*
X943279Y206257D01*
X943400Y206181D01*
X943518Y206102D01*
X943635Y206019D01*
X943749Y205934D01*
X943861Y205845D01*
X943970Y205754D01*
X944077Y205659D01*
X944182Y205562D01*
X944283Y205461D01*
X944382Y205358D01*
X944478Y205253D01*
X944571Y205144D01*
X944661Y205033D01*
X944748Y204920D01*
X944832Y204805D01*
X944912Y204687D01*
X944990Y204567D01*
X945064Y204445D01*
X945134Y204321D01*
X945202Y204195D01*
X945265Y204067D01*
X945326Y203938D01*
X945383Y203807D01*
X945436Y203675D01*
X945485Y203541D01*
X945531Y203406D01*
X937855Y199793D02*
X937761Y199885D01*
X937671Y199979D01*
X937583Y200076D01*
X937498Y200176D01*
X937416Y200278D01*
X937337Y200383D01*
X937262Y200490D01*
X937190Y200599D01*
X937121Y200710D01*
X937055Y200824D01*
X936993Y200939D01*
X936934Y201056D01*
X936879Y201175D01*
X936828Y201295D01*
X936780Y201417D01*
X936735Y201540D01*
X936695Y201664D01*
X936658Y201790D01*
X936625Y201917D01*
X936596Y202044D01*
X936570Y202173D01*
X936549Y202302D01*
X936531Y202432D01*
X936518Y202562D01*
X936508Y202692D01*
X936502Y202823D01*
X936500Y202954D01*
X937855Y199793D02*
X945531Y190762D01*
X936500Y190762D01*
M02*
