G04 EAGLE Gerber X2 export*
%TF.Part,Single*%
%TF.FileFunction,Soldermask,Bot,1*%
%TF.FilePolarity,Negative*%
%TF.GenerationSoftware,Autodesk,EAGLE,8.6.0*%
%TF.CreationDate,2018-06-26T05:58:37Z*%
G75*
%MOMM*%
%FSLAX34Y34*%
%LPD*%
%AMOC8*
5,1,8,0,0,1.08239X$1,22.5*%
G01*
%ADD10C,2.953200*%
%ADD11R,2.873200X2.873200*%
%ADD12C,6.619200*%
%ADD13P,1.869504X8X22.500000*%
%ADD14C,0.959600*%


D10*
X35000Y35000D03*
X35000Y265000D03*
X615000Y265000D03*
X615000Y35000D03*
D11*
X346000Y226200D03*
X346000Y175400D03*
X346000Y124600D03*
X346000Y73800D03*
X974700Y226200D03*
X974700Y175400D03*
X974700Y124600D03*
X974700Y73800D03*
X436000Y226200D03*
X436000Y175400D03*
X436000Y124600D03*
X436000Y73800D03*
X1064700Y226200D03*
X1064700Y175400D03*
X1064700Y124600D03*
X1064700Y73800D03*
X526000Y226200D03*
X526000Y175400D03*
X526000Y124600D03*
X526000Y73800D03*
X793700Y226200D03*
X793700Y175400D03*
X793700Y124600D03*
X793700Y73800D03*
X702000Y226200D03*
X702000Y175400D03*
X702000Y124600D03*
X702000Y73800D03*
X884700Y226200D03*
X884700Y175400D03*
X884700Y124600D03*
X884700Y73800D03*
D12*
X126080Y110500D02*
X61920Y110500D01*
X61920Y189500D02*
X126080Y189500D01*
D13*
X84600Y252300D03*
X84600Y277700D03*
X110000Y252300D03*
X110000Y277700D03*
X135400Y252300D03*
X135400Y277700D03*
D14*
X411875Y226250D03*
X369375Y226250D03*
X411250Y176250D03*
X368750Y175625D03*
X260000Y120000D03*
X260000Y100000D03*
X260000Y80000D03*
X239375Y221875D03*
X600000Y200000D03*
X600625Y154375D03*
X260000Y201875D03*
X223750Y160625D03*
M02*
